<svg xmlns="http://www.w3.org/2000/svg" width="24" height="24" viewBox="0 0 24 24" fill="none" stroke="#7C3AED" stroke-width="2" stroke-linecap="round" stroke-linejoin="round">
  <path d="M9.937 15.5A2 2 0 0 0 8.5 14.063l-6.135-1.582a.5.5 0 0 1 0-.962L8.5 9.937A2 2 0 0 0 9.937 8.5l1.582-6.135a.5.5 0 0 1 .962 0l1.582 6.135A2 2 0 0 0 15.5 9.937l6.135 1.582a.5.5 0 0 1 0 .962L15.5 14.063a2 2 0 0 0-1.437 1.437l-1.582 6.135a.5.5 0 0 1-.962 0l-1.582-6.135z"/>
  <path d="M20 3v4M22 5h-4" stroke-width="1.5"/>
  <path d="M4 17v2M5 18H3" stroke-width="1.5"/>
</svg>
