<svg
  viewBox="0 0 14 14"
  fill="none"
  xmlns="http://www.w3.org/2000/svg"
>
  <path
    d="M2.91668 1.16663H11.0833C11.2381 1.16663 11.3864 1.22808 11.4958 1.33748C11.6052 1.44688 11.6667 1.59525 11.6667 1.74996V12.9167C11.6667 12.9689 11.6528 13.0201 11.6264 13.065C11.5999 13.11 11.5619 13.147 11.5163 13.1723C11.4706 13.1975 11.4191 13.2101 11.3669 13.2086C11.3148 13.2072 11.264 13.1918 11.2198 13.164L7.00001 10.5175L2.78018 13.1635C2.73606 13.1912 2.68532 13.2066 2.63324 13.208C2.58115 13.2095 2.52963 13.197 2.48402 13.1718C2.4384 13.1466 2.40037 13.1097 2.37388 13.0648C2.34738 13.02 2.33338 12.9688 2.33334 12.9167V1.74996C2.33334 1.59525 2.3948 1.44688 2.5042 1.33748C2.61359 1.22808 2.76197 1.16663 2.91668 1.16663ZM10.5 2.33329H3.50001V11.3353L7.00001 9.14138L10.5 11.3353V2.33329ZM4.66668 5.24996H9.33334V6.41663H4.66668V5.24996Z"
    fill="#292C33"
  />
</svg>