<!-- 所属路径: /Users/liyu/work/actionsky/dms-ui/dms-ui/packages/shared/lib/icon/common.tsx -->
<svg viewBox="0 0 1365 1024" xmlns="http://www.w3.org/2000/svg">
  <path
    d="M1173.504 192.170667l-10.410667-11.093334a123.562667 123.562667 0 0 0-40.277333-28.842666 117.248 117.248 0 0 0-135.338667 28.842666L576 619.008 377.685333 407.722667a123.562667 123.562667 0 0 0-40.277333-28.842667 117.248 117.248 0 0 0-135.168 28.842667l-11.093333 11.264a137.386667 137.386667 0 0 0-36.010667 93.354666c0 35.157333 12.970667 68.608 36.010667 93.525334L477.866667 912.042667l10.24 11.264a120.832 120.832 0 0 0 87.893333 38.4 120.832 120.832 0 0 0 87.722667-38.4l9.728-11.264 500.053333-532.821334a139.264 139.264 0 0 0 0-187.050666z" fill="#0e932e" />
</svg>