<svg t="1728464225714" class="icon" viewBox="0 0 1024 1024" version="1.1" xmlns="http://www.w3.org/2000/svg" p-id="2666" width="200" height="200"><path d="M429.6 880c-3.2 0-7.2-0.8-10.4-2.4-8.8-4-13.6-12.8-13.6-21.6V184c0-9.6 5.6-17.6 13.6-21.6 8.8-4 18.4-2.4 25.6 3.2l403.2 336c5.6 4.8 8.8 11.2 8.8 18.4 0 7.2-3.2 13.6-8.8 18.4l-403.2 336c-4 4-9.6 5.6-15.2 5.6z m24-644.8v569.6L795.2 520 453.6 235.2z" fill="#C3C6CD" p-id="2667"></path><path d="M192 880c-3.2 0-6.4-0.8-9.6-2.4-8.8-4-14.4-12.8-14.4-21.6V184c0-9.6 5.6-18.4 14.4-21.6s18.4-2.4 25.6 4L432 368c9.6 8.8 10.4 24 1.6 33.6-8.8 9.6-24 10.4-33.6 1.6L216 237.6v564l184-165.6c9.6-8.8 24.8-8 33.6 1.6s8 24.8-1.6 33.6l-224 201.6c-4.8 4.8-10.4 7.2-16 7.2z" fill="#C3C6CD" p-id="2668"></path></svg>