<svg t="1747288712773" class="icon" viewBox="0 0 1024 1024" version="1.1" xmlns="http://www.w3.org/2000/svg" p-id="3477"
  width="50" height="50">
  <path
    d="M896 981.333333a42.666667 42.666667 0 0 1-42.666667 42.666667H170.666667a42.666667 42.666667 0 1 1 0-85.333333h682.666666a42.666667 42.666667 0 0 1 42.666667 42.666666z m-25.813333-252.544l-622.08-267.178666c-25.642667-11.008-34.730667-36.309333-34.730667-56.277334s9.130667-45.312 34.730667-56.277333l622.08-267.178667a42.666667 42.666667 0 0 0-33.664-78.378666L214.357333 270.634667C161.066667 293.546667 128 345.173333 128 405.333333s33.109333 111.786667 86.4 134.698667l622.122667 267.178667a42.666667 42.666667 0 0 0 33.664-78.378667z"
    p-id="3478"></path>
</svg>