<!-- 所属路径: /Users/liyu/work/actionsky/dms-ui/dms-ui/packages/base/src/icon/dataExport.tsx -->
<svg viewBox="0 0 14 14" xmlns="http://www.w3.org/2000/svg">
  <path
    d="M7.00002 12.8333C3.77827 12.8333 1.16669 10.2217 1.16669 6.99996C1.16669 3.77821 3.77827 1.16663 7.00002 1.16663C10.2218 1.16663 12.8334 3.77821 12.8334 6.99996C12.8334 10.2217 10.2218 12.8333 7.00002 12.8333ZM7.00002 11.6666C8.2377 11.6666 9.42468 11.175 10.2999 10.2998C11.175 9.42462 11.6667 8.23764 11.6667 6.99996C11.6667 5.76228 11.175 4.5753 10.2999 3.70013C9.42468 2.82496 8.2377 2.33329 7.00002 2.33329C5.76234 2.33329 4.57536 2.82496 3.70019 3.70013C2.82502 4.5753 2.33335 5.76228 2.33335 6.99996C2.33335 8.23764 2.82502 9.42462 3.70019 10.2998C4.57536 11.175 5.76234 11.6666 7.00002 11.6666ZM4.08335 6.41663H9.91669V7.58329H4.08335V6.41663Z" />
</svg>