<!-- 所属路径: /Users/liyu/work/actionsky/dms-ui/dms-ui/packages/base/src/icon/sideMenu.tsx -->
<svg viewBox="0 0 14 14" xmlns="http://www.w3.org/2000/svg">
  <path
    d="M5.83366 4.08341C5.83354 4.89462 6.07505 5.68748 6.52737 6.36087C6.9797 7.03426 7.62235 7.55767 8.37336 7.86433C9.12437 8.17099 9.9497 8.24701 10.7441 8.0827C11.5385 7.91838 12.2659 7.52118 12.8337 6.94175V7.00008C12.8337 10.2218 10.2221 12.8334 7.00033 12.8334C3.77858 12.8334 1.16699 10.2218 1.16699 7.00008C1.16699 3.77833 3.77858 1.16675 7.00033 1.16675H7.05866C6.67018 1.54657 6.36166 2.00031 6.15127 2.50123C5.94089 3.00215 5.83289 3.54011 5.83366 4.08341ZM2.33366 7.00008C2.33323 8.04132 2.68105 9.05279 3.32176 9.87356C3.96248 10.6943 4.85928 11.2772 5.86948 11.5296C6.87969 11.7819 7.94526 11.6891 8.89665 11.266C9.84804 10.8429 10.6306 10.1137 11.1198 9.19458C10.2492 9.3997 9.34053 9.37896 8.48014 9.13433C7.61974 8.8897 6.83612 8.4293 6.20361 7.79679C5.57111 7.16429 5.1107 6.38066 4.86607 5.52027C4.62144 4.65987 4.6007 3.75124 4.80583 2.88058C4.05891 3.27849 3.43428 3.87205 2.99881 4.59771C2.56333 5.32336 2.33341 6.15379 2.33366 7.00008Z" />
</svg>