<!-- 所属路径: /Users/liyu/work/actionsky/dms-ui/dms-ui/packages/shared/lib/icon/common.tsx -->
<svg viewBox="0 0 14 14" xmlns="http://www.w3.org/2000/svg">
  <path
    d="M3.18677 2.58588C4.24526 1.66868 5.59943 1.16468 7.00002 1.16663C10.2218 1.16663 12.8334 3.77821 12.8334 6.99996C12.8334 8.24596 12.4425 9.40096 11.7775 10.3483L9.91669 6.99996H11.6667C11.6668 6.08508 11.3979 5.19035 10.8936 4.42703C10.3892 3.66371 9.67165 3.06547 8.83004 2.7067C7.98844 2.34793 7.05994 2.24446 6.15999 2.40914C5.26005 2.57383 4.42837 2.99941 3.76835 3.63296L3.18677 2.58588ZM10.8133 11.414C9.75478 12.3312 8.40061 12.8353 7.00002 12.8333C3.77827 12.8333 1.16669 10.2217 1.16669 6.99996C1.16669 5.75396 1.55752 4.59896 2.22252 3.65163L4.08335 6.99996H2.33335C2.33328 7.91485 2.60213 8.80958 3.10647 9.5729C3.61081 10.3362 4.32839 10.9345 5.17 11.2932C6.0116 11.652 6.9401 11.7555 7.84005 11.5908C8.73999 11.4261 9.57167 11.0005 10.2317 10.367L10.8133 11.414Z" />
</svg>