<!-- 所属路径: /Users/liyu/work/actionsky/dms-ui/dms-ui/packages/shared/lib/icon/common.tsx -->
<svg viewBox="0 0 14 14" xmlns="http://www.w3.org/2000/svg">
  <path fill="currentColor"
    d="M10.5181 9.69321L13.0165 12.191L12.1911 13.0165L9.69325 10.518C8.76385 11.2631 7.60783 11.6683 6.41667 11.6666C3.51867 11.6666 1.16667 9.31463 1.16667 6.41663C1.16667 3.51863 3.51867 1.16663 6.41667 1.16663C9.31467 1.16663 11.6667 3.51863 11.6667 6.41663C11.6684 7.60779 11.2631 8.76381 10.5181 9.69321ZM9.34792 9.26038C10.0882 8.49906 10.5017 7.47854 10.5 6.41663C10.5 4.16029 8.67242 2.33329 6.41667 2.33329C4.16033 2.33329 2.33333 4.16029 2.33333 6.41663C2.33333 8.67238 4.16033 10.5 6.41667 10.5C7.47858 10.5016 8.4991 10.0882 9.26042 9.34788L9.34792 9.26038Z" />
</svg>