<!-- 所属路径: /Users/liyu/work/actionsky/dms-ui/dms-ui/packages/shared/lib/icon/common.tsx -->
<svg viewBox="0 0 13 11" xmlns="http://www.w3.org/2000/svg">
  <path fill="currentColor"
    d="M0.166687 8.50004H4.25002V9.66671H0.166687V8.50004ZM0.166687 4.41671H5.41669V5.58337H0.166687V4.41671ZM0.166687 0.333374H11.8334V1.50004H0.166687V0.333374ZM11.0599 5.59796L11.7342 5.36987L12.3175 6.38021L11.7832 6.84979C11.8504 7.16867 11.8504 7.49808 11.7832 7.81696L12.3175 8.28654L11.7342 9.29687L11.0599 9.06879C10.8207 9.28463 10.536 9.45088 10.2228 9.55296L10.0834 10.25H8.91669L8.77669 9.55237C8.46709 9.4512 8.18213 9.28627 7.94019 9.06821L7.26585 9.29687L6.68252 8.28654L7.21685 7.81696C7.1496 7.49808 7.1496 7.16867 7.21685 6.84979L6.68252 6.38021L7.26585 5.36987L7.94019 5.59796C8.17935 5.38212 8.46402 5.21587 8.77727 5.11379L8.91669 4.41671H10.0834L10.2234 5.11437C10.536 5.21587 10.8207 5.38271 11.0599 5.59854V5.59796ZM9.50002 8.50004C9.80944 8.50004 10.1062 8.37712 10.325 8.15833C10.5438 7.93954 10.6667 7.64279 10.6667 7.33337C10.6667 7.02396 10.5438 6.72721 10.325 6.50842C10.1062 6.28962 9.80944 6.16671 9.50002 6.16671C9.1906 6.16671 8.89386 6.28962 8.67506 6.50842C8.45627 6.72721 8.33335 7.02396 8.33335 7.33337C8.33335 7.64279 8.45627 7.93954 8.67506 8.15833C8.89386 8.37712 9.1906 8.50004 9.50002 8.50004Z" />
</svg>