<svg t="1766976914887" class="icon" viewBox="0 0 1024 1024" version="1.1" xmlns="http://www.w3.org/2000/svg" p-id="5604"
  width="50" height="50">
  <path fill="currentColor"
    d="M548.010667 818.005333v125.994667a16 16 0 0 1-16 16h-40.021334a16 16 0 0 1-16-16v-125.994667c15.872 1.621333 27.861333 2.474667 36.010667 2.474667 8.149333 0 20.138667-0.853333 36.010667-2.474667z m205.226666-115.626666l89.088 89.045333a16 16 0 0 1 0 22.613333l-28.245333 28.288a16 16 0 0 1-22.613333 0l-89.130667-89.088c12.373333-10.026667 21.418667-17.92 27.221333-23.68 5.76-5.802667 13.653333-14.848 23.68-27.221333m-482.474666 0c10.026667 12.373333 17.92 21.418667 23.68 27.221333a379.733333 379.733333 0 0 0 27.221333 23.68L232.533333 842.325333a16 16 0 0 1-22.613333 0l-28.330667-28.245333a16 16 0 0 1 0-22.613333l89.130667-89.130667zM512 278.016a233.984 233.984 0 1 1 0 467.968 233.984 233.984 0 0 1 0-467.968z m0 71.978667a162.005333 162.005333 0 1 0 0 324.010666 162.005333 162.005333 0 0 0 0-324.010666z m-306.005333 125.994666A379.818667 379.818667 0 0 0 203.52 512c0 8.149333 0.853333 20.138667 2.474667 36.010667H80a16 16 0 0 1-16-16v-40.021334c0-8.832 7.168-16 16-16h125.994667z m738.005333 0c8.832 0 16 7.168 16 16v40.021334a16 16 0 0 1-16 16h-125.994667c1.621333-15.872 2.474667-27.861333 2.474667-36.010667 0-8.149333-0.853333-20.138667-2.474667-36.010667h125.994667zM814.08 180.650667l28.288 28.288a16 16 0 0 1 0 22.613333l-89.130667 89.088a379.648 379.648 0 0 0-23.68-27.178667 379.477333 379.477333 0 0 0-27.221333-23.722666l89.088-89.088a16 16 0 0 1 22.613333 0m-581.461333 0l89.088 89.088a380.16 380.16 0 0 0-27.221333 23.722666c-5.76 5.76-13.653333 14.848-23.68 27.178667L181.632 231.552a16 16 0 0 1 0-22.613333l28.288-28.288a16 16 0 0 1 22.613333 0zM532.010667 64c8.832 0 16 7.168 16 16v125.994667A379.818667 379.818667 0 0 0 512 203.52c-8.149333 0-20.138667 0.853333-36.010667 2.474667V80c0-8.832 7.168-16 16-16h40.021334z"
    p-id="5605"></path>
</svg>