<!-- 所属路径: /Users/liyu/work/actionsky/dms-ui/dms-ui/packages/base/src/icon/home.tsx -->
<svg viewBox="0 0 24 24" xmlns="http://www.w3.org/2000/svg">
  <path id="1"
    d="M5.32992 3.271C5.95397 3.04837 6.62839 3.00745 7.27478 3.153C7.92116 3.29855 8.51296 3.62458 8.98136 4.09319C9.44977 4.5618 9.77553 5.15374 9.92079 5.8002C10.066 6.44665 10.0248 7.12105 9.80192 7.745L20.6469 18.59L18.5249 20.711L7.67992 9.867C7.05587 10.0896 6.38145 10.1305 5.73506 9.985C5.08868 9.83945 4.49688 9.51342 4.02848 9.04481C3.56008 8.5762 3.23431 7.98425 3.08905 7.3378C2.9438 6.69135 2.98502 6.01695 3.20792 5.393L5.44392 7.63C5.58229 7.77326 5.74781 7.88754 5.93081 7.96615C6.11382 8.04476 6.31065 8.08614 6.50982 8.08787C6.70899 8.08961 6.90651 8.05165 7.09085 7.97623C7.2752 7.90081 7.44268 7.78943 7.58351 7.64859C7.72435 7.50775 7.83573 7.34027 7.91115 7.15593C7.98658 6.97159 8.02453 6.77407 8.0228 6.5749C8.02107 6.37573 7.97969 6.1789 7.90107 5.99589C7.82246 5.81289 7.70819 5.64737 7.56492 5.509L5.32892 3.27L5.32992 3.271ZM15.6969 5.155L18.8789 3.387L20.2929 4.801L18.5249 7.983L16.7569 8.337L14.6369 10.458L13.2219 9.044L15.3429 6.923L15.6969 5.155ZM8.62592 12.933L10.7469 15.055L5.79692 20.005C5.52396 20.2754 5.15764 20.4308 4.7735 20.439C4.38937 20.4473 4.01671 20.3078 3.73237 20.0494C3.44804 19.791 3.27372 19.4333 3.24535 19.0501C3.21699 18.6669 3.33674 18.2875 3.57992 17.99L3.67692 17.883L8.62692 12.933H8.62592Z"
    fillOpacity="0.6" />
  <path id="2"
    d="M15.6969 5.15499L18.8789 3.38699L20.2929 4.80099L18.5249 7.98299L16.7569 8.33699L14.6369 10.458L13.2219 9.04399L15.3429 6.92299L15.6969 5.15499ZM8.62588 12.933L10.7469 15.055L5.79688 20.005C5.52391 20.2754 5.15759 20.4308 4.77346 20.439C4.38932 20.4473 4.01666 20.3078 3.73233 20.0494C3.448 19.791 3.27367 19.4333 3.24531 19.0501C3.21694 18.6669 3.3367 18.2875 3.57988 17.99L3.67688 17.883L8.62588 12.933Z" />
</svg>