<!-- 所属路径: /Users/liyu/work/actionsky/dms-ui/dms-ui/packages/base/src/icon/common.tsx -->
<svg viewBox="0 0 18 19" xmlns="http://www.w3.org/2000/svg">
  <path
    d="M6.47462 7.34681C5.80485 6.67704 5.42857 5.76863 5.42857 4.82143C5.42857 3.87423 5.80485 2.96582 6.47462 2.29605C7.14439 1.62627 8.0528 1.25 9 1.25C9.9472 1.25 10.8556 1.62627 11.5254 2.29605C12.1952 2.96582 12.5714 3.87423 12.5714 4.82143C12.5714 5.76863 12.1952 6.67704 11.5254 7.34681C10.8556 8.01658 9.9472 8.39286 9 8.39286C8.0528 8.39286 7.14439 8.01658 6.47462 7.34681Z" />
  <path
    d="M16.5 15.1785C16.5 12.0225 13.9418 9.46426 10.7857 9.46426H7.21429C4.05821 9.46426 1.5 12.0225 1.5 15.1785V15.5357C1.5 15.9146 1.65051 16.2779 1.91842 16.5458C2.18633 16.8137 2.54969 16.9643 2.92857 16.9643H15.0714C15.4503 16.9643 15.8137 16.8137 16.0816 16.5458C16.3495 16.2779 16.5 15.9146 16.5 15.5357V15.1785Z" />
</svg>