<!-- 所属路径: /Users/liyu/work/actionsky/dms-ui/dms-ui/packages/shared/lib/icon/common.tsx -->
<svg viewBox="0 0 12 12" xmlns="http://www.w3.org/2000/svg">
  <g clipPath="url(#clip0_1166_8039)">
    <path
      d="M4.45704 4.68416C4.04773 4.27486 3.81779 3.71972 3.81779 3.14088C3.81779 2.56203 4.04773 2.00689 4.45704 1.59759C4.86634 1.18828 5.42148 0.958336 6.00033 0.958336C6.57917 0.958336 7.13431 1.18828 7.54361 1.59759C7.95292 2.00689 8.18286 2.56203 8.18286 3.14088C8.18286 3.71972 7.95292 4.27486 7.54361 4.68416C7.13431 5.09347 6.57917 5.32341 6.00033 5.32341C5.42148 5.32341 4.86634 5.09347 4.45704 4.68416Z" />
    <path
      d="M10.5837 9.47022C10.5837 7.54151 9.02031 5.97816 7.0916 5.97816H4.90906C2.98035 5.97816 1.41699 7.54151 1.41699 9.47022V9.68848C1.41699 9.92002 1.50897 10.1421 1.67269 10.3058C1.83641 10.4695 2.05847 10.5615 2.29001 10.5615H9.71064C9.94218 10.5615 10.1642 10.4695 10.328 10.3058C10.4917 10.1421 10.5837 9.92002 10.5837 9.68848V9.47022Z" />
  </g>
  <defs>
    <clipPath id="clip0_1166_8039">
      <rect width="11" height="11" fill="white" transform="translate(0.5 0.5)" />
    </clipPath>
  </defs>
</svg>