<!-- 所属路径: /Users/liyu/work/actionsky/dms-ui/dms-ui/packages/base/src/icon/sideMenu.tsx -->
<svg viewBox="0 0 16 16" xmlns="http://www.w3.org/2000/svg">
  <path
    d="M6.63571 1.47331C7.53499 1.28474 8.46357 1.28428 9.36304 1.47198C9.42296 1.86751 9.57125 2.24444 9.79689 2.57477C10.0225 2.90509 10.3197 3.18032 10.6664 3.37998C11.0127 3.58033 11.3998 3.70002 11.7988 3.73015C12.1978 3.76027 12.5985 3.70006 12.971 3.55398C13.5832 4.23935 14.047 5.04401 14.333 5.91731C14.0206 6.16703 13.7685 6.48395 13.5953 6.84451C13.4222 7.20507 13.3326 7.60001 13.333 7.99998C13.333 8.84265 13.7237 9.59398 14.3344 10.0826C14.0466 10.9552 13.5823 11.7592 12.9704 12.4446C12.5979 12.2987 12.1974 12.2385 11.7985 12.2686C11.3996 12.2988 11.0127 12.4184 10.6664 12.6186C10.32 12.8182 10.023 13.0933 9.79753 13.4234C9.57202 13.7535 9.42374 14.1301 9.36371 14.5253C8.46451 14.7143 7.53593 14.7152 6.63637 14.528C6.57674 14.1321 6.42858 13.7548 6.20292 13.4241C5.97726 13.0934 5.67993 12.8178 5.33304 12.618C4.98662 12.4177 4.59951 12.2982 4.2005 12.2682C3.80149 12.2381 3.40085 12.2985 3.02837 12.4446C2.4161 11.7591 1.95238 10.9542 1.66637 10.0806C1.97863 9.83107 2.23068 9.51437 2.4038 9.15405C2.57691 8.79374 2.66666 8.39906 2.66637 7.99931C2.6667 7.59923 2.57684 7.20423 2.40348 6.84366C2.23012 6.48309 1.97772 6.16623 1.66504 5.91665C1.95282 5.04406 2.41712 4.24005 3.02904 3.55465C3.40147 3.70062 3.80202 3.76078 4.2009 3.73065C4.59979 3.70053 4.98675 3.5809 5.33304 3.38065C5.6794 3.18105 5.97636 2.906 6.20188 2.57592C6.42739 2.24584 6.57567 1.86921 6.63571 1.47398V1.47331ZM7.99971 9.99998C8.53014 9.99998 9.03885 9.78927 9.41392 9.41419C9.78899 9.03912 9.99971 8.53041 9.99971 7.99998C9.99971 7.46955 9.78899 6.96084 9.41392 6.58577C9.03885 6.21069 8.53014 5.99998 7.99971 5.99998C7.46927 5.99998 6.96056 6.21069 6.58549 6.58577C6.21042 6.96084 5.99971 7.46955 5.99971 7.99998C5.99971 8.53041 6.21042 9.03912 6.58549 9.41419C6.96056 9.78927 7.46927 9.99998 7.99971 9.99998Z" fill="#C3C6CD" />
</svg>