<!-- 所属路径: /Users/liyu/work/actionsky/dms-ui/dms-ui/packages/shared/lib/icon/common.tsx -->
<svg viewBox="0 0 40 40" xmlns="http://www.w3.org/2000/svg"><path d="M20 20.9767L27.0717 28.0467L24.7133 30.405L21.6667 27.3584V36.6667H18.3333V27.355L15.2867 30.405L12.9283 28.0467L20 20.9767ZM20 3.33337C22.8616 3.33351 25.6234 4.38523 27.7603 6.28857C29.8972 8.19191 31.2601 10.8141 31.59 13.6567C33.6638 14.2222 35.4729 15.4985 36.7011 17.2626C37.9293 19.0266 38.4986 21.1662 38.3094 23.3074C38.1201 25.4485 37.1845 27.4551 35.6659 28.9764C34.1474 30.4977 32.1425 31.437 30.0017 31.63V28.2734C30.7686 28.1638 31.5061 27.9026 32.171 27.505C32.8359 27.1074 33.4149 26.5812 33.8743 25.9574C34.3336 25.3335 34.6641 24.6244 34.8465 23.8714C35.0288 23.1185 35.0593 22.3367 34.9362 21.5718C34.8131 20.8069 34.5389 20.0742 34.1295 19.4165C33.7202 18.7587 33.1839 18.1891 32.552 17.7408C31.9201 17.2926 31.2053 16.9747 30.4492 16.8057C29.6931 16.6368 28.9109 16.6201 28.1483 16.7567C28.4094 15.5415 28.3952 14.2833 28.107 13.0743C27.8188 11.8653 27.2638 10.736 26.4827 9.76926C25.7015 8.8025 24.714 8.02272 23.5925 7.48703C22.4709 6.95135 21.2437 6.67332 20.0008 6.67332C18.7579 6.67332 17.5308 6.95135 16.4092 7.48703C15.2877 8.02272 14.3002 8.8025 13.519 9.76926C12.7379 10.736 12.1828 11.8653 11.8946 13.0743C11.6064 14.2833 11.5923 15.5415 11.8533 16.7567C10.3328 16.4712 8.76103 16.8014 7.48391 17.6746C6.20678 18.5479 5.32888 19.8928 5.04333 21.4134C4.75778 22.9339 5.08797 24.5057 5.96127 25.7828C6.83456 27.0599 8.17943 27.9378 9.7 28.2234L10 28.2734V31.63C7.85908 31.4373 5.85401 30.4982 4.33522 28.977C2.81644 27.4559 1.88054 25.4493 1.69112 23.3081C1.5017 21.1669 2.0708 19.0272 3.29895 17.263C4.5271 15.4988 6.33618 14.2224 8.41 13.6567C8.73951 10.814 10.1023 8.19156 12.2393 6.28815C14.3763 4.38474 17.1383 3.33315 20 3.33337Z" fill="currentColor" /></svg>