<!-- 所属路径: /Users/liyu/work/actionsky/dms-ui/dms-ui/packages/base/src/icon/home.tsx -->
<svg viewBox="0 0 24 24" xmlns="http://www.w3.org/2000/svg">
  <g id="icons/lock">
    <path id="1"
      d="M18 8H20C20.2652 8 20.5196 8.10536 20.7071 8.29289C20.8946 8.48043 21 8.73478 21 9V21C21 21.2652 20.8946 21.5196 20.7071 21.7071C20.5196 21.8946 20.2652 22 20 22H4C3.73478 22 3.48043 21.8946 3.29289 21.7071C3.10536 21.5196 3 21.2652 3 21V9C3 8.73478 3.10536 8.48043 3.29289 8.29289C3.48043 8.10536 3.73478 8 4 8H6V7C6 5.4087 6.63214 3.88258 7.75736 2.75736C8.88258 1.63214 10.4087 1 12 1C13.5913 1 15.1174 1.63214 16.2426 2.75736C17.3679 3.88258 18 5.4087 18 7V8ZM16 8V7C16 5.93913 15.5786 4.92172 14.8284 4.17157C14.0783 3.42143 13.0609 3 12 3C10.9391 3 9.92172 3.42143 9.17157 4.17157C8.42143 4.92172 8 5.93913 8 7V8H16ZM11 14V16H13V14H11ZM7 14V16H9V14H7ZM15 14V16H17V14H15Z"
      fillOpacity="0.6" />
    <path id="2"
      d="M16 8V7C16 4.79086 14.2091 3 12 3C9.79086 3 8 4.79086 8 7V8H6V7C6 3.68629 8.68629 1 12 1C15.3137 1 18 3.68629 18 7V8H16Z" />
  </g>
</svg>