<!-- 所属路径: /Users/liyu/work/actionsky/dms-ui/dms-ui/packages/sqle/src/icon/Rule.tsx -->
<svg viewBox="0 0 16 16" xmlns="http://www.w3.org/2000/svg"><path d="M2.25 2.25H9.2865C9.42575 2.25007 9.56222 2.28891 9.68064 2.36216C9.79907 2.43542 9.89476 2.54019 9.957 2.66475L10.5 3.75H15C15.1989 3.75 15.3897 3.82902 15.5303 3.96967C15.671 4.11032 15.75 4.30109 15.75 4.5V12.75C15.75 12.9489 15.671 13.1397 15.5303 13.2803C15.3897 13.421 15.1989 13.5 15 13.5H10.2135C10.0743 13.4999 9.93778 13.4611 9.81936 13.3878C9.70093 13.3146 9.60524 13.2098 9.543 13.0853L9 12H3.75V16.5H2.25V2.25Z"  /></svg>