<!-- 所属路径: /Users/liyu/work/actionsky/dms-ui/dms-ui/packages/sqle/src/icon/sqlOptimization.tsx -->
<svg viewBox="0 0 1024 1024" xmlns="http://www.w3.org/2000/svg">
  <path
    d="M398.494886 365.118251C537.464307 288.294974 427.87184 92.24251 555.08141 84.194704 742.605244 92.841234 655.197922 384 655.197922 384L772.65207 384C855.435454 384 905.576924 448.722763 885.198573 528.562338L817.961841 791.986598C806.271712 837.786918 758.737126 874.666667 711.712053 874.666667L448.133741 874.666667C433.864986 874.666667 420.242927 871.867204 407.791343 866.787953 384.000002 853.81293 384 830.740885 384 830.740885L384 401.323665C384 401.323665 384.758274 376.156277 398.494886 365.118251ZM304.189762 874.666667 227.009286 874.666667C191.72855 874.666667 160.809916 846.165515 157.951887 811.023593L128.398809 447.643074C125.540197 412.493975 151.875017 384 187.012764 384L304.829301 384C343.692282 387.294701 341.333333 421.731772 341.333333 421.731772L341.333333 842.852864C341.333333 842.852864 343.401099 870.898027 304.189762 874.666667Z" />
</svg>