<!-- 所属路径: /Users/liyu/work/actionsky/dms-ui/dms-ui/packages/base/src/icon/sideMenu.tsx -->
<svg viewBox="0 0 16 16" xmlns="http://www.w3.org/2000/svg">
  <path
    d="M7.99967 1.33325C11.6797 1.33325 14.6663 4.31992 14.6663 7.99992C14.6663 11.6799 11.6797 14.6666 7.99967 14.6666C4.31967 14.6666 1.33301 11.6799 1.33301 7.99992C1.33301 4.31992 4.31967 1.33325 7.99967 1.33325ZM4.01501 10.2773C4.99367 11.7373 6.46301 12.6666 8.10634 12.6666C9.74901 12.6666 11.219 11.7379 12.197 10.2773C11.0875 9.24032 9.62497 8.66446 8.10634 8.66659C6.58748 8.66429 5.12468 9.24016 4.01501 10.2773ZM7.99967 7.33325C8.53011 7.33325 9.03882 7.12254 9.41389 6.74747C9.78896 6.37239 9.99967 5.86369 9.99967 5.33325C9.99967 4.80282 9.78896 4.29411 9.41389 3.91904C9.03882 3.54397 8.53011 3.33325 7.99967 3.33325C7.46924 3.33325 6.96053 3.54397 6.58546 3.91904C6.21039 4.29411 5.99967 4.80282 5.99967 5.33325C5.99967 5.86369 6.21039 6.37239 6.58546 6.74747C6.96053 7.12254 7.46924 7.33325 7.99967 7.33325Z" />
</svg>