<!-- 所属路径: /Users/liyu/work/actionsky/dms-ui/dms-ui/packages/base/src/icon/sideMenu.tsx -->
<svg viewBox="0 0 18 18" xmlns="http://www.w3.org/2000/svg"><path d="M9.38515 0.981863L15.9634 4.92836C16.019 4.96166 16.065 5.0088 16.097 5.06519C16.129 5.12158 16.1458 5.18529 16.1458 5.25011C16.1458 5.31493 16.129 5.37865 16.097 5.43504C16.065 5.49143 16.019 5.53857 15.9634 5.57186L8.99965 9.75011L2.0359 5.57186C1.98028 5.53857 1.93425 5.49143 1.90228 5.43504C1.87032 5.37865 1.85352 5.31493 1.85352 5.25011C1.85352 5.18529 1.87032 5.12158 1.90228 5.06519C1.93425 5.0088 1.98028 4.96166 2.0359 4.92836L8.6134 0.981863C8.73004 0.911781 8.86356 0.874756 8.99965 0.874756C9.13573 0.874756 9.2685 0.911781 9.38515 0.981863Z" fill="#C3C6CD" />
<path d="M15.0619 7.875L15.9634 8.41575C16.019 8.44904 16.065 8.49619 16.097 8.55258C16.129 8.60897 16.1458 8.67268 16.1458 8.7375C16.1458 8.80232 16.129 8.86603 16.097 8.92242C16.065 8.97881 16.019 9.02596 15.9634 9.05925L8.99965 13.2375L2.0359 9.05925C1.98028 9.02596 1.93425 8.97881 1.90228 8.92242C1.87032 8.86603 1.85352 8.80232 1.85352 8.7375C1.85352 8.67268 1.87032 8.60897 1.90228 8.55258C1.93425 8.49619 1.98028 8.44904 2.0359 8.41575L2.9374 7.875L8.99965 11.5125L15.0619 7.875ZM15.0619 11.4L15.9634 11.9407C16.019 11.974 16.065 12.0212 16.097 12.0776C16.129 12.134 16.1458 12.1977 16.1458 12.2625C16.1458 12.3273 16.129 12.391 16.097 12.4474C16.065 12.5038 16.019 12.551 15.9634 12.5842L9.3859 16.5307C9.26925 16.6008 9.13573 16.6379 8.99965 16.6379C8.86356 16.6379 8.73005 16.6008 8.6134 16.5307L2.0359 12.5842C1.98028 12.551 1.93425 12.5038 1.90228 12.4474C1.87032 12.391 1.85352 12.3273 1.85352 12.2625C1.85352 12.1977 1.87032 12.134 1.90228 12.0776C1.93425 12.0212 1.98028 11.974 2.0359 11.9407L2.9374 11.4L8.99965 15.0375L15.0619 11.4Z" fill="#8A8F99" /></svg>