<!-- 所属路径: /Users/liyu/work/actionsky/dms-ui/dms-ui/packages/shared/lib/icon/common.tsx -->
<svg viewBox="0 0 14 14" xmlns="http://www.w3.org/2000/svg">
  <path
    d="M6.99999 12.8333C3.77824 12.8333 1.16666 10.2217 1.16666 6.99996C1.16666 3.77821 3.77824 1.16663 6.99999 1.16663C10.2217 1.16663 12.8333 3.77821 12.8333 6.99996C12.8333 10.2217 10.2217 12.8333 6.99999 12.8333ZM6.99999 11.6666C8.23767 11.6666 9.42465 11.175 10.2998 10.2998C11.175 9.42462 11.6667 8.23764 11.6667 6.99996C11.6667 5.76228 11.175 4.5753 10.2998 3.70013C9.42465 2.82496 8.23767 2.33329 6.99999 2.33329C5.76231 2.33329 4.57533 2.82496 3.70016 3.70013C2.82499 4.5753 2.33332 5.76228 2.33332 6.99996C2.33332 8.23764 2.82499 9.42462 3.70016 10.2998C4.57533 11.175 5.76231 11.6666 6.99999 11.6666ZM6.41666 4.08329H7.58332V5.24996H6.41666V4.08329ZM6.41666 6.41663H7.58332V9.91663H6.41666V6.41663Z" />
</svg>