<!-- 所属路径: /Users/liyu/work/actionsky/dms-ui/dms-ui/packages/shared/lib/icon/common.tsx -->
<svg viewBox="0 0 80 80" xmlns="http://www.w3.org/2000/svg">
  <g clipPath="url(#clip0_1412_15009)">
    <path
      d="M0 56.5643C0 61.4398 17.8769 65.3152 40.0043 65.3152C62.1316 65.3152 80.0086 61.4398 80.0086 56.5643C80.0086 51.6887 62.1317 47.8134 40.0043 47.8134C17.8768 47.8134 0 51.6888 0 56.5643Z"
      fill="#EBEAE7" />
    <path
      d="M52.0055 35.1869C52.0055 33.1867 53.2557 31.5615 54.7558 31.5615H68.7573V54.189C68.7573 56.8142 67.1322 59.0645 65.132 59.0645H15.0016C13.0014 59.0645 11.2512 56.9393 11.2512 54.189V31.5615H25.2527C26.7528 31.5615 28.003 33.1867 28.003 35.1869C28.003 37.1871 29.2531 38.8123 30.7533 38.8123H49.2553C50.7554 38.8123 52.0055 37.1871 52.0055 35.1869Z"
      fill="#F2F1EF" />
    <path
      d="M56.6311 16.56C56.0061 15.4349 55.0059 14.8098 53.6308 14.6848H26.3779C25.1277 14.8098 24.0026 15.4349 23.5026 16.56L10.6262 30.9365V54.189C10.6262 57.1893 12.5014 59.6896 15.0016 59.6896H65.007C67.3823 59.6896 69.2575 57.1893 69.2575 54.189V30.9365L56.6311 16.56ZM24.3777 17.3101C24.8777 16.435 25.5028 16.0599 26.3779 15.935H53.6308C54.5059 15.935 55.131 16.435 55.506 17.1851L67.6323 30.9365H54.7559C52.8807 30.9365 51.3805 32.8117 51.3805 35.187C51.3805 36.8122 50.3804 38.1873 49.2553 38.1873H30.7533C29.5032 38.1873 28.6281 36.8122 28.6281 35.187C28.6281 32.8117 27.128 30.9365 25.2528 30.9365H12.3763L24.3777 17.3101ZM68.1323 54.189C68.1323 56.4393 66.7572 58.4395 65.132 58.4395H15.0016C13.2515 58.4395 11.8763 56.5643 11.8763 54.189V32.1867H25.2528C26.3779 32.1867 27.378 33.5618 27.378 35.312C27.378 37.6873 28.8781 39.5625 30.7533 39.5625H49.2553C51.1306 39.5625 52.6307 37.6873 52.6307 35.312C52.6307 33.6868 53.6308 32.3117 54.7559 32.3117H68.0073V54.189H68.1323Z"
      fill="#E6E4E3" />
  </g>
  <defs>
    <clipPath id="clip0_1412_15009">
      <rect width="80" height="80" fill="white" />
    </clipPath>
  </defs>
</svg>