<!-- 所属路径: /Users/liyu/work/actionsky/dms-ui/dms-ui/packages/sqle/src/icon/Rule.tsx -->
<svg viewBox="0 0 16 16" xmlns="http://www.w3.org/2000/svg">
  <g>
    <path id="Vector"
      d="M4.66659 4.66683V2.00016C4.66659 1.82335 4.73682 1.65378 4.86185 1.52876C4.98687 1.40373 5.15644 1.3335 5.33325 1.3335H13.9999C14.1767 1.3335 14.3463 1.40373 14.4713 1.52876C14.5963 1.65378 14.6666 1.82335 14.6666 2.00016V10.6668C14.6666 10.8436 14.5963 11.0132 14.4713 11.1382C14.3463 11.2633 14.1767 11.3335 13.9999 11.3335H11.3333V13.9955C11.3333 14.3662 11.0339 14.6668 10.6619 14.6668H2.00459C1.9164 14.6669 1.82906 14.6496 1.74757 14.6159C1.66608 14.5822 1.59204 14.5328 1.52969 14.4704C1.46733 14.408 1.41788 14.334 1.38418 14.2525C1.35047 14.171 1.33316 14.0837 1.33325 13.9955L1.33525 5.33816C1.33525 4.9675 1.63459 4.66683 2.00659 4.66683H4.66659ZM5.99992 4.66683H10.6619C11.0326 4.66683 11.3333 4.96616 11.3333 5.33816V10.0002H13.3333V2.66683H5.99992V4.66683Z" />
  </g>
</svg>