<!-- 所属路径: /Users/liyu/work/actionsky/dms-ui/dms-ui/packages/shared/lib/icon/common.tsx -->
<svg viewBox="0 0 18 18" xmlns="http://www.w3.org/2000/svg">
  <path
    d="M15.75 7.125V9.375C15.75 11.2387 12.7275 12.75 9 12.75C5.2725 12.75 2.25 11.2387 2.25 9.375V7.125C2.25 8.98875 5.2725 10.5 9 10.5C12.7275 10.5 15.75 8.98875 15.75 7.125ZM2.25 10.875C2.25 12.7387 5.2725 14.25 9 14.25C12.7275 14.25 15.75 12.7387 15.75 10.875V13.125C15.75 14.9887 12.7275 16.5 9 16.5C5.2725 16.5 2.25 14.9887 2.25 13.125V10.875ZM9 9C5.2725 9 2.25 7.48875 2.25 5.625C2.25 3.76125 5.2725 2.25 9 2.25C12.7275 2.25 15.75 3.76125 15.75 5.625C15.75 7.48875 12.7275 9 9 9Z" fill="#4583FF" />
</svg>