<!-- 所属路径: /Users/liyu/work/actionsky/dms-ui/dms-ui/packages/sqle/src/icon/Rule.tsx -->
<svg viewBox="0 0 32 32" xmlns="http://www.w3.org/2000/svg">
  <path id="Vector"
    d="M26.6667 29.3332H5.33333C4.97971 29.3332 4.64057 29.1927 4.39052 28.9426C4.14048 28.6926 4 28.3535 4 27.9998V3.99984C4 3.64622 4.14048 3.30708 4.39052 3.05703C4.64057 2.80698 4.97971 2.6665 5.33333 2.6665H26.6667C27.0203 2.6665 27.3594 2.80698 27.6095 3.05703C27.8595 3.30708 28 3.64622 28 3.99984V27.9998C28 28.3535 27.8595 28.6926 27.6095 28.9426C27.3594 29.1927 27.0203 29.3332 26.6667 29.3332ZM10.6667 9.33317V11.9998H21.3333V9.33317H10.6667ZM10.6667 14.6665V17.3332H21.3333V14.6665H10.6667ZM10.6667 19.9998V22.6665H17.3333V19.9998H10.6667Z" />
</svg>