<!-- 所属路径: /Users/liyu/work/actionsky/dms-ui/dms-ui/packages/base/src/icon/sideMenu.tsx -->
<svg viewBox="0 0 18 18" xmlns="http://www.w3.org/2000/svg">
  <path
    d="M10.75 15.75C10.1977 15.75 9.75 15.3023 9.75 14.75V9.25C9.75 8.69771 10.1977 8.25 10.75 8.25H14.75C15.3023 8.25 15.75 8.69771 15.75 9.25V14.75C15.75 15.3023 15.3023 15.75 14.75 15.75H10.75ZM3.25 9.75C2.69772 9.75 2.25 9.30228 2.25 8.75V3.25C2.25 2.69772 2.69772 2.25 3.25 2.25H7.25C7.80228 2.25 8.25 2.69772 8.25 3.25V8.75C8.25 9.30228 7.80228 9.75 7.25 9.75H3.25Z"
    fill="#C3C6CD" />
  <path
    d="M3.25 15.75C2.69772 15.75 2.25 15.3023 2.25 14.75V12.25C2.25 11.6977 2.69772 11.25 3.25 11.25H7.25C7.80228 11.25 8.25 11.6977 8.25 12.25V14.75C8.25 15.3023 7.80228 15.75 7.25 15.75H3.25ZM9.75 3.25C9.75 2.69772 10.1977 2.25 10.75 2.25H14.75C15.3023 2.25 15.75 2.69772 15.75 3.25V5.75C15.75 6.30228 15.3023 6.75 14.75 6.75H10.75C10.1977 6.75 9.75 6.30228 9.75 5.75V3.25Z"
    fill="#8A8F99" />
</svg>