<!-- 所属路径: /Users/liyu/work/actionsky/dms-ui/dms-ui/packages/sqle/src/icon/Rule.tsx -->
<svg viewBox="0 0 16 16" xmlns="http://www.w3.org/2000/svg">
  <g id="database-fill">
    <path id="Vector"
      d="M7.33331 4.66667V2.66667C7.33331 2.48986 7.40355 2.32029 7.52858 2.19526C7.6536 2.07024 7.82317 2 7.99998 2H14C14.1768 2 14.3464 2.07024 14.4714 2.19526C14.5964 2.32029 14.6666 2.48986 14.6666 2.66667V13.3333C14.6666 13.5101 14.5964 13.6797 14.4714 13.8047C14.3464 13.9298 14.1768 14 14 14H1.99998C1.82317 14 1.6536 13.9298 1.52858 13.8047C1.40355 13.6797 1.33331 13.5101 1.33331 13.3333V5.33333C1.33331 5.15652 1.40355 4.98695 1.52858 4.86193C1.6536 4.7369 1.82317 4.66667 1.99998 4.66667H7.33331ZM3.33331 10.6667V12H6.66665V10.6667H3.33331ZM9.33331 10.6667V12H12.6666V10.6667H9.33331ZM9.33331 8.66667V10H12.6666V8.66667H9.33331ZM9.33331 6.66667V8H12.6666V6.66667H9.33331ZM3.33331 8.66667V10H6.66665V8.66667H3.33331Z" />
  </g>
</svg>