<!-- 所属路径: /Users/liyu/work/actionsky/dms-ui/dms-ui/packages/sqle/src/icon/SqlExecWorkflow.tsx -->
<svg viewBox="0 0 16 16" xmlns="http://www.w3.org/2000/svg"><path d="M14 6V13.9953C14.0006 14.0829 13.984 14.1697 13.951 14.2508C13.9181 14.3319 13.8695 14.4058 13.808 14.4681C13.7466 14.5304 13.6734 14.5801 13.5928 14.6141C13.5121 14.6482 13.4255 14.6661 13.338 14.6667H2.662C2.48654 14.6667 2.31826 14.597 2.19413 14.473C2.07 14.349 2.00018 14.1808 2 14.0053V1.99466C2 1.63666 2.298 1.33333 2.66533 1.33333H9.33333V5.33333C9.33333 5.51014 9.40357 5.67971 9.52859 5.80473C9.65362 5.92976 9.82319 6 10 6H14ZM14 4.66666H10.6667V1.33533L14 4.66666ZM5.33333 4.66666V6H7.33333V4.66666H5.33333ZM5.33333 7.33333V8.66666H10.6667V7.33333H5.33333ZM5.33333 10V11.3333H10.6667V10H5.33333Z" fill="currentColor" /></svg>