<!-- 所属路径: /Users/liyu/work/actionsky/dms-ui/dms-ui/packages/shared/lib/icon/common.tsx -->
<svg viewBox="0 0 18 18" xmlns="http://www.w3.org/2000/svg">
  <path
    d="M15 16.5H3C2.80109 16.5 2.61032 16.421 2.46967 16.2803C2.32902 16.1397 2.25 15.9489 2.25 15.75V2.25C2.25 2.05109 2.32902 1.86032 2.46967 1.71967C2.61032 1.57902 2.80109 1.5 3 1.5H15C15.1989 1.5 15.3897 1.57902 15.5303 1.71967C15.671 1.86032 15.75 2.05109 15.75 2.25V15.75C15.75 15.9489 15.671 16.1397 15.5303 16.2803C15.3897 16.421 15.1989 16.5 15 16.5ZM6 5.25V6.75H12V5.25H6ZM6 8.25V9.75H12V8.25H6ZM6 11.25V12.75H9.75V11.25H6Z" />
</svg>