<!-- 所属路径: /Users/liyu/work/actionsky/dms-ui/dms-ui/packages/shared/lib/icon/common.tsx -->
<svg viewBox="0 0 16 16" xmlns="http://www.w3.org/2000/svg">
  <path
    d="M8.00001 14.6666C4.31801 14.6666 1.33334 11.682 1.33334 7.99998C1.33334 4.31798 4.31801 1.33331 8.00001 1.33331C11.682 1.33331 14.6667 4.31798 14.6667 7.99998C14.6667 11.682 11.682 14.6666 8.00001 14.6666ZM8.00001 13.3333C9.4145 13.3333 10.7711 12.7714 11.7712 11.7712C12.7714 10.771 13.3333 9.41447 13.3333 7.99998C13.3333 6.58549 12.7714 5.22894 11.7712 4.22874C10.7711 3.22855 9.4145 2.66665 8.00001 2.66665C6.58552 2.66665 5.22897 3.22855 4.22877 4.22874C3.22858 5.22894 2.66668 6.58549 2.66668 7.99998C2.66668 9.41447 3.22858 10.771 4.22877 11.7712C5.22897 12.7714 6.58552 13.3333 8.00001 13.3333ZM8.00001 7.05731L9.88534 5.17131L10.8287 6.11465L8.94268 7.99998L10.8287 9.88531L9.88534 10.8286L8.00001 8.94265L6.11468 10.8286L5.17134 9.88531L7.05734 7.99998L5.17134 6.11465L6.11468 5.17131L8.00001 7.05731Z" />
</svg>