<!-- 所属路径: /Users/liyu/work/actionsky/dms-ui/dms-ui/packages/sqle/src/icon/Scan.tsx -->
<svg viewBox="0 0 16 16" xmlns="http://www.w3.org/2000/svg">
  <path
    d="M1.99984 10V2C1.99984 1.82319 2.07008 1.65362 2.1951 1.52859C2.32012 1.40357 2.48969 1.33333 2.6665 1.33333H13.3332C13.51 1.33333 13.6796 1.40357 13.8046 1.52859C13.9296 1.65362 13.9998 1.82319 13.9998 2V12.6667C13.9998 13.1971 13.7891 13.7058 13.4141 14.0809C13.039 14.456 12.5303 14.6667 11.9998 14.6667H2.6665C2.13607 14.6667 1.62736 14.456 1.25229 14.0809C0.877218 13.7058 0.666504 13.1971 0.666504 12.6667V11.3333H11.3332V12.6667C11.3332 12.8435 11.4034 13.013 11.5284 13.1381C11.6535 13.2631 11.823 13.3333 11.9998 13.3333C12.1766 13.3333 12.3462 13.2631 12.4712 13.1381C12.5963 13.013 12.6665 12.8435 12.6665 12.6667V10H1.99984Z" fill="#C3C6CD" />
</svg>