<svg t="1755051515237" class="icon" viewBox="0 0 1024 1024" version="1.1" xmlns="http://www.w3.org/2000/svg" p-id="6297" width="200" height="200"><path d="M673.450667 675.968s121.813333-121.813333 163.456-163.370667c130.688-130.688 65.322667-392.149333 65.322666-392.149333s-261.461333-65.365333-392.149333 65.365333c-97.706667 97.706667-162.816 164.992-162.816 164.992s-163.968-34.304-262.016 63.744l522.88 522.88c98.048-98.048 65.322667-261.461333 65.322667-261.461333z m-64.085334-383.36a85.248 85.248 0 0 1 120.661334 0 85.333333 85.333333 0 1 1-120.661334 0zM126.677333 894.677333s128 0 213.333334-85.333333l-128-128c-85.333333 42.666667-85.333333 213.333333-85.333334 213.333333z" p-id="6298" fill="#41BF9A"></path></svg>