<!-- 所属路径: /Users/liyu/work/actionsky/dms-ui/dms-ui/packages/base/src/icon/sideMenu.tsx -->
<svg viewBox="0 0 18 18" xmlns="http://www.w3.org/2000/svg">
  <path
    fill="#8A8F99"
    d="M7.5 12.2C7.5 12.0895 7.58954 12 7.7 12H10.3C10.4105 12 10.5 12.0895 10.5 12.2V14.382C10.5 14.7607 10.714 15.107 11.0528 15.2764L11.8894 15.6947C11.9572 15.7286 12 15.7979 12 15.8736V16.3C12 16.4105 11.9105 16.5 11.8 16.5H6.2C6.08954 16.5 6 16.4105 6 16.3V15.8736C6 15.7979 6.0428 15.7286 6.11056 15.6947L6.94721 15.2764C7.286 15.107 7.5 14.7607 7.5 14.382V12.2Z" />
  <path
    fill="#C3C6CD"
    fill-rule="evenodd"
    clip-rule="evenodd"
    d="M2.5 2.25C1.94772 2.25 1.5 2.69772 1.5 3.25V12.5C1.5 13.0523 1.94772 13.5 2.5 13.5H15.5C16.0523 13.5 16.5 13.0523 16.5 12.5V3.25C16.5 2.69772 16.0523 2.25 15.5 2.25H2.5ZM3.5 10.5C3.22386 10.5 3 10.7239 3 11V11.5C3 11.7761 3.22386 12 3.5 12H14.5C14.7761 12 15 11.7761 15 11.5V11C15 10.7239 14.7761 10.5 14.5 10.5H3.5Z" />
</svg>