<!-- 所属路径: /Users/liyu/work/actionsky/dms-ui/dms-ui/packages/base/src/icon/sideMenu.tsx -->
<svg viewBox="0 0 18 18" xmlns="http://www.w3.org/2000/svg">
  <path d="M9.49414 10.5H12.7502V13.5H15.7502V10.5H17.2502V7.5H9.49414V10.5Z" fill="#8A8F99" />
  <path
    d="M5.25 13.5C7.73528 13.5 9.75 11.4853 9.75 9C9.75 6.51472 7.73528 4.5 5.25 4.5C2.76472 4.5 0.75 6.51472 0.75 9C0.75 11.4853 2.76472 13.5 5.25 13.5ZM5.25 10.5C6.07843 10.5 6.75 9.82843 6.75 9C6.75 8.17157 6.07843 7.5 5.25 7.5C4.42157 7.5 3.75 8.17157 3.75 9C3.75 9.82843 4.42157 10.5 5.25 10.5Z"
    fill="#C3C6CD" />
</svg>