<svg viewBox="0 0 1024 1024" xmlns="http://www.w3.org/2000/svg">
  <path
    d="M938.666667 153.6v599.466667c0 38.4-29.866667 68.266667-68.266667 68.266666h-14.933333V268.8c0-55.466667-44.8-100.266667-100.266667-100.266667H202.666667v-14.933333c0-38.4 29.866667-68.266667 68.266666-68.266667h599.466667C908.8 85.333333 938.666667 115.2 938.666667 153.6zM454.4 435.2zM454.4 435.2l55.466667 162.133333h-113.066667z"
    fill="#C3C6CD"></path>
  <path
    d="M755.2 202.666667H151.466667C115.2 202.666667 85.333333 232.533333 85.333333 268.8v601.6C85.333333 908.8 115.2 938.666667 151.466667 938.666667h601.6c36.266667 0 66.133333-29.866667 66.133333-66.133334V268.8c2.133333-36.266667-27.733333-66.133333-64-66.133333z m-192 541.866666L524.8 640h-145.066667L341.333333 744.533333h-51.2l136.533334-362.666666h55.466666l130.133334 362.666666h-49.066667z"
    fill="#C3C6CD"></path>
</svg>