<!-- 所属路径: /Users/liyu/work/actionsky/dms-ui/dms-ui/packages/base/src/icon/sideMenu.tsx -->
<svg viewBox="0 0 18 18" xmlns="http://www.w3.org/2000/svg">
  <path
    d="M9 7.5C10.6568 7.5 12 6.15686 12 4.5C12 2.84314 10.6568 1.5 9 1.5C7.34314 1.5 6 2.84314 6 4.5C6 6.15686 7.34314 7.5 9 7.5ZM4.125 9.75C5.16053 9.75 6 8.91052 6 7.875C6 6.83947 5.16053 6 4.125 6C3.08947 6 2.25 6.83947 2.25 7.875C2.25 8.91052 3.08947 9.75 4.125 9.75ZM15.75 7.875C15.75 8.91052 14.9105 9.75 13.875 9.75C12.8395 9.75 12 8.91052 12 7.875C12 6.83947 12.8395 6 13.875 6C14.9105 6 15.75 6.83947 15.75 7.875ZM9 8.25C11.071 8.25 12.75 9.92895 12.75 12V16.5H5.25V12C5.25 9.92895 6.92894 8.25 9 8.25ZM3.75 11.9999C3.75 11.4803 3.8255 10.9782 3.96614 10.5042L3.83898 10.5153C2.52377 10.6578 1.5 11.7719 1.5 13.1249V16.4999H3.75V11.9999ZM16.5 16.4999V13.1249C16.5 11.7284 15.4094 10.5865 14.0338 10.5042C14.1745 10.9782 14.25 11.4803 14.25 11.9999V16.4999H16.5Z"
    fill="#C3C6CD" />
  <path
    d="M4.125 9.75C5.16053 9.75 6 8.91052 6 7.875C6 6.83947 5.16053 6 4.125 6C3.08947 6 2.25 6.83947 2.25 7.875C2.25 8.91052 3.08947 9.75 4.125 9.75ZM15.75 7.875C15.75 8.91052 14.9105 9.75 13.875 9.75C12.8395 9.75 12 8.91052 12 7.875C12 6.83947 12.8395 6 13.875 6C14.9105 6 15.75 6.83947 15.75 7.875ZM3.75 11.9999C3.75 11.4802 3.8255 10.9782 3.96614 10.5042L3.83898 10.5153C2.52377 10.6578 1.5 11.7719 1.5 13.1249V16.4999H3.75V11.9999ZM16.5 16.4999V13.1249C16.5 11.7284 15.4094 10.5865 14.0338 10.5042C14.1745 10.9782 14.25 11.4802 14.25 11.9999V16.4999H16.5Z"
    fill="#8A8F99" />
</svg>