<svg t="1754985132843" class="icon" viewBox="0 0 1024 1024" version="1.1" xmlns="http://www.w3.org/2000/svg" p-id="4286" width="200" height="200"><path d="M789.333333 586.666667c1.557333 0 3.093333 0.106667 4.586667 0.32l2.389333 0.426666 2.517334 0.682667 3.541333 1.344 2.986667 1.493333 2.346666 1.493334 2.346667 1.856 1.92 1.749333c0.874667 0.896 1.706667 1.813333 2.453333 2.773333l1.877334 2.602667 1.514666 2.645333a31.893333 31.893333 0 0 1 0 29.226667l-1.536 2.645333-0.725333 1.088-1.834667 2.389334-1.749333 1.898666-170.666667 170.666667a32 32 0 0 1-47.466666-42.837333l2.197333-2.432 116.032-116.032H234.666667a32 32 0 0 1-3.072-63.850667L234.666667 586.666667h554.666666z m0-170.666667H234.666667l-2.133334-0.064-2.858666-0.32-2.197334-0.426667-2.474666-0.682666-1.557334-0.533334-2.986666-1.301333-1.066667-0.533333a31.765333 31.765333 0 0 1-7.466667-5.610667l-1.344-1.450667-1.386666-1.706666-1.621334-2.346667-1.514666-2.688-1.237334-2.773333-0.917333-2.773334-0.426667-1.621333-0.512-2.794667-0.277333-3.2v-2.133333l0.042667-1.194667 0.32-2.837333 0.426666-2.197333 0.32-1.28 0.789334-2.453334 1.408-3.306666 0.533333-1.024c1.28-2.346667 2.837333-4.544 4.693333-6.549334l1.856-1.813333 171.178667-149.802667a32 32 0 0 1 44.501333 45.888l-2.346666 2.282667-106.581334 93.226667L789.333333 352a32 32 0 0 1 3.072 63.850667L789.333333 416z" fill="#C3C6CD" p-id="4287"></path></svg>