<!-- 所属路径: /Users/liyu/work/actionsky/dms-ui/dms-ui/packages/base/src/icon/sideMenu.tsx -->
<svg viewBox="0 0 16 16" xmlns="http://www.w3.org/2000/svg">
  <path
    d="M2.522 1.88408L8 0.666748L13.478 1.88408C13.626 1.91699 13.7584 1.99939 13.8533 2.11768C13.9482 2.23598 14 2.38309 14 2.53475V9.19275C14 9.85124 13.8373 10.4995 13.5266 11.0801C13.2158 11.6606 12.7666 12.1555 12.2187 12.5207L8 15.3334L3.78133 12.5207C3.23352 12.1556 2.78431 11.6608 2.47357 11.0804C2.16282 10.5 2.00016 9.85179 2 9.19341V2.53475C2.00003 2.38309 2.05176 2.23598 2.14666 2.11768C2.24156 1.99939 2.37396 1.91699 2.522 1.88408ZM8 7.33341C8.44203 7.33341 8.86595 7.15782 9.17851 6.84526C9.49107 6.5327 9.66667 6.10878 9.66667 5.66675C9.66667 5.22472 9.49107 4.8008 9.17851 4.48824C8.86595 4.17568 8.44203 4.00008 8 4.00008C7.55797 4.00008 7.13405 4.17568 6.82149 4.48824C6.50893 4.8008 6.33333 5.22472 6.33333 5.66675C6.33333 6.10878 6.50893 6.5327 6.82149 6.84526C7.13405 7.15782 7.55797 7.33341 8 7.33341ZM5.018 10.6667H10.982C10.9012 9.93235 10.5522 9.2536 10.0019 8.76056C9.45168 8.26753 8.73883 7.99489 8 7.99489C7.26117 7.99489 6.54832 8.26753 5.99805 8.76056C5.44779 9.2536 5.09881 9.93235 5.018 10.6667Z" fill="#C3C6CD" />
</svg>