<!-- 所属路径: /Users/liyu/work/actionsky/dms-ui/dms-ui/packages/sqle/src/icon/WorkflowTemplate.tsx -->
<svg viewBox="0 0 14 14" xmlns="http://www.w3.org/2000/svg">
  <g id="audit-fill">
    <g id="Vector">
      <path
        d="M8.16667 5.83334C8.16667 5.27914 8.49673 4.7902 8.83836 4.35381C9.14847 3.95768 9.33333 3.45877 9.33333 2.91668C9.33333 1.62801 8.28866 0.583344 7 0.583344C5.71134 0.583344 4.66667 1.62801 4.66667 2.91668C4.66667 3.45877 4.85153 3.95768 5.16164 4.35381C5.50327 4.7902 5.83333 5.27914 5.83333 5.83334H2.91667C2.27233 5.83334 1.75 6.35568 1.75 7.00001V9.33334C1.75 9.65551 2.01117 9.91668 2.33333 9.91668H11.6667C11.9888 9.91668 12.25 9.65551 12.25 9.33334V7.00001C12.25 6.35568 11.7277 5.83334 11.0833 5.83334H8.16667Z" />
      <path d="M12.25 12.25V11.0833H1.75V12.25H12.25Z" />
    </g>
  </g>
</svg>