<!-- 所属路径: /Users/liyu/work/actionsky/dms-ui/dms-ui/packages/base/src/icon/sideMenu.tsx -->
<svg viewBox="0 0 18 18" fill="none" xmlns="http://www.w3.org/2000/svg">
  <g clipPath="url(#clip0_2902_2141)">
    <path
      d="M5.47677 5.22148C5.2306 4.76952 5.07453 4.27406 5.01722 3.7626C4.05635 4.38797 3.25645 5.23101 2.68233 6.22336C2.10822 7.21571 1.77603 8.3294 1.71283 9.47411C2.17409 9.27471 2.66936 9.16575 3.17171 9.15316C3.27251 8.37669 3.52857 7.62845 3.92457 6.95299C4.32057 6.27753 4.84844 5.68867 5.47677 5.22148ZM14.7917 9.15316C15.2941 9.16575 15.7894 9.27471 16.2506 9.47411C16.1874 8.3294 15.8553 7.21571 15.2812 6.22336C14.7071 5.23101 13.9071 4.38797 12.9462 3.7626C12.8889 4.27406 12.7329 4.76952 12.4867 5.22148C13.1134 5.68702 13.6403 6.27357 14.0362 6.9464C14.4321 7.61924 14.6891 8.36467 14.7917 9.13857V9.15316ZM11.2759 15.244C10.5559 15.5489 9.78185 15.7061 8.99994 15.7061C8.21802 15.7061 7.44409 15.5489 6.72409 15.244C6.46143 15.6824 6.11437 16.0642 5.70294 16.3673C6.71973 16.8849 7.84449 17.1547 8.98542 17.1547C10.1264 17.1547 11.2511 16.8849 12.2679 16.3673C11.867 16.0613 11.53 15.6797 11.2759 15.244ZM8.99994 5.85609C9.50488 5.85609 9.99855 5.70636 10.4184 5.42582C10.8382 5.14529 11.1655 4.74656 11.3587 4.28005C11.5519 3.81354 11.6025 3.30022 11.504 2.80497C11.4055 2.30973 11.1623 1.85483 10.8053 1.49778C10.4482 1.14073 9.99329 0.897566 9.49805 0.799057C9.0028 0.700547 8.48947 0.751108 8.02296 0.944342C7.55645 1.13758 7.15777 1.46481 6.87724 1.88466C6.59671 2.3045 6.4469 2.7981 6.4469 3.30305C6.4469 3.98016 6.71589 4.62953 7.19468 5.10832C7.67347 5.58711 8.32283 5.85609 8.99994 5.85609ZM3.30305 10.6048C2.79811 10.6048 2.30453 10.7545 1.88468 11.035C1.46484 11.3155 1.13753 11.7143 0.9443 12.1808C0.751066 12.6473 0.700561 13.1606 0.799071 13.6559C0.897581 14.1511 1.14074 14.606 1.49779 14.9631C1.85484 15.3201 2.3097 15.5633 2.80494 15.6618C3.30019 15.7603 3.81352 15.7097 4.28003 15.5165C4.74654 15.3233 5.14531 14.996 5.42584 14.5762C5.70637 14.1563 5.85609 13.6627 5.85609 13.1578C5.85705 12.8219 5.79172 12.4891 5.66385 12.1785C5.53598 11.868 5.34806 11.5856 5.11089 11.3478C4.87373 11.11 4.59195 10.9212 4.28172 10.7925C3.9715 10.6637 3.63894 10.5975 3.30305 10.5975V10.6048ZM14.6969 10.6048C14.192 10.6048 13.6984 10.7545 13.2785 11.035C12.8587 11.3155 12.5315 11.7143 12.3383 12.1808C12.145 12.6473 12.0944 13.1606 12.1929 13.6559C12.2914 14.1511 12.5346 14.606 12.8917 14.9631C13.2487 15.3201 13.7036 15.5633 14.1988 15.6618C14.694 15.7603 15.2074 15.7097 15.6739 15.5165C16.1404 15.3233 16.5392 14.996 16.8197 14.5762C17.1002 14.1563 17.25 13.6627 17.25 13.1578C17.2519 12.8216 17.1872 12.4884 17.0597 12.1774C16.9321 11.8664 16.7443 11.5837 16.5069 11.3456C16.2695 11.1076 15.9874 10.9189 15.6767 10.7905C15.3661 10.6621 15.0331 10.5965 14.6969 10.5975V10.6048Z"
      fill="#C3C6CD" />
    <path
      d="M5.47683 5.22158C5.23066 4.76961 5.07459 4.27415 5.01728 3.7627C4.05641 4.38806 3.25651 5.23111 2.68239 6.22346C2.10828 7.2158 1.77609 8.3295 1.71289 9.47421C2.17415 9.27481 2.66941 9.16585 3.17177 9.15325C3.27257 8.37678 3.52863 7.62855 3.92463 6.95309C4.32063 6.27763 4.8485 5.68877 5.47683 5.22158ZM14.7918 9.15325C15.2942 9.16585 15.7894 9.27481 16.2507 9.47421C16.1875 8.3295 15.8554 7.2158 15.2813 6.22346C14.7072 5.23111 13.9072 4.38806 12.9463 3.7627C12.889 4.27415 12.7329 4.76961 12.4867 5.22158C13.1134 5.68711 13.6403 6.27366 14.0363 6.9465C14.4322 7.61933 14.6891 8.36477 14.7918 9.13867V9.15325ZM11.2759 15.2441C10.5559 15.549 9.78191 15.7062 9 15.7062C8.21808 15.7062 7.44415 15.549 6.72415 15.2441C6.46149 15.6825 6.11443 16.0643 5.703 16.3674C6.71979 16.885 7.84455 17.1548 8.98548 17.1548C10.1264 17.1548 11.2512 16.885 12.268 16.3674C11.8671 16.0614 11.53 15.6798 11.2759 15.2441Z"
      fill="#8A8F99" />
  </g>
  <defs>
    <clipPath id="clip0_2902_2141">
      <rect width="18" height="18" fill="white" />
    </clipPath>
  </defs>
</svg>