<!-- 所属路径: /Users/liyu/work/actionsky/dms-ui/dms-ui/packages/shared/lib/icon/common.tsx -->
<svg viewBox="0 0 16 16" xmlns="http://www.w3.org/2000/svg">
  <g id="login-box-line">
    <path id="Vector"
      d="M2.66665 10.0002H3.99998V13.3335H12V2.66683H3.99998V6.00016H2.66665V2.00016C2.66665 1.82335 2.73688 1.65378 2.86191 1.52876C2.98693 1.40373 3.1565 1.3335 3.33331 1.3335H12.6666C12.8435 1.3335 13.013 1.40373 13.1381 1.52876C13.2631 1.65378 13.3333 1.82335 13.3333 2.00016V14.0002C13.3333 14.177 13.2631 14.3465 13.1381 14.4716C13.013 14.5966 12.8435 14.6668 12.6666 14.6668H3.33331C3.1565 14.6668 2.98693 14.5966 2.86191 14.4716C2.73688 14.3465 2.66665 14.177 2.66665 14.0002V10.0002ZM6.66665 7.3335V5.3335L9.99998 8.00016L6.66665 10.6668V8.66683H1.33331V7.3335H6.66665Z" fill="#292C33" />
  </g>
</svg>