<!-- 所属路径: /Users/liyu/work/actionsky/dms-ui/dms-ui/packages/sqle/src/icon/SqlExecWorkflow.tsx -->
<svg viewBox="0 0 16 16" xmlns="http://www.w3.org/2000/svg">
  <path
    d="M6.875 1.51554C7.57115 1.11362 8.42885 1.11362 9.125 1.51554L13.0532 3.78349C13.7494 4.18542 14.1782 4.9282 14.1782 5.73205V10.2679C14.1782 11.0718 13.7494 11.8146 13.0532 12.2165L9.125 14.4845C8.42885 14.8864 7.57115 14.8864 6.875 14.4845L2.9468 12.2165C2.25064 11.8146 1.8218 11.0718 1.8218 10.2679V5.73205C1.8218 4.9282 2.25064 4.18542 2.9468 3.78349L6.875 1.51554Z" />
  <path
    d="M7.99995 3.15479V8.00008L3.79321 10.4039C3.87976 10.5616 4.00868 10.6957 4.16982 10.7888L7.49995 12.7114C7.80935 12.89 8.19055 12.89 8.49995 12.7114L11.8301 10.7888C12.1395 10.6101 12.3301 10.28 12.3301 9.92273V6.07744C12.3301 5.72017 12.1395 5.39004 11.8301 5.21141L8.49995 3.28876C8.34525 3.19944 8.1726 3.15478 7.99995 3.15479Z"
    fill="white" />
</svg>