<!-- 所属路径: /Users/liyu/work/actionsky/dms-ui/dms-ui/packages/base/src/icon/sideMenu.tsx -->
<svg viewBox="0 0 1024 1024" xmlns="http://www.w3.org/2000/svg">
  <path
    d="M511.984854 85.330809C276.343825 85.330809 85.330809 276.343825 85.330809 511.984854c0 180.815984 112.508672 335.478075 271.522634 397.598904a42.665404 42.665404 0 0 1-31.060414 79.485649C135.164001 914.618276 0 729.151763 0 511.984854 0 229.241218 229.241218 0 511.984854 0c217.166909 0 402.633422 135.164001 477.084553 325.793029 5.930491 15.188884 11.135671 30.719091 15.615538 46.590621a42.665404 42.665404 0 0 1-82.088238 23.20998A426.824706 426.824706 0 0 0 511.984854 85.330809z" fill="#C3C6CD" />
  <path
    d="M511.984854 255.992427a255.992427 255.992427 0 0 0-95.186518 493.724061 42.665404 42.665404 0 0 1-31.743061 79.18699A341.408567 341.408567 0 0 1 511.984854 170.661618c120.743095 0 226.851956 62.718145 287.479495 157.222015a42.665404 42.665404 0 1 1-71.848541 46.078637A255.7791 255.7791 0 0 0 511.984854 255.992427z" fill="#C3C6CD"/>
  <path
    d="M511.984854 426.654045a85.330809 85.330809 0 0 0-28.457825 165.797762 42.665404 42.665404 0 1 1-28.415159 80.466952 170.704283 170.704283 0 1 1 170.661618-288.119476 42.665404 42.665404 0 1 1-56.91565 63.571453A84.86149 84.86149 0 0 0 511.984854 426.654045zM794.429831 561.903377a31.444403 31.444403 0 0 0 0 44.030697l50.259847 50.259847a31.401738 31.401738 0 0 0 44.030697 0l118.481829-118.481828a188.581088 188.581088 0 0 1-249.592617 249.592616l-217.166908 217.166909a66.643362 66.643362 0 1 1-94.290544-94.290544l217.166908-217.166909a188.581088 188.581088 0 0 1 249.592617-249.592616L794.429831 561.903377z" fill="#C3C6CD"/>
</svg>