<!-- 所属路径: /Users/liyu/work/actionsky/dms-ui/dms-ui/packages/base/src/icon/sideMenu.tsx -->
<svg viewBox="0 0 18 18" xmlns="http://www.w3.org/2000/svg">
  <path
    d="M3 1.5H14.25C14.4489 1.5 14.6396 1.57903 14.7803 1.71968C14.9209 1.86033 15 2.05109 15 2.25V8.25C14.3524 7.76022 13.5619 7.49671 12.75 7.5C11.7554 7.5 10.8016 7.8951 10.0984 8.59836C9.3951 9.30162 9 10.2554 9 11.25C9.00662 11.7673 9.11887 12.2777 9.32996 12.75C8.80856 12.849 8.33896 13.1291 8.00409 13.5408C7.66922 13.9525 7.49069 14.4694 7.5 15V16.5H3C2.80109 16.5 2.61029 16.421 2.46964 16.2803C2.32898 16.1397 2.25 15.9489 2.25 15.75V2.25C2.25 2.05109 2.32898 1.86033 2.46964 1.71968C2.61029 1.57903 2.80109 1.5 3 1.5ZM6 9H8.25V7.5H6V9ZM6 6H11.25V4.5H6V6Z"
    fill="#C3C6CD" />
  <path
    d="M11.2976 9.5287C11.7041 9.1865 12.2186 8.99921 12.75 9C13.2814 8.99921 13.7958 9.1865 14.2023 9.5287C14.6088 9.87089 14.8811 10.3459 14.971 10.8696C15.0608 11.3933 14.9623 11.9319 14.6931 12.39C14.4239 12.8481 14.0012 13.1962 13.5 13.3725V14.25H15.75C15.9489 14.25 16.1396 14.329 16.2803 14.4697C16.4209 14.6103 16.5 14.8011 16.5 15V16.5C16.5 16.6989 16.4209 16.8897 16.2803 17.0303C16.1396 17.171 15.9489 17.25 15.75 17.25H9.75C9.55109 17.25 9.36029 17.171 9.21964 17.0303C9.07898 16.8897 9 16.6989 9 16.5V15C9 14.8011 9.07898 14.6103 9.21964 14.4697C9.36029 14.329 9.55109 14.25 9.75 14.25H12V13.3725C11.4988 13.1962 11.076 12.8481 10.8068 12.39C10.5376 11.9319 10.4392 11.3933 10.529 10.8696C10.6189 10.3459 10.8911 9.87089 11.2976 9.5287ZM12.1263 10.8333C12.0439 10.9567 12 11.1017 12 11.25C12 11.4489 12.079 11.6397 12.2196 11.7803C12.3603 11.921 12.5511 12 12.75 12C12.8983 12 13.0433 11.956 13.1667 11.8736C13.29 11.7912 13.3861 11.6741 13.4429 11.537C13.4996 11.4 13.5145 11.2492 13.4855 11.1037C13.4566 10.9582 13.3852 10.8246 13.2803 10.7197C13.1754 10.6148 13.0418 10.5434 12.8963 10.5144C12.7508 10.4855 12.6 10.5003 12.463 10.5571C12.3259 10.6139 12.2088 10.71 12.1263 10.8333Z"
    fill="#8A8F99" />
</svg>