<!-- 所属路径: /Users/liyu/work/actionsky/dms-ui/dms-ui/packages/sqle/src/icon/SqlExecWorkflow.tsx -->
<svg viewBox="0 0 16 16" xmlns="http://www.w3.org/2000/svg">
  <path
    d="M6.875 1.51554C7.57115 1.11362 8.42885 1.11362 9.125 1.51554L13.0532 3.78349C13.7494 4.18542 14.1782 4.9282 14.1782 5.73205V10.2679C14.1782 11.0718 13.7494 11.8146 13.0532 12.2165L9.125 14.4845C8.42885 14.8864 7.57115 14.8864 6.875 14.4845L2.9468 12.2165C2.25064 11.8146 1.8218 11.0718 1.8218 10.2679V5.73205C1.8218 4.9282 2.25064 4.18542 2.9468 3.78349L6.875 1.51554Z" />
  <path fill="white"
    d="M8 3.15466V7.99996L12.2067 10.4038C12.2864 10.2588 12.3301 10.0938 12.3301 9.92261V6.07731C12.3301 5.72005 12.1395 5.38992 11.8301 5.21129L8.5 3.28864C8.3453 3.19932 8.17265 3.15466 8 3.15466Z" />
</svg>