<!-- 所属路径: /Users/liyu/work/actionsky/dms-ui/dms-ui/packages/base/src/icon/sideMenu.tsx -->
<svg viewBox="0 0 18 18" xmlns="http://www.w3.org/2000/svg">
  <path
    d="M9.75 8.58L13.155 7.83L15.03 8.25V2.25C15.03 2.05109 14.951 1.86033 14.8103 1.71968C14.6697 1.57903 14.4789 1.5 14.28 1.5H3C2.80109 1.5 2.61033 1.57903 2.46968 1.71968C2.32903 1.86033 2.25 2.05109 2.25 2.25V15.75C2.25 15.9489 2.32903 16.1397 2.46968 16.2803C2.61033 16.421 2.80109 16.5 3 16.5H9.07498C8.53866 15.8412 8.24715 15.017 8.25 14.1675V10.4175C8.24705 9.98452 8.39526 9.56406 8.66908 9.22863C8.9429 8.8932 9.32518 8.6638 9.75 8.58ZM8.25 9.73501H6V8.23501H8.25V9.73501ZM6 6.73501V5.23501H11.25V6.73501H6ZM16.2075 10.0425L13.125 9.36001L10.0425 10.0425C9.95919 10.0613 9.88476 10.108 9.83157 10.1748C9.77839 10.2416 9.74962 10.3246 9.75 10.41V14.16C9.74986 14.5312 9.84157 14.8966 10.0169 15.2238C10.1923 15.5509 10.4458 15.8296 10.755 16.035L13.125 17.6175L15.495 16.035C15.8042 15.8296 16.0577 15.5509 16.2331 15.2238C16.4084 14.8966 16.5001 14.5312 16.5 14.16V10.41C16.5004 10.3246 16.4716 10.2416 16.4184 10.1748C16.3652 10.108 16.2908 10.0613 16.2075 10.0425Z"
    fill="#C3C6CD" />
  <path
    d="M16.2075 10.0426L13.125 9.36011L10.0425 10.0426C9.9592 10.0614 9.88477 10.1081 9.83158 10.1749C9.77839 10.2417 9.74962 10.3247 9.75 10.4101V14.1601C9.74987 14.5313 9.84157 14.8967 10.0169 15.2239C10.1923 15.551 10.4458 15.8297 10.755 16.0351L13.125 17.6176L15.495 16.0351C15.8042 15.8297 16.0577 15.551 16.2331 15.2239C16.4084 14.8967 16.5001 14.5313 16.5 14.1601V10.4101C16.5004 10.3247 16.4716 10.2417 16.4184 10.1749C16.3652 10.1081 16.2908 10.0614 16.2075 10.0426Z"
    fill="#8A8F99" />
</svg>