<!-- 所属路径: /Users/liyu/work/actionsky/dms-ui/dms-ui/packages/shared/lib/icon/LevelIcon/index.tsx -->
<svg viewBox="0 0 18 19" xmlns="http://www.w3.org/2000/svg">
  <path
    d="M15 17H3C2.80109 17 2.61032 16.921 2.46967 16.7803C2.32902 16.6397 2.25 16.4489 2.25 16.25V2.75C2.25 2.55109 2.32902 2.36032 2.46967 2.21967C2.61032 2.07902 2.80109 2 3 2H15C15.1989 2 15.3897 2.07902 15.5303 2.21967C15.671 2.36032 15.75 2.55109 15.75 2.75V16.25C15.75 16.4489 15.671 16.6397 15.5303 16.7803C15.3897 16.921 15.1989 17 15 17ZM6 5.75V7.25H12V5.75H6ZM6 8.75V10.25H12V8.75H6ZM6 11.75V13.25H9.75V11.75H6Z" />
</svg>