<!-- 所属路径: /Users/liyu/work/actionsky/dms-ui/dms-ui/packages/sqle/src/icon/SqlExecWorkflow.tsx -->
<svg viewBox="0 0 16 16" xmlns="http://www.w3.org/2000/svg">
  <path
    d="M7.99992 14.6644C4.31802 14.6644 1.33325 11.6796 1.33325 7.99773C1.33325 4.31582 4.31802 1.33105 7.99992 1.33105C11.6818 1.33105 14.6666 4.31582 14.6666 7.99773C14.6666 11.6796 11.6818 14.6644 7.99992 14.6644ZM7.99992 13.3311C10.9455 13.3311 13.3333 10.9433 13.3333 7.99773C13.3333 5.0522 10.9455 2.66439 7.99992 2.66439C5.0544 2.66439 2.66659 5.0522 2.66659 7.99773C2.66659 10.9433 5.0544 13.3311 7.99992 13.3311ZM7.99992 11.9977V3.99772C10.2091 3.99772 11.9999 5.78858 11.9999 7.99773C11.9999 10.2069 10.2091 11.9977 7.99992 11.9977Z" />
</svg>