<!-- 所属路径: /Users/liyu/work/actionsky/dms-ui/dms-ui/packages/base/src/icon/sideMenu.tsx -->
<svg viewBox="0 0 18 18" xmlns="http://www.w3.org/2000/svg">
  <g id="icons/white-list">
    <path id="1" fill-rule="evenodd" clip-rule="evenodd"
      d="M15.75 5.25L12 1.5H2.99505C2.58371 1.5 2.25 1.83304 2.25 2.24385V15.7561C2.25 16.1585 2.58357 16.5 2.99505 16.5H9.60202C9.21914 15.8381 9 15.0696 9 14.25C9 11.7647 11.0147 9.75 13.5 9.75C14.3196 9.75 15.0881 9.96914 15.75 10.352V5.25ZM10.591 4.84835L13.2427 7.5L10.591 10.1516L9.53032 9.09097L11.1213 7.5L9.53032 5.90901L10.591 4.84835ZM7.40901 10.1516L4.75736 7.5L7.40901 4.84835L8.46968 5.90901L6.87868 7.5L8.46968 9.09097L7.40901 10.1516Z"
      fill="#C3C6CD" />
    <path id="2" fill-rule="evenodd" clip-rule="evenodd"
      d="M13.5 17.25C15.1569 17.25 16.5 15.9069 16.5 14.25C16.5 12.5931 15.1569 11.25 13.5 11.25C11.8431 11.25 10.5 12.5931 10.5 14.25C10.5 15.9069 11.8431 17.25 13.5 17.25ZM11.25 14.2501L13.125 16.1251L15.75 13.5001L15 12.75L13.125 14.6251L12 13.5001L11.25 14.2501Z"
      fill="#8A8F99" />
  </g>
</svg>