<!-- 所属路径: /Users/liyu/work/actionsky/dms-ui/dms-ui/packages/sqle/src/icon/Dashboard.tsx -->
<svg viewBox="0 0 20 20" xmlns="http://www.w3.org/2000/svg">
  <g id="scan-2-fill">
    <path id="Vector"
      d="M3.54756 4.72606L5.32804 6.50653C4.59869 7.48035 4.16669 8.68976 4.16669 10C4.16669 13.2217 6.77836 15.8333 10 15.8333C13.2217 15.8333 15.8334 13.2217 15.8334 10C15.8334 6.77835 13.2217 4.16667 10 4.16667C8.68977 4.16667 7.48036 4.59867 6.50655 5.32802L4.72608 3.54755C6.16264 2.37198 7.99896 1.66667 10 1.66667C14.6024 1.66667 18.3334 5.39763 18.3334 10C18.3334 14.6023 14.6024 18.3333 10 18.3333C5.39765 18.3333 1.66669 14.6023 1.66669 10C1.66669 7.99895 2.372 6.16262 3.54756 4.72606ZM6.52369 7.70218L10 11.1785L11.1785 10L7.7022 6.52367C8.36085 6.08741 9.15077 5.83334 10 5.83334C12.3012 5.83334 14.1667 7.69882 14.1667 10C14.1667 12.3012 12.3012 14.1667 10 14.1667C7.69884 14.1667 5.83335 12.3012 5.83335 10C5.83335 9.15076 6.08742 8.36084 6.52369 7.70218Z" />
  </g>
</svg>