<!-- 所属路径: /Users/liyu/work/actionsky/dms-ui/dms-ui/packages/base/src/icon/home.tsx -->
<svg viewBox="0 0 24 24" xmlns="http://www.w3.org/2000/svg">
  <g id="icons/rule">
    <path id="2"
      d="M5.83333 1.5C5.09695 1.5 4.5 2.09695 4.5 2.83333V3.5H18.1667C18.903 3.5 19.5 4.09695 19.5 4.83333V20.1667C19.5 20.2818 19.4854 20.3935 19.458 20.5H20.1667C20.903 20.5 21.5 19.903 21.5 19.1667V2.83333C21.5 2.09695 20.903 1.5 20.1667 1.5H5.83333Z" />
    <path id="1" fill-rule="evenodd" clip-rule="evenodd"
      d="M3.83333 3.5C3.09695 3.5 2.5 4.09695 2.5 4.83333V21.1667C2.5 21.903 3.09695 22.5 3.83333 22.5H18.1667C18.903 22.5 19.5 21.903 19.5 21.1667V4.83333C19.5 4.09695 18.903 3.5 18.1667 3.5H3.83333ZM7 9.66667C7 9.29848 7.29848 9 7.66667 9H14.3333C14.7015 9 15 9.29848 15 9.66667V10.3333C15 10.7015 14.7015 11 14.3333 11H7.66667C7.29848 11 7 10.7015 7 10.3333V9.66667ZM7 14.6667C7 14.2985 7.29848 14 7.66667 14H11.3333C11.7015 14 12 14.2985 12 14.6667V15.3333C12 15.7015 11.7015 16 11.3333 16H7.66667C7.29848 16 7 15.7015 7 15.3333V14.6667Z"
      fillOpacity="0.6" />
  </g>
</svg>