<!-- 所属路径: /Users/liyu/work/actionsky/dms-ui/dms-ui/packages/shared/lib/icon/common.tsx -->
<svg viewBox="0 0 16 16" xmlns="http://www.w3.org/2000/svg">
  <path
    d="M8.00001 14.6666C4.31811 14.6666 1.33334 11.6818 1.33334 7.99998C1.33334 4.31808 4.31811 1.33331 8.00001 1.33331C11.6819 1.33331 14.6667 4.31808 14.6667 7.99998C14.6667 11.6818 11.6819 14.6666 8.00001 14.6666ZM8.00001 13.3333C10.9455 13.3333 13.3333 10.9455 13.3333 7.99998C13.3333 5.05446 10.9455 2.66665 8.00001 2.66665C5.05449 2.66665 2.66668 5.05446 2.66668 7.99998C2.66668 10.9455 5.05449 13.3333 8.00001 13.3333ZM7.33508 10.6666L4.50667 7.83825L5.44948 6.89538L7.33508 8.78105L11.1063 5.00979L12.0491 5.9526L7.33508 10.6666Z" fill="#1CB889" />
</svg>