<!-- 所属路径: /Users/liyu/work/actionsky/dms-ui/dms-ui/packages/shared/lib/icon/common.tsx -->
<svg viewBox="0 0 160 140" xmlns="http://www.w3.org/2000/svg">
  <g>
    <path
      d="M140 33.3333C143.536 33.3333 146.927 34.7381 149.428 37.2386C151.928 39.7391 153.333 43.1304 153.333 46.6667V73.3333C153.333 76.8695 151.928 80.2609 149.428 82.7614C146.927 85.2619 143.536 86.6667 140 86.6667H132.92C131.295 99.5553 125.022 111.408 115.278 120C105.535 128.592 92.9906 133.333 79.9998 133.333V120C90.6085 120 100.783 115.786 108.284 108.284C115.786 100.783 120 90.6087 120 80V40C120 29.3913 115.786 19.2172 108.284 11.7157C100.783 4.21426 90.6085 -1.33514e-05 79.9998 -1.33514e-05C69.3912 -1.33514e-05 59.217 4.21426 51.7156 11.7157C44.2141 19.2172 39.9998 29.3913 39.9998 40V86.6667H19.9998C16.4636 86.6667 13.0722 85.2619 10.5717 82.7614C8.07126 80.2609 6.6665 76.8695 6.6665 73.3333V46.6667C6.6665 43.1304 8.07126 39.7391 10.5717 37.2386C13.0722 34.7381 16.4636 33.3333 19.9998 33.3333H27.0798C28.7067 20.446 34.9804 8.59514 44.7237 0.00449276C54.4669 -8.58615 67.0102 -13.3262 79.9998 -13.3262C92.9895 -13.3262 105.533 -8.58615 115.276 0.00449276C125.019 8.59514 131.293 20.446 132.92 33.3333H140ZM51.7332 85.2333L58.7998 73.9267C65.1537 77.9069 72.5023 80.0121 79.9998 80C87.4974 80.0121 94.846 77.9069 101.2 73.9267L108.266 85.2333C99.7949 90.541 89.9968 93.3487 79.9998 93.3333C70.0029 93.3487 60.2048 90.541 51.7332 85.2333Z" fill="url(#paint0_linear_2190_5865)" />
  </g>
  <defs>
    <linearGradient id="paint0_linear_2190_5865" x1="79.9998" y1="-13.3262" x2="79.9998" y2="133.333"
      gradientUnits="userSpaceOnUse">
      <stop stop-color="#2E6BE6" stop-opacity="0.4" />
      <stop offset="1" stop-color="#2E6BE6" />
    </linearGradient>
  </defs>
</svg>