<!-- 所属路径: /Users/liyu/work/actionsky/dms-ui/dms-ui/packages/shared/lib/icon/common.tsx -->
<svg viewBox="0 0 16 16" xmlns="http://www.w3.org/2000/svg">
  <path
    d="M5.66675 4.66663C6.21903 4.66663 6.66675 4.21891 6.66675 3.66663C6.66675 3.11434 6.21903 2.66663 5.66675 2.66663C5.11446 2.66663 4.66675 3.11434 4.66675 3.66663C4.66675 4.21891 5.11446 4.66663 5.66675 4.66663ZM5.66675 8.99996C6.21903 8.99996 6.66675 8.55223 6.66675 7.99996C6.66675 7.44769 6.21903 6.99996 5.66675 6.99996C5.11446 6.99996 4.66675 7.44769 4.66675 7.99996C4.66675 8.55223 5.11446 8.99996 5.66675 8.99996ZM6.66675 12.3333C6.66675 12.8856 6.21903 13.3333 5.66675 13.3333C5.11446 13.3333 4.66675 12.8856 4.66675 12.3333C4.66675 11.781 5.11446 11.3333 5.66675 11.3333C6.21903 11.3333 6.66675 11.781 6.66675 12.3333ZM10.3334 4.66663C10.8857 4.66663 11.3334 4.21891 11.3334 3.66663C11.3334 3.11434 10.8857 2.66663 10.3334 2.66663C9.78115 2.66663 9.33341 3.11434 9.33341 3.66663C9.33341 4.21891 9.78115 4.66663 10.3334 4.66663ZM11.3334 7.99996C11.3334 8.55223 10.8857 8.99996 10.3334 8.99996C9.78115 8.99996 9.33341 8.55223 9.33341 7.99996C9.33341 7.44769 9.78115 6.99996 10.3334 6.99996C10.8857 6.99996 11.3334 7.44769 11.3334 7.99996ZM10.3334 13.3333C10.8857 13.3333 11.3334 12.8856 11.3334 12.3333C11.3334 11.781 10.8857 11.3333 10.3334 11.3333C9.78115 11.3333 9.33341 11.781 9.33341 12.3333C9.33341 12.8856 9.78115 13.3333 10.3334 13.3333Z" />
</svg>