<svg t="1724136380775" viewBox="0 0 1024 1024" version="1.1" xmlns="http://www.w3.org/2000/svg" p-id="10767" width="200" height="200"><path d="M497.18 880H168.131V144h515.564l124.436 124.436v227.761c29.641 11.254 56.685 27.769 80 48.409V235.299l-80-80L796.832 144l-80-80H108.131c-11.046 0-20 8.955-20 20v856c0 11.046 8.954 20 20 20h470.211a261.354 261.354 0 0 1-81.162-80z" p-id="10768" fill="#C3C6CD"></path><path d="M258.131 259.255h460v80h-460zM715.869 479.331c0.756 0 1.508 0.022 2.262 0.029V472h-460v80h277.457c46.743-44.995 110.277-72.669 180.281-72.669zM258.131 684.745v80h198.976a262.87 262.87 0 0 1-1.239-25.414c0-18.726 1.997-36.983 5.759-54.586H258.131zM871.432 583.767c-41.553-41.553-96.8-64.437-155.563-64.437s-114.011 22.884-155.563 64.437c-41.553 41.552-64.437 96.799-64.437 155.564 0 58.764 22.884 114.011 64.437 155.563s96.8 64.437 155.563 64.437 114.011-22.884 155.563-64.437 64.437-96.8 64.437-155.563c0-58.765-22.884-114.012-64.437-155.564zM715.869 879.331c-77.196 0-140-62.804-140-140 0-24.08 6.112-46.758 16.864-66.568l189.703 189.704c-19.809 10.752-42.488 16.864-66.567 16.864z m123.136-73.433L649.301 616.195c19.809-10.752 42.488-16.864 66.567-16.864 77.196 0 140 62.804 140 140 0.001 24.08-6.111 46.758-16.863 66.567z" p-id="10769" fill="#8A8F99"></path></svg>