<svg t="1726038591096" class="icon" viewBox="0 0 1024 1024" version="1.1" xmlns="http://www.w3.org/2000/svg" p-id="11221" width="200" height="200"><path d="M527.1 887.6H220.8v-751h361.6v187.1c0 19.9 16.1 36 36 36h187.4v88.6c0 19.9 16.1 36 36 36s36-16.1 36-36V323.6c0-9.6-3.8-18.7-10.6-25.5l-223.3-223c-0.6-0.6-1.2-1.1-1.8-1.6l-0.4-0.4-1.8-1.5s-0.1-0.1-0.2-0.1l-1.8-1.2-0.6-0.3c-0.6-0.4-1.3-0.8-2-1.1-0.1 0-0.2-0.1-0.2-0.1-0.6-0.3-1.2-0.6-1.9-0.9l-0.6-0.3c-0.7-0.3-1.4-0.6-2.1-0.8-0.1 0-0.1 0-0.2-0.1-0.7-0.2-1.4-0.5-2.1-0.7-0.2-0.1-0.4-0.1-0.6-0.2-0.7-0.2-1.5-0.4-2.3-0.5-0.7-0.1-1.5-0.3-2.3-0.4-0.2 0-0.4-0.1-0.6-0.1-0.7-0.1-1.4-0.2-2.2-0.2H202.1c-29.4 0-53.3 23.9-53.3 53.3v788.4c0 29.4 23.9 53.3 53.3 53.3h325c19.9 0 36-16.1 36-36s-16.1-36-36-36z m127.4-599.9V187.5l100.2 100.2H654.5z" p-id="11222" fill="#8A8F99"></path><path d="M768.1 547c-105.5 0-191 85.5-191 191s85.5 191 191 191 191-85.5 191-191-85.5-191-191-191zM885 816.5c-4.1 0-8.2-0.7-12.3-2.2l-115.9-42.2c-14.3-4.8-24.6-18.3-24.6-34.1V613.7c0-19.9 16.1-36 36-36s36 16.1 36 36v99.1l93.1 33.9c18.7 6.8 28.3 27.5 21.5 46.1-5.3 14.7-19.1 23.7-33.8 23.7z" p-id="11223" fill="#8A8F99"></path></svg>