<!-- 所属路径: /Users/liyu/work/actionsky/dms-ui/dms-ui/packages/base/src/icon/sideMenu.tsx -->
<svg viewBox="0 0 1024 1024" xmlns="http://www.w3.org/2000/svg">
  <path
    d="M823.685 375.036c-0.096-0.198-0.198-0.493-0.198-0.691-1.578-7.32-5.142-14.238-10.777-19.878-5.634-5.635-12.558-9.192-19.878-10.777-0.198-0.101-0.492-0.198-0.69-0.198-2.67-0.492-5.34-0.791-8.011-0.791H621.969c-22.248 0-40.543 18.192-40.543 40.541 0 22.248 18.193 40.543 40.543 40.543h64.273l-159.89 159.788-114.506-114.5c-15.721-15.726-41.531-15.726-57.252 0l-143.277 143.18c-15.726 15.72-15.726 41.526 0 57.252 15.721 15.721 41.528 15.721 57.247 0L383.172 554.9 497.18 669.01c0.198 0.198 0.299 0.396 0.397 0.497 7.913 7.908 18.293 11.863 28.674 11.766a40.769 40.769 0 0 0 28.679-11.766c0.193-0.198 0.294-0.396 0.391-0.497l188.072-188.073v64.273c0 22.248 18.198 40.543 40.543 40.543 22.248 0 40.543-18.193 40.543-40.543V383.142c-0.002-2.67-0.296-5.436-0.794-8.106z m0 0" />
  <path
    d="M899.111 124.889V899.11H124.889V124.889h774.222M947.74 27.63H76.259c-26.857 0-48.63 21.772-48.63 48.63v871.48c0 26.857 21.773 48.63 48.63 48.63H947.74c26.857 0 48.63-21.772 48.63-48.63V76.26c0-26.858-21.772-48.63-48.63-48.63z" />
</svg>