<svg width="664" height="436" viewBox="0 0 664 436" fill="none" xmlns="http://www.w3.org/2000/svg">
  <rect x="0.5" y="0.5" width="663" height="435" rx="4.5" fill="#FCFBF9" />
  <rect x="20.5" y="20.5" width="299" height="35" rx="3.5" fill="#FCFBF9" />
  <path
    d="M47.75 36.125V38.375C47.75 40.2387 44.7275 41.75 41 41.75C37.2725 41.75 34.25 40.2387 34.25 38.375V36.125C34.25 37.9887 37.2725 39.5 41 39.5C44.7275 39.5 47.75 37.9887 47.75 36.125ZM34.25 39.875C34.25 41.7387 37.2725 43.25 41 43.25C44.7275 43.25 47.75 41.7387 47.75 39.875V42.125C47.75 43.9887 44.7275 45.5 41 45.5C37.2725 45.5 34.25 43.9887 34.25 42.125V39.875ZM41 38C37.2725 38 34.25 36.4887 34.25 34.625C34.25 32.7613 37.2725 31.25 41 31.25C44.7275 31.25 47.75 32.7613 47.75 34.625C47.75 36.4887 44.7275 38 41 38Z"
    fill="#C3C6CD" />
  <path
    d="M68.596 31.562H69.562V32.472H73.034V33.298H69.562V34.236H72.53V35.048H69.562V36H73.384V36.84H64.816V36H68.596V35.048H65.768V34.236H68.596V33.298H65.208V32.472H68.596V31.562ZM66.846 40.368V41.39H71.368V40.368H66.846ZM71.368 39.584V38.548H66.846V39.584H71.368ZM66.846 42.174V44.4H65.88V37.722H72.334V43.182C72.334 43.938 71.928 44.316 71.144 44.316H69.968L69.73 43.42L70.85 43.462C71.186 43.462 71.368 43.294 71.368 42.972V42.174H66.846ZM62.282 31.716C63.22 32.416 64.004 33.13 64.648 33.844L63.962 34.544C63.374 33.872 62.576 33.158 61.568 32.402L62.282 31.716ZM60.588 35.846H63.556V41.992C63.976 41.6 64.41 41.166 64.886 40.676L65.152 41.74C64.368 42.552 63.528 43.28 62.66 43.91L62.268 43.014C62.478 42.818 62.59 42.608 62.59 42.37V36.812H60.588V35.846ZM75.764 31.786C76.702 32.514 77.486 33.242 78.13 33.97L77.43 34.67C76.856 33.97 76.072 33.228 75.078 32.444L75.764 31.786ZM83.898 44.148C83.142 44.148 82.302 44.134 81.406 44.12C80.51 44.106 79.768 44.022 79.208 43.868C78.662 43.7 78.172 43.35 77.738 42.846C77.542 42.608 77.36 42.496 77.192 42.496C76.842 42.496 76.282 43.14 75.498 44.456L74.742 43.77C75.498 42.58 76.156 41.852 76.744 41.6V37.344H74.756V36.42H77.682V41.656C77.794 41.74 77.906 41.852 78.018 41.978C78.354 42.384 78.718 42.678 79.11 42.86C79.544 43.056 80.174 43.168 81.014 43.196C81.742 43.21 82.666 43.224 83.758 43.224C84.43 43.224 85.116 43.21 85.816 43.196C86.488 43.182 87.02 43.168 87.398 43.14L87.146 44.148H83.898ZM82.694 31.52H83.674V33.312H86.474V34.278H83.674V36.28H86.964V37.26H84.612V41.012C84.612 41.264 84.752 41.404 85.06 41.404H85.564C85.76 41.404 85.9 41.362 86.012 41.278C86.18 41.152 86.292 40.592 86.348 39.598L87.23 39.892C87.146 41.054 86.992 41.74 86.782 41.964C86.586 42.16 86.25 42.272 85.774 42.286H84.766C84.402 42.286 84.136 42.188 83.954 41.992C83.758 41.796 83.674 41.544 83.674 41.236V37.26H82.26C82.218 38.226 82.078 39.066 81.84 39.766C81.476 40.83 80.622 41.712 79.306 42.398L78.648 41.6C79.782 41.04 80.524 40.34 80.888 39.5C81.126 38.884 81.266 38.128 81.308 37.26H79.054V36.28H82.694V34.278H80.426C80.174 34.81 79.894 35.286 79.586 35.734L78.704 35.188C79.46 34.138 80.006 32.976 80.342 31.716L81.308 31.912C81.168 32.402 81.014 32.864 80.846 33.312H82.694V31.52ZM93.782 32.122H100.418V32.962C100.012 34.054 99.284 34.964 98.22 35.72C99.116 36.14 100.208 36.434 101.482 36.602L101.118 37.498C99.578 37.288 98.29 36.882 97.282 36.294C96.302 36.826 95.126 37.246 93.768 37.582L93.292 36.728C94.482 36.448 95.518 36.112 96.386 35.692C95.504 34.978 94.874 34.096 94.482 33.032H93.782V32.122ZM95.476 33.032C95.854 33.9 96.456 34.628 97.282 35.188C98.234 34.586 98.92 33.872 99.354 33.032H95.476ZM90.268 44.274H89.05L88.84 43.294C89.204 43.322 89.568 43.35 89.918 43.35C90.282 43.35 90.478 43.154 90.478 42.79V39.43C89.918 39.626 89.358 39.808 88.798 39.976L88.546 38.968C89.204 38.814 89.848 38.632 90.478 38.422V35.216H88.77V34.25H90.478V31.604H91.514V34.25H93.082V35.216H91.514V38.044C92.046 37.82 92.578 37.568 93.11 37.302V38.324C92.592 38.576 92.06 38.814 91.514 39.038V43.056C91.514 43.868 91.094 44.274 90.268 44.274ZM94.02 38.59H96.82V37.358H97.8V38.59H100.558V39.514H97.8V41.11H101.272V42.048H97.8V44.26H96.82V42.048H93.306V41.11H96.82V39.514H94.02V38.59Z"
    fill="#C3C6CD" />
  <path d="M304 38.7814L307.3 35.4814L308.243 36.4241L304 40.6668L299.758 36.4241L300.7 35.4814L304 38.7814Z"
    fill="#C3C6CD" />
  <rect x="20.5" y="20.5" width="299" height="35" rx="3.5" stroke="#E8E7E6" />
  <rect x="344.5" y="20.5" width="299" height="35" rx="3.5" fill="#FCFBF9" />
  <path
    d="M364.596 31.562H365.562V32.472H369.034V33.298H365.562V34.236H368.53V35.048H365.562V36H369.384V36.84H360.816V36H364.596V35.048H361.768V34.236H364.596V33.298H361.208V32.472H364.596V31.562ZM362.846 40.368V41.39H367.368V40.368H362.846ZM367.368 39.584V38.548H362.846V39.584H367.368ZM362.846 42.174V44.4H361.88V37.722H368.334V43.182C368.334 43.938 367.928 44.316 367.144 44.316H365.968L365.73 43.42L366.85 43.462C367.186 43.462 367.368 43.294 367.368 42.972V42.174H362.846ZM358.282 31.716C359.22 32.416 360.004 33.13 360.648 33.844L359.962 34.544C359.374 33.872 358.576 33.158 357.568 32.402L358.282 31.716ZM356.588 35.846H359.556V41.992C359.976 41.6 360.41 41.166 360.886 40.676L361.152 41.74C360.368 42.552 359.528 43.28 358.66 43.91L358.268 43.014C358.478 42.818 358.59 42.608 358.59 42.37V36.812H356.588V35.846ZM371.764 31.786C372.702 32.514 373.486 33.242 374.13 33.97L373.43 34.67C372.856 33.97 372.072 33.228 371.078 32.444L371.764 31.786ZM379.898 44.148C379.142 44.148 378.302 44.134 377.406 44.12C376.51 44.106 375.768 44.022 375.208 43.868C374.662 43.7 374.172 43.35 373.738 42.846C373.542 42.608 373.36 42.496 373.192 42.496C372.842 42.496 372.282 43.14 371.498 44.456L370.742 43.77C371.498 42.58 372.156 41.852 372.744 41.6V37.344H370.756V36.42H373.682V41.656C373.794 41.74 373.906 41.852 374.018 41.978C374.354 42.384 374.718 42.678 375.11 42.86C375.544 43.056 376.174 43.168 377.014 43.196C377.742 43.21 378.666 43.224 379.758 43.224C380.43 43.224 381.116 43.21 381.816 43.196C382.488 43.182 383.02 43.168 383.398 43.14L383.146 44.148H379.898ZM378.694 31.52H379.674V33.312H382.474V34.278H379.674V36.28H382.964V37.26H380.612V41.012C380.612 41.264 380.752 41.404 381.06 41.404H381.564C381.76 41.404 381.9 41.362 382.012 41.278C382.18 41.152 382.292 40.592 382.348 39.598L383.23 39.892C383.146 41.054 382.992 41.74 382.782 41.964C382.586 42.16 382.25 42.272 381.774 42.286H380.766C380.402 42.286 380.136 42.188 379.954 41.992C379.758 41.796 379.674 41.544 379.674 41.236V37.26H378.26C378.218 38.226 378.078 39.066 377.84 39.766C377.476 40.83 376.622 41.712 375.306 42.398L374.648 41.6C375.782 41.04 376.524 40.34 376.888 39.5C377.126 38.884 377.266 38.128 377.308 37.26H375.054V36.28H378.694V34.278H376.426C376.174 34.81 375.894 35.286 375.586 35.734L374.704 35.188C375.46 34.138 376.006 32.976 376.342 31.716L377.308 31.912C377.168 32.402 377.014 32.864 376.846 33.312H378.694V31.52ZM389.782 32.122H396.418V32.962C396.012 34.054 395.284 34.964 394.22 35.72C395.116 36.14 396.208 36.434 397.482 36.602L397.118 37.498C395.578 37.288 394.29 36.882 393.282 36.294C392.302 36.826 391.126 37.246 389.768 37.582L389.292 36.728C390.482 36.448 391.518 36.112 392.386 35.692C391.504 34.978 390.874 34.096 390.482 33.032H389.782V32.122ZM391.476 33.032C391.854 33.9 392.456 34.628 393.282 35.188C394.234 34.586 394.92 33.872 395.354 33.032H391.476ZM386.268 44.274H385.05L384.84 43.294C385.204 43.322 385.568 43.35 385.918 43.35C386.282 43.35 386.478 43.154 386.478 42.79V39.43C385.918 39.626 385.358 39.808 384.798 39.976L384.546 38.968C385.204 38.814 385.848 38.632 386.478 38.422V35.216H384.77V34.25H386.478V31.604H387.514V34.25H389.082V35.216H387.514V38.044C388.046 37.82 388.578 37.568 389.11 37.302V38.324C388.592 38.576 388.06 38.814 387.514 39.038V43.056C387.514 43.868 387.094 44.274 386.268 44.274ZM390.02 38.59H392.82V37.358H393.8V38.59H396.558V39.514H393.8V41.11H397.272V42.048H393.8V44.26H392.82V42.048H389.306V41.11H392.82V39.514H390.02V38.59Z"
    fill="#C3C6CD" />
  <path d="M628 38.7814L631.3 35.4814L632.243 36.4241L628 40.6668L623.758 36.4241L624.7 35.4814L628 38.7814Z"
    fill="#C3C6CD" />
  <rect x="344.5" y="20.5" width="299" height="35" rx="3.5" stroke="#E8E7E6" />
  <rect x="20.5" y="80.5" width="299" height="35" rx="3.5" fill="#FCFBF9" />
  <path
    d="M47.75 96.125V98.375C47.75 100.239 44.7275 101.75 41 101.75C37.2725 101.75 34.25 100.239 34.25 98.375V96.125C34.25 97.9887 37.2725 99.5 41 99.5C44.7275 99.5 47.75 97.9887 47.75 96.125ZM34.25 99.875C34.25 101.739 37.2725 103.25 41 103.25C44.7275 103.25 47.75 101.739 47.75 99.875V102.125C47.75 103.989 44.7275 105.5 41 105.5C37.2725 105.5 34.25 103.989 34.25 102.125V99.875ZM41 98C37.2725 98 34.25 96.4887 34.25 94.625C34.25 92.7613 37.2725 91.25 41 91.25C44.7275 91.25 47.75 92.7613 47.75 94.625C47.75 96.4887 44.7275 98 41 98Z"
    fill="#C3C6CD" />
  <path
    d="M68.596 91.562H69.562V92.472H73.034V93.298H69.562V94.236H72.53V95.048H69.562V96H73.384V96.84H64.816V96H68.596V95.048H65.768V94.236H68.596V93.298H65.208V92.472H68.596V91.562ZM66.846 100.368V101.39H71.368V100.368H66.846ZM71.368 99.584V98.548H66.846V99.584H71.368ZM66.846 102.174V104.4H65.88V97.722H72.334V103.182C72.334 103.938 71.928 104.316 71.144 104.316H69.968L69.73 103.42L70.85 103.462C71.186 103.462 71.368 103.294 71.368 102.972V102.174H66.846ZM62.282 91.716C63.22 92.416 64.004 93.13 64.648 93.844L63.962 94.544C63.374 93.872 62.576 93.158 61.568 92.402L62.282 91.716ZM60.588 95.846H63.556V101.992C63.976 101.6 64.41 101.166 64.886 100.676L65.152 101.74C64.368 102.552 63.528 103.28 62.66 103.91L62.268 103.014C62.478 102.818 62.59 102.608 62.59 102.37V96.812H60.588V95.846ZM75.764 91.786C76.702 92.514 77.486 93.242 78.13 93.97L77.43 94.67C76.856 93.97 76.072 93.228 75.078 92.444L75.764 91.786ZM83.898 104.148C83.142 104.148 82.302 104.134 81.406 104.12C80.51 104.106 79.768 104.022 79.208 103.868C78.662 103.7 78.172 103.35 77.738 102.846C77.542 102.608 77.36 102.496 77.192 102.496C76.842 102.496 76.282 103.14 75.498 104.456L74.742 103.77C75.498 102.58 76.156 101.852 76.744 101.6V97.344H74.756V96.42H77.682V101.656C77.794 101.74 77.906 101.852 78.018 101.978C78.354 102.384 78.718 102.678 79.11 102.86C79.544 103.056 80.174 103.168 81.014 103.196C81.742 103.21 82.666 103.224 83.758 103.224C84.43 103.224 85.116 103.21 85.816 103.196C86.488 103.182 87.02 103.168 87.398 103.14L87.146 104.148H83.898ZM82.694 91.52H83.674V93.312H86.474V94.278H83.674V96.28H86.964V97.26H84.612V101.012C84.612 101.264 84.752 101.404 85.06 101.404H85.564C85.76 101.404 85.9 101.362 86.012 101.278C86.18 101.152 86.292 100.592 86.348 99.598L87.23 99.892C87.146 101.054 86.992 101.74 86.782 101.964C86.586 102.16 86.25 102.272 85.774 102.286H84.766C84.402 102.286 84.136 102.188 83.954 101.992C83.758 101.796 83.674 101.544 83.674 101.236V97.26H82.26C82.218 98.226 82.078 99.066 81.84 99.766C81.476 100.83 80.622 101.712 79.306 102.398L78.648 101.6C79.782 101.04 80.524 100.34 80.888 99.5C81.126 98.884 81.266 98.128 81.308 97.26H79.054V96.28H82.694V94.278H80.426C80.174 94.81 79.894 95.286 79.586 95.734L78.704 95.188C79.46 94.138 80.006 92.976 80.342 91.716L81.308 91.912C81.168 92.402 81.014 92.864 80.846 93.312H82.694V91.52ZM93.782 92.122H100.418V92.962C100.012 94.054 99.284 94.964 98.22 95.72C99.116 96.14 100.208 96.434 101.482 96.602L101.118 97.498C99.578 97.288 98.29 96.882 97.282 96.294C96.302 96.826 95.126 97.246 93.768 97.582L93.292 96.728C94.482 96.448 95.518 96.112 96.386 95.692C95.504 94.978 94.874 94.096 94.482 93.032H93.782V92.122ZM95.476 93.032C95.854 93.9 96.456 94.628 97.282 95.188C98.234 94.586 98.92 93.872 99.354 93.032H95.476ZM90.268 104.274H89.05L88.84 103.294C89.204 103.322 89.568 103.35 89.918 103.35C90.282 103.35 90.478 103.154 90.478 102.79V99.43C89.918 99.626 89.358 99.808 88.798 99.976L88.546 98.968C89.204 98.814 89.848 98.632 90.478 98.422V95.216H88.77V94.25H90.478V91.604H91.514V94.25H93.082V95.216H91.514V98.044C92.046 97.82 92.578 97.568 93.11 97.302V98.324C92.592 98.576 92.06 98.814 91.514 99.038V103.056C91.514 103.868 91.094 104.274 90.268 104.274ZM94.02 98.59H96.82V97.358H97.8V98.59H100.558V99.514H97.8V101.11H101.272V102.048H97.8V104.26H96.82V102.048H93.306V101.11H96.82V99.514H94.02V98.59Z"
    fill="#C3C6CD" />
  <path d="M304 98.7814L307.3 95.4814L308.243 96.4241L304 100.667L299.758 96.4241L300.7 95.4814L304 98.7814Z"
    fill="#C3C6CD" />
  <rect x="20.5" y="80.5" width="299" height="35" rx="3.5" stroke="#C7C6C3" />
  <rect x="344.5" y="80.5" width="299" height="35" rx="3.5" fill="#FCFBF9" />
  <path
    d="M364.596 91.562H365.562V92.472H369.034V93.298H365.562V94.236H368.53V95.048H365.562V96H369.384V96.84H360.816V96H364.596V95.048H361.768V94.236H364.596V93.298H361.208V92.472H364.596V91.562ZM362.846 100.368V101.39H367.368V100.368H362.846ZM367.368 99.584V98.548H362.846V99.584H367.368ZM362.846 102.174V104.4H361.88V97.722H368.334V103.182C368.334 103.938 367.928 104.316 367.144 104.316H365.968L365.73 103.42L366.85 103.462C367.186 103.462 367.368 103.294 367.368 102.972V102.174H362.846ZM358.282 91.716C359.22 92.416 360.004 93.13 360.648 93.844L359.962 94.544C359.374 93.872 358.576 93.158 357.568 92.402L358.282 91.716ZM356.588 95.846H359.556V101.992C359.976 101.6 360.41 101.166 360.886 100.676L361.152 101.74C360.368 102.552 359.528 103.28 358.66 103.91L358.268 103.014C358.478 102.818 358.59 102.608 358.59 102.37V96.812H356.588V95.846ZM371.764 91.786C372.702 92.514 373.486 93.242 374.13 93.97L373.43 94.67C372.856 93.97 372.072 93.228 371.078 92.444L371.764 91.786ZM379.898 104.148C379.142 104.148 378.302 104.134 377.406 104.12C376.51 104.106 375.768 104.022 375.208 103.868C374.662 103.7 374.172 103.35 373.738 102.846C373.542 102.608 373.36 102.496 373.192 102.496C372.842 102.496 372.282 103.14 371.498 104.456L370.742 103.77C371.498 102.58 372.156 101.852 372.744 101.6V97.344H370.756V96.42H373.682V101.656C373.794 101.74 373.906 101.852 374.018 101.978C374.354 102.384 374.718 102.678 375.11 102.86C375.544 103.056 376.174 103.168 377.014 103.196C377.742 103.21 378.666 103.224 379.758 103.224C380.43 103.224 381.116 103.21 381.816 103.196C382.488 103.182 383.02 103.168 383.398 103.14L383.146 104.148H379.898ZM378.694 91.52H379.674V93.312H382.474V94.278H379.674V96.28H382.964V97.26H380.612V101.012C380.612 101.264 380.752 101.404 381.06 101.404H381.564C381.76 101.404 381.9 101.362 382.012 101.278C382.18 101.152 382.292 100.592 382.348 99.598L383.23 99.892C383.146 101.054 382.992 101.74 382.782 101.964C382.586 102.16 382.25 102.272 381.774 102.286H380.766C380.402 102.286 380.136 102.188 379.954 101.992C379.758 101.796 379.674 101.544 379.674 101.236V97.26H378.26C378.218 98.226 378.078 99.066 377.84 99.766C377.476 100.83 376.622 101.712 375.306 102.398L374.648 101.6C375.782 101.04 376.524 100.34 376.888 99.5C377.126 98.884 377.266 98.128 377.308 97.26H375.054V96.28H378.694V94.278H376.426C376.174 94.81 375.894 95.286 375.586 95.734L374.704 95.188C375.46 94.138 376.006 92.976 376.342 91.716L377.308 91.912C377.168 92.402 377.014 92.864 376.846 93.312H378.694V91.52ZM389.782 92.122H396.418V92.962C396.012 94.054 395.284 94.964 394.22 95.72C395.116 96.14 396.208 96.434 397.482 96.602L397.118 97.498C395.578 97.288 394.29 96.882 393.282 96.294C392.302 96.826 391.126 97.246 389.768 97.582L389.292 96.728C390.482 96.448 391.518 96.112 392.386 95.692C391.504 94.978 390.874 94.096 390.482 93.032H389.782V92.122ZM391.476 93.032C391.854 93.9 392.456 94.628 393.282 95.188C394.234 94.586 394.92 93.872 395.354 93.032H391.476ZM386.268 104.274H385.05L384.84 103.294C385.204 103.322 385.568 103.35 385.918 103.35C386.282 103.35 386.478 103.154 386.478 102.79V99.43C385.918 99.626 385.358 99.808 384.798 99.976L384.546 98.968C385.204 98.814 385.848 98.632 386.478 98.422V95.216H384.77V94.25H386.478V91.604H387.514V94.25H389.082V95.216H387.514V98.044C388.046 97.82 388.578 97.568 389.11 97.302V98.324C388.592 98.576 388.06 98.814 387.514 99.038V103.056C387.514 103.868 387.094 104.274 386.268 104.274ZM390.02 98.59H392.82V97.358H393.8V98.59H396.558V99.514H393.8V101.11H397.272V102.048H393.8V104.26H392.82V102.048H389.306V101.11H392.82V99.514H390.02V98.59Z"
    fill="#C3C6CD" />
  <path d="M628 98.7814L631.3 95.4814L632.243 96.4241L628 100.667L623.758 96.4241L624.7 95.4814L628 98.7814Z"
    fill="#C3C6CD" />
  <rect x="344.5" y="80.5" width="299" height="35" rx="3.5" stroke="#C7C6C3" />
  <rect x="20.75" y="140.75" width="298.5" height="34.5" rx="3.25" fill="#FCFBF9" />
  <path
    d="M47.75 156.125V158.375C47.75 160.239 44.7275 161.75 41 161.75C37.2725 161.75 34.25 160.239 34.25 158.375V156.125C34.25 157.989 37.2725 159.5 41 159.5C44.7275 159.5 47.75 157.989 47.75 156.125ZM34.25 159.875C34.25 161.739 37.2725 163.25 41 163.25C44.7275 163.25 47.75 161.739 47.75 159.875V162.125C47.75 163.989 44.7275 165.5 41 165.5C37.2725 165.5 34.25 163.989 34.25 162.125V159.875ZM41 158C37.2725 158 34.25 156.489 34.25 154.625C34.25 152.761 37.2725 151.25 41 151.25C44.7275 151.25 47.75 152.761 47.75 154.625C47.75 156.489 44.7275 158 41 158Z"
    fill="#C3C6CD" />
  <path
    d="M68.596 151.562H69.562V152.472H73.034V153.298H69.562V154.236H72.53V155.048H69.562V156H73.384V156.84H64.816V156H68.596V155.048H65.768V154.236H68.596V153.298H65.208V152.472H68.596V151.562ZM66.846 160.368V161.39H71.368V160.368H66.846ZM71.368 159.584V158.548H66.846V159.584H71.368ZM66.846 162.174V164.4H65.88V157.722H72.334V163.182C72.334 163.938 71.928 164.316 71.144 164.316H69.968L69.73 163.42L70.85 163.462C71.186 163.462 71.368 163.294 71.368 162.972V162.174H66.846ZM62.282 151.716C63.22 152.416 64.004 153.13 64.648 153.844L63.962 154.544C63.374 153.872 62.576 153.158 61.568 152.402L62.282 151.716ZM60.588 155.846H63.556V161.992C63.976 161.6 64.41 161.166 64.886 160.676L65.152 161.74C64.368 162.552 63.528 163.28 62.66 163.91L62.268 163.014C62.478 162.818 62.59 162.608 62.59 162.37V156.812H60.588V155.846ZM75.764 151.786C76.702 152.514 77.486 153.242 78.13 153.97L77.43 154.67C76.856 153.97 76.072 153.228 75.078 152.444L75.764 151.786ZM83.898 164.148C83.142 164.148 82.302 164.134 81.406 164.12C80.51 164.106 79.768 164.022 79.208 163.868C78.662 163.7 78.172 163.35 77.738 162.846C77.542 162.608 77.36 162.496 77.192 162.496C76.842 162.496 76.282 163.14 75.498 164.456L74.742 163.77C75.498 162.58 76.156 161.852 76.744 161.6V157.344H74.756V156.42H77.682V161.656C77.794 161.74 77.906 161.852 78.018 161.978C78.354 162.384 78.718 162.678 79.11 162.86C79.544 163.056 80.174 163.168 81.014 163.196C81.742 163.21 82.666 163.224 83.758 163.224C84.43 163.224 85.116 163.21 85.816 163.196C86.488 163.182 87.02 163.168 87.398 163.14L87.146 164.148H83.898ZM82.694 151.52H83.674V153.312H86.474V154.278H83.674V156.28H86.964V157.26H84.612V161.012C84.612 161.264 84.752 161.404 85.06 161.404H85.564C85.76 161.404 85.9 161.362 86.012 161.278C86.18 161.152 86.292 160.592 86.348 159.598L87.23 159.892C87.146 161.054 86.992 161.74 86.782 161.964C86.586 162.16 86.25 162.272 85.774 162.286H84.766C84.402 162.286 84.136 162.188 83.954 161.992C83.758 161.796 83.674 161.544 83.674 161.236V157.26H82.26C82.218 158.226 82.078 159.066 81.84 159.766C81.476 160.83 80.622 161.712 79.306 162.398L78.648 161.6C79.782 161.04 80.524 160.34 80.888 159.5C81.126 158.884 81.266 158.128 81.308 157.26H79.054V156.28H82.694V154.278H80.426C80.174 154.81 79.894 155.286 79.586 155.734L78.704 155.188C79.46 154.138 80.006 152.976 80.342 151.716L81.308 151.912C81.168 152.402 81.014 152.864 80.846 153.312H82.694V151.52ZM93.782 152.122H100.418V152.962C100.012 154.054 99.284 154.964 98.22 155.72C99.116 156.14 100.208 156.434 101.482 156.602L101.118 157.498C99.578 157.288 98.29 156.882 97.282 156.294C96.302 156.826 95.126 157.246 93.768 157.582L93.292 156.728C94.482 156.448 95.518 156.112 96.386 155.692C95.504 154.978 94.874 154.096 94.482 153.032H93.782V152.122ZM95.476 153.032C95.854 153.9 96.456 154.628 97.282 155.188C98.234 154.586 98.92 153.872 99.354 153.032H95.476ZM90.268 164.274H89.05L88.84 163.294C89.204 163.322 89.568 163.35 89.918 163.35C90.282 163.35 90.478 163.154 90.478 162.79V159.43C89.918 159.626 89.358 159.808 88.798 159.976L88.546 158.968C89.204 158.814 89.848 158.632 90.478 158.422V155.216H88.77V154.25H90.478V151.604H91.514V154.25H93.082V155.216H91.514V158.044C92.046 157.82 92.578 157.568 93.11 157.302V158.324C92.592 158.576 92.06 158.814 91.514 159.038V163.056C91.514 163.868 91.094 164.274 90.268 164.274ZM94.02 158.59H96.82V157.358H97.8V158.59H100.558V159.514H97.8V161.11H101.272V162.048H97.8V164.26H96.82V162.048H93.306V161.11H96.82V159.514H94.02V158.59Z"
    fill="#C3C6CD" />
  <path d="M304 157.219L300.7 160.519L299.758 159.576L304 155.333L308.243 159.576L307.3 160.519L304 157.219Z"
    fill="#C3C6CD" />
  <rect x="20.75" y="140.75" width="298.5" height="34.5" rx="3.25" stroke="#4583FF" stroke-width="1.5" />
  <rect x="344.75" y="140.75" width="298.5" height="34.5" rx="3.25" fill="#FCFBF9" />
  <path
    d="M364.596 151.562H365.562V152.472H369.034V153.298H365.562V154.236H368.53V155.048H365.562V156H369.384V156.84H360.816V156H364.596V155.048H361.768V154.236H364.596V153.298H361.208V152.472H364.596V151.562ZM362.846 160.368V161.39H367.368V160.368H362.846ZM367.368 159.584V158.548H362.846V159.584H367.368ZM362.846 162.174V164.4H361.88V157.722H368.334V163.182C368.334 163.938 367.928 164.316 367.144 164.316H365.968L365.73 163.42L366.85 163.462C367.186 163.462 367.368 163.294 367.368 162.972V162.174H362.846ZM358.282 151.716C359.22 152.416 360.004 153.13 360.648 153.844L359.962 154.544C359.374 153.872 358.576 153.158 357.568 152.402L358.282 151.716ZM356.588 155.846H359.556V161.992C359.976 161.6 360.41 161.166 360.886 160.676L361.152 161.74C360.368 162.552 359.528 163.28 358.66 163.91L358.268 163.014C358.478 162.818 358.59 162.608 358.59 162.37V156.812H356.588V155.846ZM371.764 151.786C372.702 152.514 373.486 153.242 374.13 153.97L373.43 154.67C372.856 153.97 372.072 153.228 371.078 152.444L371.764 151.786ZM379.898 164.148C379.142 164.148 378.302 164.134 377.406 164.12C376.51 164.106 375.768 164.022 375.208 163.868C374.662 163.7 374.172 163.35 373.738 162.846C373.542 162.608 373.36 162.496 373.192 162.496C372.842 162.496 372.282 163.14 371.498 164.456L370.742 163.77C371.498 162.58 372.156 161.852 372.744 161.6V157.344H370.756V156.42H373.682V161.656C373.794 161.74 373.906 161.852 374.018 161.978C374.354 162.384 374.718 162.678 375.11 162.86C375.544 163.056 376.174 163.168 377.014 163.196C377.742 163.21 378.666 163.224 379.758 163.224C380.43 163.224 381.116 163.21 381.816 163.196C382.488 163.182 383.02 163.168 383.398 163.14L383.146 164.148H379.898ZM378.694 151.52H379.674V153.312H382.474V154.278H379.674V156.28H382.964V157.26H380.612V161.012C380.612 161.264 380.752 161.404 381.06 161.404H381.564C381.76 161.404 381.9 161.362 382.012 161.278C382.18 161.152 382.292 160.592 382.348 159.598L383.23 159.892C383.146 161.054 382.992 161.74 382.782 161.964C382.586 162.16 382.25 162.272 381.774 162.286H380.766C380.402 162.286 380.136 162.188 379.954 161.992C379.758 161.796 379.674 161.544 379.674 161.236V157.26H378.26C378.218 158.226 378.078 159.066 377.84 159.766C377.476 160.83 376.622 161.712 375.306 162.398L374.648 161.6C375.782 161.04 376.524 160.34 376.888 159.5C377.126 158.884 377.266 158.128 377.308 157.26H375.054V156.28H378.694V154.278H376.426C376.174 154.81 375.894 155.286 375.586 155.734L374.704 155.188C375.46 154.138 376.006 152.976 376.342 151.716L377.308 151.912C377.168 152.402 377.014 152.864 376.846 153.312H378.694V151.52ZM389.782 152.122H396.418V152.962C396.012 154.054 395.284 154.964 394.22 155.72C395.116 156.14 396.208 156.434 397.482 156.602L397.118 157.498C395.578 157.288 394.29 156.882 393.282 156.294C392.302 156.826 391.126 157.246 389.768 157.582L389.292 156.728C390.482 156.448 391.518 156.112 392.386 155.692C391.504 154.978 390.874 154.096 390.482 153.032H389.782V152.122ZM391.476 153.032C391.854 153.9 392.456 154.628 393.282 155.188C394.234 154.586 394.92 153.872 395.354 153.032H391.476ZM386.268 164.274H385.05L384.84 163.294C385.204 163.322 385.568 163.35 385.918 163.35C386.282 163.35 386.478 163.154 386.478 162.79V159.43C385.918 159.626 385.358 159.808 384.798 159.976L384.546 158.968C385.204 158.814 385.848 158.632 386.478 158.422V155.216H384.77V154.25H386.478V151.604H387.514V154.25H389.082V155.216H387.514V158.044C388.046 157.82 388.578 157.568 389.11 157.302V158.324C388.592 158.576 388.06 158.814 387.514 159.038V163.056C387.514 163.868 387.094 164.274 386.268 164.274ZM390.02 158.59H392.82V157.358H393.8V158.59H396.558V159.514H393.8V161.11H397.272V162.048H393.8V164.26H392.82V162.048H389.306V161.11H392.82V159.514H390.02V158.59Z"
    fill="#C3C6CD" />
  <path d="M628 157.219L624.7 160.519L623.758 159.576L628 155.333L632.243 159.576L631.3 160.519L628 157.219Z"
    fill="#C3C6CD" />
  <rect x="344.75" y="140.75" width="298.5" height="34.5" rx="3.25" stroke="#4583FF" stroke-width="1.5" />
  <rect x="20.5" y="200.5" width="299" height="35" rx="3.5" fill="#FCFBF9" />
  <path
    d="M47.75 216.125V218.375C47.75 220.239 44.7275 221.75 41 221.75C37.2725 221.75 34.25 220.239 34.25 218.375V216.125C34.25 217.989 37.2725 219.5 41 219.5C44.7275 219.5 47.75 217.989 47.75 216.125ZM34.25 219.875C34.25 221.739 37.2725 223.25 41 223.25C44.7275 223.25 47.75 221.739 47.75 219.875V222.125C47.75 223.989 44.7275 225.5 41 225.5C37.2725 225.5 34.25 223.989 34.25 222.125V219.875ZM41 218C37.2725 218 34.25 216.489 34.25 214.625C34.25 212.761 37.2725 211.25 41 211.25C44.7275 211.25 47.75 212.761 47.75 214.625C47.75 216.489 44.7275 218 41 218Z"
    fill="#4583FF" />
  <path
    d="M68.596 211.562H69.562V212.472H73.034V213.298H69.562V214.236H72.53V215.048H69.562V216H73.384V216.84H64.816V216H68.596V215.048H65.768V214.236H68.596V213.298H65.208V212.472H68.596V211.562ZM66.846 220.368V221.39H71.368V220.368H66.846ZM71.368 219.584V218.548H66.846V219.584H71.368ZM66.846 222.174V224.4H65.88V217.722H72.334V223.182C72.334 223.938 71.928 224.316 71.144 224.316H69.968L69.73 223.42L70.85 223.462C71.186 223.462 71.368 223.294 71.368 222.972V222.174H66.846ZM62.282 211.716C63.22 212.416 64.004 213.13 64.648 213.844L63.962 214.544C63.374 213.872 62.576 213.158 61.568 212.402L62.282 211.716ZM60.588 215.846H63.556V221.992C63.976 221.6 64.41 221.166 64.886 220.676L65.152 221.74C64.368 222.552 63.528 223.28 62.66 223.91L62.268 223.014C62.478 222.818 62.59 222.608 62.59 222.37V216.812H60.588V215.846ZM75.764 211.786C76.702 212.514 77.486 213.242 78.13 213.97L77.43 214.67C76.856 213.97 76.072 213.228 75.078 212.444L75.764 211.786ZM83.898 224.148C83.142 224.148 82.302 224.134 81.406 224.12C80.51 224.106 79.768 224.022 79.208 223.868C78.662 223.7 78.172 223.35 77.738 222.846C77.542 222.608 77.36 222.496 77.192 222.496C76.842 222.496 76.282 223.14 75.498 224.456L74.742 223.77C75.498 222.58 76.156 221.852 76.744 221.6V217.344H74.756V216.42H77.682V221.656C77.794 221.74 77.906 221.852 78.018 221.978C78.354 222.384 78.718 222.678 79.11 222.86C79.544 223.056 80.174 223.168 81.014 223.196C81.742 223.21 82.666 223.224 83.758 223.224C84.43 223.224 85.116 223.21 85.816 223.196C86.488 223.182 87.02 223.168 87.398 223.14L87.146 224.148H83.898ZM82.694 211.52H83.674V213.312H86.474V214.278H83.674V216.28H86.964V217.26H84.612V221.012C84.612 221.264 84.752 221.404 85.06 221.404H85.564C85.76 221.404 85.9 221.362 86.012 221.278C86.18 221.152 86.292 220.592 86.348 219.598L87.23 219.892C87.146 221.054 86.992 221.74 86.782 221.964C86.586 222.16 86.25 222.272 85.774 222.286H84.766C84.402 222.286 84.136 222.188 83.954 221.992C83.758 221.796 83.674 221.544 83.674 221.236V217.26H82.26C82.218 218.226 82.078 219.066 81.84 219.766C81.476 220.83 80.622 221.712 79.306 222.398L78.648 221.6C79.782 221.04 80.524 220.34 80.888 219.5C81.126 218.884 81.266 218.128 81.308 217.26H79.054V216.28H82.694V214.278H80.426C80.174 214.81 79.894 215.286 79.586 215.734L78.704 215.188C79.46 214.138 80.006 212.976 80.342 211.716L81.308 211.912C81.168 212.402 81.014 212.864 80.846 213.312H82.694V211.52ZM93.782 212.122H100.418V212.962C100.012 214.054 99.284 214.964 98.22 215.72C99.116 216.14 100.208 216.434 101.482 216.602L101.118 217.498C99.578 217.288 98.29 216.882 97.282 216.294C96.302 216.826 95.126 217.246 93.768 217.582L93.292 216.728C94.482 216.448 95.518 216.112 96.386 215.692C95.504 214.978 94.874 214.096 94.482 213.032H93.782V212.122ZM95.476 213.032C95.854 213.9 96.456 214.628 97.282 215.188C98.234 214.586 98.92 213.872 99.354 213.032H95.476ZM90.268 224.274H89.05L88.84 223.294C89.204 223.322 89.568 223.35 89.918 223.35C90.282 223.35 90.478 223.154 90.478 222.79V219.43C89.918 219.626 89.358 219.808 88.798 219.976L88.546 218.968C89.204 218.814 89.848 218.632 90.478 218.422V215.216H88.77V214.25H90.478V211.604H91.514V214.25H93.082V215.216H91.514V218.044C92.046 217.82 92.578 217.568 93.11 217.302V218.324C92.592 218.576 92.06 218.814 91.514 219.038V223.056C91.514 223.868 91.094 224.274 90.268 224.274ZM94.02 218.59H96.82V217.358H97.8V218.59H100.558V219.514H97.8V221.11H101.272V222.048H97.8V224.26H96.82V222.048H93.306V221.11H96.82V219.514H94.02V218.59Z"
    fill="#292C33" />
  <path d="M304 218.781L307.3 215.481L308.243 216.424L304 220.667L299.758 216.424L300.7 215.481L304 218.781Z"
    fill="#C3C6CD" />
  <rect x="20.5" y="200.5" width="299" height="35" rx="3.5" stroke="#E8E7E6" />
  <rect x="344.5" y="200.5" width="299" height="35" rx="3.5" fill="#FCFBF9" />
  <path
    d="M364.596 211.562H365.562V212.472H369.034V213.298H365.562V214.236H368.53V215.048H365.562V216H369.384V216.84H360.816V216H364.596V215.048H361.768V214.236H364.596V213.298H361.208V212.472H364.596V211.562ZM362.846 220.368V221.39H367.368V220.368H362.846ZM367.368 219.584V218.548H362.846V219.584H367.368ZM362.846 222.174V224.4H361.88V217.722H368.334V223.182C368.334 223.938 367.928 224.316 367.144 224.316H365.968L365.73 223.42L366.85 223.462C367.186 223.462 367.368 223.294 367.368 222.972V222.174H362.846ZM358.282 211.716C359.22 212.416 360.004 213.13 360.648 213.844L359.962 214.544C359.374 213.872 358.576 213.158 357.568 212.402L358.282 211.716ZM356.588 215.846H359.556V221.992C359.976 221.6 360.41 221.166 360.886 220.676L361.152 221.74C360.368 222.552 359.528 223.28 358.66 223.91L358.268 223.014C358.478 222.818 358.59 222.608 358.59 222.37V216.812H356.588V215.846ZM371.764 211.786C372.702 212.514 373.486 213.242 374.13 213.97L373.43 214.67C372.856 213.97 372.072 213.228 371.078 212.444L371.764 211.786ZM379.898 224.148C379.142 224.148 378.302 224.134 377.406 224.12C376.51 224.106 375.768 224.022 375.208 223.868C374.662 223.7 374.172 223.35 373.738 222.846C373.542 222.608 373.36 222.496 373.192 222.496C372.842 222.496 372.282 223.14 371.498 224.456L370.742 223.77C371.498 222.58 372.156 221.852 372.744 221.6V217.344H370.756V216.42H373.682V221.656C373.794 221.74 373.906 221.852 374.018 221.978C374.354 222.384 374.718 222.678 375.11 222.86C375.544 223.056 376.174 223.168 377.014 223.196C377.742 223.21 378.666 223.224 379.758 223.224C380.43 223.224 381.116 223.21 381.816 223.196C382.488 223.182 383.02 223.168 383.398 223.14L383.146 224.148H379.898ZM378.694 211.52H379.674V213.312H382.474V214.278H379.674V216.28H382.964V217.26H380.612V221.012C380.612 221.264 380.752 221.404 381.06 221.404H381.564C381.76 221.404 381.9 221.362 382.012 221.278C382.18 221.152 382.292 220.592 382.348 219.598L383.23 219.892C383.146 221.054 382.992 221.74 382.782 221.964C382.586 222.16 382.25 222.272 381.774 222.286H380.766C380.402 222.286 380.136 222.188 379.954 221.992C379.758 221.796 379.674 221.544 379.674 221.236V217.26H378.26C378.218 218.226 378.078 219.066 377.84 219.766C377.476 220.83 376.622 221.712 375.306 222.398L374.648 221.6C375.782 221.04 376.524 220.34 376.888 219.5C377.126 218.884 377.266 218.128 377.308 217.26H375.054V216.28H378.694V214.278H376.426C376.174 214.81 375.894 215.286 375.586 215.734L374.704 215.188C375.46 214.138 376.006 212.976 376.342 211.716L377.308 211.912C377.168 212.402 377.014 212.864 376.846 213.312H378.694V211.52ZM389.782 212.122H396.418V212.962C396.012 214.054 395.284 214.964 394.22 215.72C395.116 216.14 396.208 216.434 397.482 216.602L397.118 217.498C395.578 217.288 394.29 216.882 393.282 216.294C392.302 216.826 391.126 217.246 389.768 217.582L389.292 216.728C390.482 216.448 391.518 216.112 392.386 215.692C391.504 214.978 390.874 214.096 390.482 213.032H389.782V212.122ZM391.476 213.032C391.854 213.9 392.456 214.628 393.282 215.188C394.234 214.586 394.92 213.872 395.354 213.032H391.476ZM386.268 224.274H385.05L384.84 223.294C385.204 223.322 385.568 223.35 385.918 223.35C386.282 223.35 386.478 223.154 386.478 222.79V219.43C385.918 219.626 385.358 219.808 384.798 219.976L384.546 218.968C385.204 218.814 385.848 218.632 386.478 218.422V215.216H384.77V214.25H386.478V211.604H387.514V214.25H389.082V215.216H387.514V218.044C388.046 217.82 388.578 217.568 389.11 217.302V218.324C388.592 218.576 388.06 218.814 387.514 219.038V223.056C387.514 223.868 387.094 224.274 386.268 224.274ZM390.02 218.59H392.82V217.358H393.8V218.59H396.558V219.514H393.8V221.11H397.272V222.048H393.8V224.26H392.82V222.048H389.306V221.11H392.82V219.514H390.02V218.59Z"
    fill="#292C33" />
  <path d="M628 218.781L631.3 215.481L632.243 216.424L628 220.667L623.758 216.424L624.7 215.481L628 218.781Z"
    fill="#C3C6CD" />
  <rect x="344.5" y="200.5" width="299" height="35" rx="3.5" stroke="#E8E7E6" />
  <rect x="20.5" y="260.5" width="299" height="35" rx="3.5" fill="#FCFBF9" />
  <path
    d="M47.75 276.125V278.375C47.75 280.239 44.7275 281.75 41 281.75C37.2725 281.75 34.25 280.239 34.25 278.375V276.125C34.25 277.989 37.2725 279.5 41 279.5C44.7275 279.5 47.75 277.989 47.75 276.125ZM34.25 279.875C34.25 281.739 37.2725 283.25 41 283.25C44.7275 283.25 47.75 281.739 47.75 279.875V282.125C47.75 283.989 44.7275 285.5 41 285.5C37.2725 285.5 34.25 283.989 34.25 282.125V279.875ZM41 278C37.2725 278 34.25 276.489 34.25 274.625C34.25 272.761 37.2725 271.25 41 271.25C44.7275 271.25 47.75 272.761 47.75 274.625C47.75 276.489 44.7275 278 41 278Z"
    fill="#4583FF" />
  <rect x="60" y="267" width="48" height="22" rx="4" fill="#F2F1EF" />
  <path
    d="M64.768 274.224H69.736C69.412 273.588 69.016 272.988 68.536 272.424L69.4 272.112C69.856 272.688 70.264 273.396 70.648 274.224H75.232V275.088H73.36C72.772 276.984 71.884 278.58 70.708 279.852C71.98 280.932 73.576 281.82 75.496 282.528L75.028 283.248C73.036 282.504 71.404 281.58 70.108 280.464C68.74 281.724 67.036 282.648 64.996 283.236L64.54 282.48C66.556 281.94 68.212 281.088 69.508 279.912C68.116 278.544 67.156 276.936 66.616 275.088H64.768V274.224ZM67.468 275.088C67.984 276.708 68.86 278.112 70.108 279.312C71.176 278.148 71.956 276.744 72.46 275.088H67.468ZM76.864 274.404H81.556V272.232H82.444V274.404H87.124V275.232H83.212C84.016 277.14 85.456 278.844 87.52 280.344L86.932 281.088C84.82 279.36 83.356 277.404 82.54 275.232H82.444V279.912H85.012V280.74H82.444V283.2H81.556V280.74H79.084V279.912H81.556V275.232H81.472C80.584 277.668 79.072 279.672 76.936 281.244L76.444 280.44C78.46 279.096 79.9 277.356 80.788 275.232H76.864V274.404Z"
    fill="#292C33" />
  <path
    d="M99.0004 277.175L101.888 274.288L102.713 275.112L99.8253 278L102.713 280.887L101.888 281.712L99.0004 278.825L96.1129 281.712L95.2881 280.887L98.1756 278L95.2881 275.112L96.1129 274.288L99.0004 277.175Z"
    fill="#8A8F99" />
  <rect x="112" y="267" width="48" height="22" rx="4" fill="#F2F1EF" />
  <path
    d="M116.768 274.224H121.736C121.412 273.588 121.016 272.988 120.536 272.424L121.4 272.112C121.856 272.688 122.264 273.396 122.648 274.224H127.232V275.088H125.36C124.772 276.984 123.884 278.58 122.708 279.852C123.98 280.932 125.576 281.82 127.496 282.528L127.028 283.248C125.036 282.504 123.404 281.58 122.108 280.464C120.74 281.724 119.036 282.648 116.996 283.236L116.54 282.48C118.556 281.94 120.212 281.088 121.508 279.912C120.116 278.544 119.156 276.936 118.616 275.088H116.768V274.224ZM119.468 275.088C119.984 276.708 120.86 278.112 122.108 279.312C123.176 278.148 123.956 276.744 124.46 275.088H119.468ZM128.864 274.404H133.556V272.232H134.444V274.404H139.124V275.232H135.212C136.016 277.14 137.456 278.844 139.52 280.344L138.932 281.088C136.82 279.36 135.356 277.404 134.54 275.232H134.444V279.912H137.012V280.74H134.444V283.2H133.556V280.74H131.084V279.912H133.556V275.232H133.472C132.584 277.668 131.072 279.672 128.936 281.244L128.444 280.44C130.46 279.096 131.9 277.356 132.788 275.232H128.864V274.404Z"
    fill="#292C33" />
  <path
    d="M151 277.175L153.888 274.288L154.713 275.112L151.825 278L154.713 280.887L153.888 281.712L151 278.825L148.113 281.712L147.288 280.887L150.176 278L147.288 275.112L148.113 274.288L151 277.175Z"
    fill="#8A8F99" />
  <rect x="164" y="267" width="48" height="22" rx="4" fill="#F2F1EF" />
  <path
    d="M168.768 274.224H173.736C173.412 273.588 173.016 272.988 172.536 272.424L173.4 272.112C173.856 272.688 174.264 273.396 174.648 274.224H179.232V275.088H177.36C176.772 276.984 175.884 278.58 174.708 279.852C175.98 280.932 177.576 281.82 179.496 282.528L179.028 283.248C177.036 282.504 175.404 281.58 174.108 280.464C172.74 281.724 171.036 282.648 168.996 283.236L168.54 282.48C170.556 281.94 172.212 281.088 173.508 279.912C172.116 278.544 171.156 276.936 170.616 275.088H168.768V274.224ZM171.468 275.088C171.984 276.708 172.86 278.112 174.108 279.312C175.176 278.148 175.956 276.744 176.46 275.088H171.468ZM180.864 274.404H185.556V272.232H186.444V274.404H191.124V275.232H187.212C188.016 277.14 189.456 278.844 191.52 280.344L190.932 281.088C188.82 279.36 187.356 277.404 186.54 275.232H186.444V279.912H189.012V280.74H186.444V283.2H185.556V280.74H183.084V279.912H185.556V275.232H185.472C184.584 277.668 183.072 279.672 180.936 281.244L180.444 280.44C182.46 279.096 183.9 277.356 184.788 275.232H180.864V274.404Z"
    fill="#292C33" />
  <path
    d="M203 277.175L205.888 274.288L206.713 275.112L203.825 278L206.713 280.887L205.888 281.712L203 278.825L200.113 281.712L199.288 280.887L202.176 278L199.288 275.112L200.113 274.288L203 277.175Z"
    fill="#8A8F99" />
  <rect x="216" y="266" width="27" height="24" rx="4" fill="#F2F1EF" />
  <path
    d="M225.228 281.12V278.636H222.744V277.592H225.228V275.12H226.272V277.592H228.744V278.636H226.272V281.12H225.228ZM230.136 282.5V281.684L232.608 279.008C233.096 278.488 233.484 278.06 233.772 277.724C234.068 277.388 234.284 277.088 234.42 276.824C234.556 276.56 234.624 276.28 234.624 275.984C234.624 275.496 234.48 275.12 234.192 274.856C233.904 274.592 233.524 274.46 233.052 274.46C232.572 274.46 232.164 274.6 231.828 274.88C231.492 275.152 231.26 275.54 231.132 276.044L230.064 275.768C230.168 275.288 230.36 274.872 230.64 274.52C230.92 274.168 231.268 273.896 231.684 273.704C232.1 273.512 232.556 273.416 233.052 273.416C233.596 273.416 234.072 273.524 234.48 273.74C234.896 273.948 235.22 274.24 235.452 274.616C235.692 274.992 235.812 275.428 235.812 275.924C235.812 276.252 235.744 276.572 235.608 276.884C235.472 277.196 235.272 277.528 235.008 277.88C234.744 278.224 234.4 278.624 233.976 279.08L231.768 281.48H236.004V282.5H230.136Z"
    fill="#292C33" />
  <path d="M304 278.781L307.3 275.481L308.243 276.424L304 280.667L299.758 276.424L300.7 275.481L304 278.781Z"
    fill="#C3C6CD" />
  <rect x="20.5" y="260.5" width="299" height="35" rx="3.5" stroke="#E8E7E6" />
  <rect x="344.5" y="260.5" width="299" height="35" rx="3.5" fill="#FCFBF9" />
  <rect x="350" y="266" width="51" height="24" rx="4" fill="#F2F1EF" />
  <path
    d="M356.768 274.224H361.736C361.412 273.588 361.016 272.988 360.536 272.424L361.4 272.112C361.856 272.688 362.264 273.396 362.648 274.224H367.232V275.088H365.36C364.772 276.984 363.884 278.58 362.708 279.852C363.98 280.932 365.576 281.82 367.496 282.528L367.028 283.248C365.036 282.504 363.404 281.58 362.108 280.464C360.74 281.724 359.036 282.648 356.996 283.236L356.54 282.48C358.556 281.94 360.212 281.088 361.508 279.912C360.116 278.544 359.156 276.936 358.616 275.088H356.768V274.224ZM359.468 275.088C359.984 276.708 360.86 278.112 362.108 279.312C363.176 278.148 363.956 276.744 364.46 275.088H359.468ZM368.864 274.404H373.556V272.232H374.444V274.404H379.124V275.232H375.212C376.016 277.14 377.456 278.844 379.52 280.344L378.932 281.088C376.82 279.36 375.356 277.404 374.54 275.232H374.444V279.912H377.012V280.74H374.444V283.2H373.556V280.74H371.084V279.912H373.556V275.232H373.472C372.584 277.668 371.072 279.672 368.936 281.244L368.444 280.44C370.46 279.096 371.9 277.356 372.788 275.232H368.864V274.404Z"
    fill="#292C33" />
  <path
    d="M391 277.175L393.888 274.288L394.713 275.112L391.825 278L394.713 280.887L393.888 281.712L391 278.825L388.113 281.712L387.288 280.887L390.176 278L387.288 275.112L388.113 274.288L391 277.175Z"
    fill="#8A8F99" />
  <rect x="405" y="266" width="51" height="24" rx="4" fill="#F2F1EF" />
  <path
    d="M411.768 274.224H416.736C416.412 273.588 416.016 272.988 415.536 272.424L416.4 272.112C416.856 272.688 417.264 273.396 417.648 274.224H422.232V275.088H420.36C419.772 276.984 418.884 278.58 417.708 279.852C418.98 280.932 420.576 281.82 422.496 282.528L422.028 283.248C420.036 282.504 418.404 281.58 417.108 280.464C415.74 281.724 414.036 282.648 411.996 283.236L411.54 282.48C413.556 281.94 415.212 281.088 416.508 279.912C415.116 278.544 414.156 276.936 413.616 275.088H411.768V274.224ZM414.468 275.088C414.984 276.708 415.86 278.112 417.108 279.312C418.176 278.148 418.956 276.744 419.46 275.088H414.468ZM423.864 274.404H428.556V272.232H429.444V274.404H434.124V275.232H430.212C431.016 277.14 432.456 278.844 434.52 280.344L433.932 281.088C431.82 279.36 430.356 277.404 429.54 275.232H429.444V279.912H432.012V280.74H429.444V283.2H428.556V280.74H426.084V279.912H428.556V275.232H428.472C427.584 277.668 426.072 279.672 423.936 281.244L423.444 280.44C425.46 279.096 426.9 277.356 427.788 275.232H423.864V274.404Z"
    fill="#292C33" />
  <path
    d="M446 277.175L448.888 274.288L449.713 275.112L446.825 278L449.713 280.887L448.888 281.712L446 278.825L443.113 281.712L442.288 280.887L445.176 278L442.288 275.112L443.113 274.288L446 277.175Z"
    fill="#8A8F99" />
  <rect x="460" y="266" width="119" height="24" rx="4" fill="#F2F1EF" />
  <path
    d="M466.768 274.224H471.736C471.412 273.588 471.016 272.988 470.536 272.424L471.4 272.112C471.856 272.688 472.264 273.396 472.648 274.224H477.232V275.088H475.36C474.772 276.984 473.884 278.58 472.708 279.852C473.98 280.932 475.576 281.82 477.496 282.528L477.028 283.248C475.036 282.504 473.404 281.58 472.108 280.464C470.74 281.724 469.036 282.648 466.996 283.236L466.54 282.48C468.556 281.94 470.212 281.088 471.508 279.912C470.116 278.544 469.156 276.936 468.616 275.088H466.768V274.224ZM469.468 275.088C469.984 276.708 470.86 278.112 472.108 279.312C473.176 278.148 473.956 276.744 474.46 275.088H469.468ZM478.864 274.404H483.556V272.232H484.444V274.404H489.124V275.232H485.212C486.016 277.14 487.456 278.844 489.52 280.344L488.932 281.088C486.82 279.36 485.356 277.404 484.54 275.232H484.444V279.912H487.012V280.74H484.444V283.2H483.556V280.74H481.084V279.912H483.556V275.232H483.472C482.584 277.668 481.072 279.672 478.936 281.244L478.444 280.44C480.46 279.096 481.9 277.356 482.788 275.232H478.864V274.404ZM497.824 272.196H498.688V273.48H500.908V274.26H498.688V275.664H501.436V276.48H495.052V275.664H497.824V274.26H495.712V273.48H497.824V272.196ZM495.34 277.896H499.18V277.116H500.02V277.896H501.34V278.712H500.02V282.096C500.02 282.768 499.696 283.116 499.072 283.116H497.548L497.368 282.3C497.848 282.336 498.316 282.36 498.772 282.36C499.036 282.36 499.18 282.192 499.18 281.88V278.712H495.34V277.896ZM496.228 279.264C496.852 279.96 497.332 280.56 497.668 281.088L496.984 281.568C496.636 280.992 496.156 280.368 495.556 279.684L496.228 279.264ZM491.692 275.544C491.572 276.156 491.428 276.744 491.26 277.308L490.504 277.092C490.876 275.844 491.092 274.536 491.14 273.156L491.932 273.216C491.908 273.732 491.872 274.224 491.812 274.704H492.82V272.208H493.648V274.704H494.74V275.544H493.648V278.424C494.032 278.268 494.404 278.112 494.776 277.944V278.76C494.392 278.928 494.02 279.084 493.648 279.228V283.2H492.82V279.54C492.148 279.768 491.452 279.972 490.756 280.164L490.552 279.324C491.32 279.168 492.076 278.964 492.82 278.724V275.544H491.692ZM505.072 276.492H503.164V272.676H508.264V276.492H505.912C505.888 277.02 505.852 277.5 505.804 277.956H508.384C508.384 280.044 508.324 281.328 508.204 281.832C508.084 282.624 507.508 283.032 506.464 283.032C506.296 283.032 506.032 283.02 505.648 282.996L505.444 282.228C505.792 282.252 506.092 282.276 506.344 282.276C506.944 282.276 507.304 282.012 507.4 281.496C507.472 281.196 507.508 280.284 507.532 278.76H505.696C505.564 279.504 505.408 280.104 505.216 280.56C504.772 281.568 504.04 282.444 503.02 283.176L502.468 282.492C503.392 281.856 504.052 281.1 504.436 280.212C504.604 279.828 504.736 279.336 504.844 278.76H502.708V277.956H504.952C505 277.5 505.048 277.02 505.072 276.492ZM509.62 273.252H510.46V280.728H509.62V273.252ZM511.852 283.092H510.148L509.956 282.264C510.52 282.3 511.048 282.324 511.552 282.324C511.924 282.324 512.116 282.108 512.116 281.676V272.232H512.98V281.892C512.98 282.684 512.596 283.092 511.852 283.092ZM507.436 275.7V273.456H503.992V275.7H507.436ZM514.732 276.852H517.168V272.256H518.032V276.852H525.304V277.692H521.356C521.86 279.612 523.228 281.112 525.448 282.192L524.944 282.996C522.52 281.712 521.056 279.948 520.528 277.692H518.032V282.036C518.932 281.82 519.832 281.544 520.72 281.208L520.948 282.036C519.772 282.444 518.512 282.792 517.168 283.104L516.892 282.312C517.072 282.216 517.168 282.084 517.168 281.892V277.692H514.732V276.852ZM523.48 272.352L524.068 272.94C523.108 274.02 521.656 274.992 519.736 275.856L519.22 275.172C521.128 274.332 522.544 273.396 523.48 272.352ZM533.824 272.196H534.688V273.48H536.908V274.26H534.688V275.664H537.436V276.48H531.052V275.664H533.824V274.26H531.712V273.48H533.824V272.196ZM531.34 277.896H535.18V277.116H536.02V277.896H537.34V278.712H536.02V282.096C536.02 282.768 535.696 283.116 535.072 283.116H533.548L533.368 282.3C533.848 282.336 534.316 282.36 534.772 282.36C535.036 282.36 535.18 282.192 535.18 281.88V278.712H531.34V277.896ZM532.228 279.264C532.852 279.96 533.332 280.56 533.668 281.088L532.984 281.568C532.636 280.992 532.156 280.368 531.556 279.684L532.228 279.264ZM527.692 275.544C527.572 276.156 527.428 276.744 527.26 277.308L526.504 277.092C526.876 275.844 527.092 274.536 527.14 273.156L527.932 273.216C527.908 273.732 527.872 274.224 527.812 274.704H528.82V272.208H529.648V274.704H530.74V275.544H529.648V278.424C530.032 278.268 530.404 278.112 530.776 277.944V278.76C530.392 278.928 530.02 279.084 529.648 279.228V283.2H528.82V279.54C528.148 279.768 527.452 279.972 526.756 280.164L526.552 279.324C527.32 279.168 528.076 278.964 528.82 278.724V275.544H527.692ZM539.992 280.572C540.208 280.572 540.376 280.632 540.52 280.776C540.652 280.908 540.724 281.076 540.724 281.28C540.724 281.496 540.652 281.664 540.52 281.796C540.376 281.928 540.196 282 539.992 282C539.788 282 539.62 281.928 539.488 281.796C539.344 281.652 539.272 281.484 539.272 281.28C539.272 281.076 539.344 280.908 539.488 280.776C539.62 280.632 539.788 280.572 539.992 280.572ZM544 280.572C544.204 280.572 544.384 280.632 544.528 280.776C544.66 280.908 544.732 281.076 544.732 281.28C544.732 281.496 544.66 281.664 544.528 281.796C544.384 281.928 544.204 282 544 282C543.796 282 543.628 281.928 543.484 281.796C543.34 281.652 543.28 281.484 543.28 281.28C543.28 281.076 543.34 280.908 543.484 280.776C543.628 280.632 543.796 280.572 544 280.572ZM547.996 280.572C548.2 280.572 548.368 280.632 548.512 280.776C548.656 280.908 548.728 281.076 548.728 281.28C548.728 281.496 548.656 281.664 548.512 281.796C548.368 281.928 548.2 282 547.996 282C547.792 282 547.624 281.928 547.48 281.796C547.336 281.652 547.276 281.484 547.276 281.28C547.276 281.076 547.336 280.908 547.48 280.776C547.624 280.632 547.792 280.572 547.996 280.572Z"
    fill="#292C33" />
  <path
    d="M569 277.175L571.888 274.288L572.713 275.112L569.825 278L572.713 280.887L571.888 281.712L569 278.825L566.113 281.712L565.288 280.887L568.176 278L565.288 275.112L566.113 274.288L569 277.175Z"
    fill="#8A8F99" />
  <rect x="583" y="266" width="27" height="24" rx="4" fill="#F2F1EF" />
  <path
    d="M592.228 281.12V278.636H589.744V277.592H592.228V275.12H593.272V277.592H595.744V278.636H593.272V281.12H592.228ZM597.136 282.5V281.684L599.608 279.008C600.096 278.488 600.484 278.06 600.772 277.724C601.068 277.388 601.284 277.088 601.42 276.824C601.556 276.56 601.624 276.28 601.624 275.984C601.624 275.496 601.48 275.12 601.192 274.856C600.904 274.592 600.524 274.46 600.052 274.46C599.572 274.46 599.164 274.6 598.828 274.88C598.492 275.152 598.26 275.54 598.132 276.044L597.064 275.768C597.168 275.288 597.36 274.872 597.64 274.52C597.92 274.168 598.268 273.896 598.684 273.704C599.1 273.512 599.556 273.416 600.052 273.416C600.596 273.416 601.072 273.524 601.48 273.74C601.896 273.948 602.22 274.24 602.452 274.616C602.692 274.992 602.812 275.428 602.812 275.924C602.812 276.252 602.744 276.572 602.608 276.884C602.472 277.196 602.272 277.528 602.008 277.88C601.744 278.224 601.4 278.624 600.976 279.08L598.768 281.48H603.004V282.5H597.136Z"
    fill="#292C33" />
  <path d="M628 278.781L631.3 275.481L632.243 276.424L628 280.667L623.758 276.424L624.7 275.481L628 278.781Z"
    fill="#C3C6CD" />
  <rect x="344.5" y="260.5" width="299" height="35" rx="3.5" stroke="#E8E7E6" />
  <rect x="20.75" y="320.75" width="298.5" height="34.5" rx="3.25" fill="#FCFBF9" />
  <path
    d="M47.75 336.125V338.375C47.75 340.239 44.7275 341.75 41 341.75C37.2725 341.75 34.25 340.239 34.25 338.375V336.125C34.25 337.989 37.2725 339.5 41 339.5C44.7275 339.5 47.75 337.989 47.75 336.125ZM34.25 339.875C34.25 341.739 37.2725 343.25 41 343.25C44.7275 343.25 47.75 341.739 47.75 339.875V342.125C47.75 343.989 44.7275 345.5 41 345.5C37.2725 345.5 34.25 343.989 34.25 342.125V339.875ZM41 338C37.2725 338 34.25 336.489 34.25 334.625C34.25 332.761 37.2725 331.25 41 331.25C44.7275 331.25 47.75 332.761 47.75 334.625C47.75 336.489 44.7275 338 41 338Z"
    fill="#4583FF" />
  <path
    d="M68.596 331.562H69.562V332.472H73.034V333.298H69.562V334.236H72.53V335.048H69.562V336H73.384V336.84H64.816V336H68.596V335.048H65.768V334.236H68.596V333.298H65.208V332.472H68.596V331.562ZM66.846 340.368V341.39H71.368V340.368H66.846ZM71.368 339.584V338.548H66.846V339.584H71.368ZM66.846 342.174V344.4H65.88V337.722H72.334V343.182C72.334 343.938 71.928 344.316 71.144 344.316H69.968L69.73 343.42L70.85 343.462C71.186 343.462 71.368 343.294 71.368 342.972V342.174H66.846ZM62.282 331.716C63.22 332.416 64.004 333.13 64.648 333.844L63.962 334.544C63.374 333.872 62.576 333.158 61.568 332.402L62.282 331.716ZM60.588 335.846H63.556V341.992C63.976 341.6 64.41 341.166 64.886 340.676L65.152 341.74C64.368 342.552 63.528 343.28 62.66 343.91L62.268 343.014C62.478 342.818 62.59 342.608 62.59 342.37V336.812H60.588V335.846ZM75.764 331.786C76.702 332.514 77.486 333.242 78.13 333.97L77.43 334.67C76.856 333.97 76.072 333.228 75.078 332.444L75.764 331.786ZM83.898 344.148C83.142 344.148 82.302 344.134 81.406 344.12C80.51 344.106 79.768 344.022 79.208 343.868C78.662 343.7 78.172 343.35 77.738 342.846C77.542 342.608 77.36 342.496 77.192 342.496C76.842 342.496 76.282 343.14 75.498 344.456L74.742 343.77C75.498 342.58 76.156 341.852 76.744 341.6V337.344H74.756V336.42H77.682V341.656C77.794 341.74 77.906 341.852 78.018 341.978C78.354 342.384 78.718 342.678 79.11 342.86C79.544 343.056 80.174 343.168 81.014 343.196C81.742 343.21 82.666 343.224 83.758 343.224C84.43 343.224 85.116 343.21 85.816 343.196C86.488 343.182 87.02 343.168 87.398 343.14L87.146 344.148H83.898ZM82.694 331.52H83.674V333.312H86.474V334.278H83.674V336.28H86.964V337.26H84.612V341.012C84.612 341.264 84.752 341.404 85.06 341.404H85.564C85.76 341.404 85.9 341.362 86.012 341.278C86.18 341.152 86.292 340.592 86.348 339.598L87.23 339.892C87.146 341.054 86.992 341.74 86.782 341.964C86.586 342.16 86.25 342.272 85.774 342.286H84.766C84.402 342.286 84.136 342.188 83.954 341.992C83.758 341.796 83.674 341.544 83.674 341.236V337.26H82.26C82.218 338.226 82.078 339.066 81.84 339.766C81.476 340.83 80.622 341.712 79.306 342.398L78.648 341.6C79.782 341.04 80.524 340.34 80.888 339.5C81.126 338.884 81.266 338.128 81.308 337.26H79.054V336.28H82.694V334.278H80.426C80.174 334.81 79.894 335.286 79.586 335.734L78.704 335.188C79.46 334.138 80.006 332.976 80.342 331.716L81.308 331.912C81.168 332.402 81.014 332.864 80.846 333.312H82.694V331.52ZM93.782 332.122H100.418V332.962C100.012 334.054 99.284 334.964 98.22 335.72C99.116 336.14 100.208 336.434 101.482 336.602L101.118 337.498C99.578 337.288 98.29 336.882 97.282 336.294C96.302 336.826 95.126 337.246 93.768 337.582L93.292 336.728C94.482 336.448 95.518 336.112 96.386 335.692C95.504 334.978 94.874 334.096 94.482 333.032H93.782V332.122ZM95.476 333.032C95.854 333.9 96.456 334.628 97.282 335.188C98.234 334.586 98.92 333.872 99.354 333.032H95.476ZM90.268 344.274H89.05L88.84 343.294C89.204 343.322 89.568 343.35 89.918 343.35C90.282 343.35 90.478 343.154 90.478 342.79V339.43C89.918 339.626 89.358 339.808 88.798 339.976L88.546 338.968C89.204 338.814 89.848 338.632 90.478 338.422V335.216H88.77V334.25H90.478V331.604H91.514V334.25H93.082V335.216H91.514V338.044C92.046 337.82 92.578 337.568 93.11 337.302V338.324C92.592 338.576 92.06 338.814 91.514 339.038V343.056C91.514 343.868 91.094 344.274 90.268 344.274ZM94.02 338.59H96.82V337.358H97.8V338.59H100.558V339.514H97.8V341.11H101.272V342.048H97.8V344.26H96.82V342.048H93.306V341.11H96.82V339.514H94.02V338.59Z"
    fill="#292C33" />
  <path d="M304 338.781L307.3 335.481L308.243 336.424L304 340.667L299.758 336.424L300.7 335.481L304 338.781Z"
    fill="#C3C6CD" />
  <path
    d="M24.248 363.828H27.08C26.924 363.288 26.756 362.796 26.588 362.34L27.752 362.148C27.92 362.64 28.088 363.204 28.244 363.828H31.184V364.92H30.2C29.864 366.168 29.396 367.26 28.796 368.184C29.684 368.952 30.476 369.708 31.196 370.464L30.308 371.352C29.684 370.608 28.952 369.852 28.112 369.084C27.188 370.128 26.036 370.896 24.656 371.376L24.02 370.344C25.34 369.924 26.432 369.252 27.272 368.34C26.48 367.656 25.628 366.972 24.704 366.276L25.472 365.532C26.36 366.18 27.176 366.816 27.944 367.452C28.424 366.708 28.808 365.868 29.072 364.92H24.248V363.828ZM21.632 362.28C22.424 362.904 23.108 363.528 23.66 364.14L22.844 364.956C22.364 364.356 21.704 363.72 20.84 363.036L21.632 362.28ZM28.508 373.032C27.86 373.032 27.152 373.02 26.396 373.008C25.628 372.996 25.004 372.924 24.512 372.804C24.032 372.66 23.624 372.372 23.264 371.964C23.108 371.76 22.964 371.664 22.82 371.664C22.58 371.664 22.148 372.204 21.536 373.284L20.696 372.504C21.296 371.532 21.836 370.92 22.316 370.68V367.284H20.696V366.228H23.384V370.776C23.432 370.824 23.492 370.872 23.552 370.944C23.816 371.268 24.104 371.508 24.404 371.664C24.752 371.832 25.268 371.94 25.964 371.964C26.636 371.976 27.428 371.988 28.352 371.988C28.928 371.988 29.528 371.976 30.14 371.964C30.74 371.952 31.208 371.928 31.532 371.904L31.256 373.032H28.508ZM34.796 365.976V367.284H37.424V365.976H34.796ZM37.424 368.328H33.68V362.532H42.296V368.328H38.576V369.492H42.812V370.572H38.576V371.784H43.316V372.888H32.672V371.784H37.424V370.572H33.188V369.492H37.424V368.328ZM38.576 367.284H41.18V365.976H38.576V367.284ZM41.18 364.92V363.588H38.576V364.92H41.18ZM37.424 363.588H34.796V364.92H37.424V363.588ZM46.304 362.52H53.756V366.852H46.304V362.52ZM52.628 365.88V365.136H47.432V365.88H52.628ZM47.432 364.236H52.628V363.492H47.432V364.236ZM49.568 368.58H44.66V367.548H55.352V368.58H50.708V369.696H54.068V370.704H50.708V371.988C51.26 372.036 51.908 372.06 52.628 372.06C53.684 372.06 54.584 372.036 55.304 372.012L54.992 373.08C54.152 373.08 53.384 373.068 52.712 373.056C50.72 373.044 49.364 372.888 48.632 372.6C48.056 372.348 47.528 371.868 47.06 371.16C46.604 371.976 46.028 372.672 45.332 373.224L44.588 372.288C45.668 371.436 46.412 370.296 46.796 368.88L47.876 369.06C47.756 369.492 47.624 369.888 47.48 370.272C47.96 371.016 48.488 371.484 49.088 371.688C49.232 371.736 49.388 371.772 49.568 371.82V368.58ZM60.68 366.852V367.98C60.248 368.196 59.828 368.388 59.396 368.568V372C59.396 372.792 59.012 373.2 58.244 373.2H57.116L56.852 372.108C57.2 372.156 57.524 372.18 57.836 372.18C58.124 372.18 58.28 372.024 58.28 371.724V369.012C57.752 369.204 57.224 369.384 56.696 369.552L56.408 368.424C57.044 368.28 57.668 368.112 58.28 367.896V365.364H56.636V364.272H58.28V362.196H59.396V364.272H60.644V365.364H59.396V367.464C59.828 367.272 60.26 367.068 60.68 366.852ZM62.252 367.908V373.236H61.172V362.58H66.704C66.704 363.996 66.62 364.932 66.476 365.4C66.32 365.856 65.84 366.084 65.036 366.084H64.136L63.824 365.1C64.004 365.1 64.232 365.112 64.52 365.112C64.796 365.112 65.012 365.1 65.156 365.076C65.276 365.04 65.384 364.956 65.456 364.836C65.54 364.656 65.588 364.248 65.612 363.612H62.252V366.864H66.788V367.848C66.596 369.084 66.212 370.14 65.636 371.004C66.188 371.508 66.836 371.964 67.604 372.372L66.836 373.26C66.116 372.804 65.504 372.336 64.988 371.832C64.436 372.42 63.764 372.9 62.996 373.272L62.444 372.276C63.14 371.94 63.728 371.508 64.208 370.98C63.44 370.032 62.972 369.012 62.78 367.908H62.252ZM63.8 367.908C63.956 368.724 64.304 369.468 64.844 370.152C65.24 369.504 65.528 368.748 65.72 367.908H63.8ZM73.208 363.408H74.408V362.124H75.488V363.408H76.964V362.124H78.044V363.408H79.304V364.428H78.044V365.7H79.58V366.756H72.896V365.7H74.408V364.428H73.208V363.408ZM75.488 365.7H76.964V364.428H75.488V365.7ZM78.848 367.5V373.26H77.768V372.732H74.768V373.248H73.688V367.5H78.848ZM74.768 371.7H77.768V370.584H74.768V371.7ZM74.768 369.576H77.768V368.508H74.768V369.576ZM69.944 362.184L71.048 362.412C70.952 362.76 70.856 363.096 70.76 363.42H72.824V364.512H70.376C70.184 364.992 69.968 365.448 69.752 365.856H72.608V366.876H71.456V368.1H73.016V369.156H71.456V371.64C71.972 371.448 72.488 371.196 73.004 370.884L73.208 371.88C72.392 372.312 71.444 372.672 70.388 372.96L69.908 371.988C70.196 371.88 70.34 371.724 70.34 371.532V369.156H68.792V368.1H70.34V366.876H69.716V365.916C69.572 366.18 69.416 366.432 69.272 366.672L68.348 366.084C69.092 364.884 69.632 363.576 69.944 362.184ZM81.716 366.912C81.404 367.32 81.08 367.728 80.72 368.136L80.348 366.912C81.452 365.52 82.28 363.888 82.82 362.04L83.888 362.544C83.612 363.432 83.264 364.296 82.832 365.124V373.26H81.716V366.912ZM83.672 363.612H87.188C87.032 363.204 86.852 362.808 86.648 362.424L87.74 362.124C87.992 362.664 88.184 363.156 88.316 363.612H91.556V364.68H83.672V363.612ZM84.764 365.412H90.536V366.432H84.764V365.412ZM84.764 367.104H90.536V368.136H84.764V367.104ZM90.788 368.892V373.236H89.684V372.612H85.604V373.236H84.5V368.892H90.788ZM85.604 371.544H89.684V369.948H85.604V371.544ZM94.208 362.976H96.86C97.004 362.676 97.112 362.376 97.196 362.064L98.384 362.22C98.312 362.484 98.204 362.736 98.084 362.976H101.888V369.036H94.208V362.976ZM100.784 368.064V367.284H95.312V368.064H100.784ZM95.312 366.372H100.784V365.616H95.312V366.372ZM95.312 364.716H100.784V363.948H95.312V364.716ZM93.56 369.732L94.64 369.948C94.352 371.064 93.968 372.024 93.464 372.84L92.504 372.228C93.008 371.46 93.356 370.62 93.56 369.732ZM99.536 373.056H96.488C95.696 373.056 95.3 372.672 95.3 371.904V369.708H96.452V371.664C96.452 371.904 96.572 372.036 96.812 372.036H99.32C99.548 372.036 99.704 371.976 99.788 371.856C99.92 371.712 100.004 371.292 100.04 370.584L101.132 370.932C101.036 371.952 100.856 372.564 100.604 372.78C100.364 372.96 100.016 373.056 99.536 373.056ZM98.06 369.24C98.648 369.84 99.104 370.356 99.416 370.812L98.564 371.412C98.228 370.908 97.784 370.356 97.22 369.756L98.06 369.24ZM101.9 369.492C102.62 370.428 103.16 371.256 103.544 371.952L102.644 372.588C102.236 371.82 101.696 370.98 101.012 370.044L101.9 369.492ZM106.304 370.284C106.616 370.284 106.868 370.404 107.084 370.656C107.276 370.92 107.384 371.244 107.384 371.652C107.384 372.264 107.204 372.792 106.844 373.248C106.484 373.704 106.004 374.016 105.404 374.184V373.44C105.728 373.32 106.004 373.14 106.22 372.876C106.424 372.6 106.52 372.324 106.52 372.036C106.448 372.06 106.352 372.072 106.232 372.072C105.98 372.072 105.776 371.988 105.608 371.82C105.44 371.652 105.356 371.436 105.356 371.184C105.356 370.908 105.44 370.692 105.62 370.524C105.788 370.356 106.016 370.284 106.304 370.284ZM116.708 364.092H121.544C121.232 363.516 120.848 362.976 120.392 362.46L121.532 362.04C121.964 362.616 122.372 363.3 122.744 364.092H127.292V365.22H125.456C124.88 367.044 124.028 368.568 122.9 369.804C124.148 370.824 125.708 371.676 127.556 372.348L126.92 373.308C124.988 372.588 123.38 371.688 122.108 370.608C120.752 371.808 119.084 372.696 117.104 373.272L116.492 372.264C118.436 371.76 120.032 370.968 121.304 369.876C119.984 368.556 119.06 366.996 118.544 365.22H116.708V364.092ZM119.636 365.22C120.14 366.696 120.956 367.992 122.096 369.096C123.068 368.028 123.8 366.732 124.28 365.22H119.636ZM133.136 364.104L134.168 364.404C133.988 364.632 133.82 364.848 133.652 365.04H138.812V365.952H136.844C136.472 366.432 136.076 366.828 135.668 367.14C136.664 367.392 137.684 367.68 138.728 368.016L138.068 368.88C136.904 368.472 135.728 368.1 134.552 367.788C133.292 368.364 131.66 368.664 129.668 368.7L129.044 367.764C130.724 367.764 132.056 367.632 133.016 367.392C132.26 367.212 131.504 367.056 130.76 366.912C131.06 366.588 131.348 366.264 131.636 365.952H129.212V365.04H132.404C132.656 364.728 132.896 364.416 133.136 364.104ZM134.408 366.84C134.864 366.576 135.26 366.276 135.572 365.952H132.884L132.428 366.444C133.076 366.552 133.736 366.684 134.408 366.84ZM138.884 363.036V364.836H137.828V363.984H130.172V364.836H129.116V363.036H133.424C133.28 362.772 133.124 362.52 132.956 362.28L134.144 362.088C134.288 362.376 134.42 362.688 134.564 363.036H138.884ZM128.828 369.228H133.448V368.364H134.6V369.228H139.184V370.212H135.56C136.412 370.932 137.684 371.52 139.364 371.952L138.872 372.948C136.928 372.276 135.512 371.424 134.6 370.368V373.2H133.448V370.344C132.632 371.376 131.24 372.264 129.248 373.032L128.624 372.024C130.448 371.472 131.732 370.872 132.476 370.212H128.828V369.228ZM147.44 367.896H146.288V371.652C146.936 371.472 147.584 371.244 148.232 370.968L148.484 371.988C147.584 372.36 146.444 372.72 145.076 373.068L144.812 372.072C145.052 371.976 145.184 371.844 145.184 371.652V362.556H150.644V367.896H148.448C148.58 368.532 148.796 369.108 149.084 369.636C149.624 369.324 150.14 368.892 150.62 368.316L151.34 369.048C150.836 369.648 150.26 370.116 149.624 370.452C150.14 371.1 150.8 371.664 151.616 372.144L150.98 373.152C149.012 371.856 147.836 370.104 147.44 367.896ZM140.684 364.416H142.184V362.184H143.3V364.416H144.644V365.508H143.3V366.06C143.816 366.636 144.344 367.272 144.896 367.992L144.236 368.988C143.876 368.292 143.564 367.704 143.3 367.224V373.176H142.184V367.704C141.836 368.7 141.404 369.612 140.888 370.452L140.396 369.216C141.2 368.136 141.788 366.9 142.16 365.508H140.684V364.416ZM146.288 365.748V366.876H149.528V365.748H146.288ZM149.528 364.764V363.588H146.288V364.764H149.528ZM153.98 373.128H152.96L152.72 372.048C153.02 372.096 153.308 372.132 153.596 372.132C153.86 372.132 154.004 371.976 154.004 371.664V369.084C153.572 369.24 153.152 369.384 152.732 369.528L152.444 368.4C152.972 368.28 153.488 368.124 154.004 367.944V365.46H152.66V364.368H154.004V362.196H155.108V364.368H156.164V365.46H155.108V367.512C155.444 367.356 155.792 367.188 156.128 367.008V368.124C155.78 368.292 155.444 368.46 155.108 368.616V371.94C155.108 372.732 154.724 373.128 153.98 373.128ZM157.712 367.92C157.556 369.936 157.1 371.712 156.332 373.248L155.444 372.456C156.248 370.908 156.656 368.916 156.668 366.48V362.568H163.16V365.676H160.976V366.876H163.448V367.92H160.976V369.156H162.908V373.236H161.852V372.72H159.008V373.236H157.952V369.156H159.872V367.92H157.712ZM159.872 365.676H157.772V366.48C157.772 366.612 157.76 366.744 157.76 366.876H159.872V365.676ZM159.008 371.712H161.852V370.164H159.008V371.712ZM162.056 363.612H157.772V364.656H162.056V363.612ZM164.84 362.712H175.16V363.828H171.284C171.068 364.284 170.84 364.728 170.588 365.148V373.26H169.412V366.78C168.308 368.064 166.916 369.216 165.224 370.224L164.468 369.228C167.096 367.74 168.944 365.94 170 363.828H164.84V362.712ZM172.1 365.976C173.444 367.032 174.584 368.1 175.508 369.156L174.608 370.056C173.816 369.036 172.712 367.944 171.284 366.768L172.1 365.976ZM185.756 373.188H184.184L183.872 372.048L185.384 372.096C185.648 372.096 185.78 371.928 185.78 371.592V363.66H178.22V373.224H177.08V362.556H186.92V371.844C186.92 372.732 186.524 373.188 185.756 373.188ZM178.94 364.8H185.06V365.856H178.94V364.8ZM179.564 366.948H184.448V370.968H179.564V366.948ZM183.344 369.948V367.968H180.668V369.948H183.344ZM194.576 367.272H192.944V366.228C194.288 365.46 195.524 364.656 196.664 363.804H193.112V362.76H198.356V363.744C197.288 364.644 196.124 365.496 194.876 366.288H199.244C199.16 369.18 199.016 371.028 198.8 371.844C198.584 372.66 198.008 373.068 197.072 373.092C196.676 373.092 196.292 373.08 195.92 373.056L195.608 371.952C196.052 372 196.484 372.024 196.916 372.024C197.324 372.012 197.6 371.82 197.768 371.436C197.912 371.112 198.02 369.72 198.092 367.272H197.48C197.192 368.688 196.772 369.792 196.22 370.608C195.596 371.52 194.66 372.336 193.412 373.056L192.716 372.156C193.82 371.544 194.672 370.86 195.248 370.104C195.752 369.408 196.124 368.46 196.388 367.272H195.656C195.224 368.772 194.468 369.948 193.4 370.788L192.692 369.9C193.568 369.216 194.192 368.34 194.576 367.272ZM188.576 365.388H189.92V362.448H191.072V365.388H192.476V366.48H191.072V370.356C191.552 370.2 192.008 370.032 192.464 369.864V371.052C191.312 371.496 190.064 371.868 188.744 372.168L188.444 370.968C188.948 370.884 189.44 370.788 189.92 370.668V366.48H188.576V365.388ZM202.172 368.04H209.948V370.596H206.72V372.036C206.72 372.804 206.36 373.188 205.664 373.188H204.2L203.96 372.132C204.428 372.18 204.872 372.204 205.292 372.204C205.484 372.204 205.592 372.06 205.592 371.772V370.596H202.172V368.04ZM208.832 369.708V368.916H203.276V369.708H208.832ZM201.932 362.46H210.08V366.072H206.444C206.528 366.24 206.612 366.42 206.684 366.6H211.34V367.548H200.66V366.6H205.448C205.352 366.408 205.244 366.24 205.136 366.072H201.932V362.46ZM208.964 365.184V364.668H203.048V365.184H208.964ZM203.048 363.864H208.964V363.348H203.048V363.864ZM208.124 370.872C209.288 371.148 210.416 371.556 211.496 372.084L211.088 373.128C209.984 372.552 208.844 372.096 207.656 371.772L208.124 370.872ZM203.456 370.788L204.164 371.52C203.372 372.18 202.376 372.72 201.152 373.14L200.516 372.204C201.812 371.82 202.796 371.34 203.456 370.788ZM221.3 364.668C222.164 365.256 222.896 365.844 223.484 366.444L222.692 367.236C222.176 366.66 221.456 366.048 220.544 365.4L221.3 364.668ZM218.276 362.04C218.396 362.364 218.504 362.724 218.612 363.12H223.196V364.224H219.98V367.332H218.852V364.224H217.16V367.332H216.032V364.224H212.804V363.12H217.448C217.328 362.808 217.196 362.508 217.052 362.232L218.276 362.04ZM214.688 364.716L215.528 365.448C214.904 366.108 214.124 366.696 213.212 367.212L212.516 366.3C213.38 365.844 214.1 365.316 214.688 364.716ZM213.62 367.848H221.936V368.712C221.192 369.636 220.292 370.428 219.224 371.076C220.472 371.568 221.924 371.928 223.58 372.144L223.052 373.188C221.132 372.864 219.488 372.36 218.12 371.688C216.692 372.384 215.036 372.888 213.14 373.2L212.612 372.12C214.22 371.892 215.66 371.52 216.92 371.016C215.96 370.392 215.18 369.672 214.556 368.856H213.62V367.848ZM215.84 368.856C216.428 369.504 217.148 370.056 218 370.512C218.888 370.044 219.68 369.492 220.352 368.856H215.84ZM224.804 362.568H235.208V363.636H230.564V364.464H234.236V369.396H230.396C230.264 370.092 230.06 370.656 229.784 371.1C231.44 371.748 233.372 372.096 235.604 372.168L235.316 373.272C232.916 373.164 230.828 372.72 229.052 371.928C228.188 372.6 226.832 373.044 224.972 373.26L224.48 372.216C226.016 372.12 227.168 371.844 227.936 371.376C227.288 371.016 226.7 370.608 226.172 370.164L227.048 369.564C227.564 369.972 228.128 370.32 228.728 370.632C228.944 370.296 229.124 369.876 229.244 369.396H225.8V364.464H229.436V363.636H224.804V362.568ZM233.108 368.4V367.38H230.564V367.668C230.564 367.932 230.552 368.172 230.528 368.4H233.108ZM229.4 368.4C229.424 368.16 229.436 367.908 229.436 367.668V367.38H226.928V368.4H229.4ZM226.928 366.444H229.436V365.436H226.928V366.444ZM230.564 365.436V366.444H233.108V365.436H230.564Z"
    fill="#F66074" />
  <rect x="20.75" y="320.75" width="298.5" height="34.5" rx="3.25" stroke="#F66074" stroke-width="1.5" />
  <rect x="344.75" y="320.75" width="298.5" height="34.5" rx="3.25" fill="#FCFBF9" />
  <path
    d="M364.596 331.562H365.562V332.472H369.034V333.298H365.562V334.236H368.53V335.048H365.562V336H369.384V336.84H360.816V336H364.596V335.048H361.768V334.236H364.596V333.298H361.208V332.472H364.596V331.562ZM362.846 340.368V341.39H367.368V340.368H362.846ZM367.368 339.584V338.548H362.846V339.584H367.368ZM362.846 342.174V344.4H361.88V337.722H368.334V343.182C368.334 343.938 367.928 344.316 367.144 344.316H365.968L365.73 343.42L366.85 343.462C367.186 343.462 367.368 343.294 367.368 342.972V342.174H362.846ZM358.282 331.716C359.22 332.416 360.004 333.13 360.648 333.844L359.962 334.544C359.374 333.872 358.576 333.158 357.568 332.402L358.282 331.716ZM356.588 335.846H359.556V341.992C359.976 341.6 360.41 341.166 360.886 340.676L361.152 341.74C360.368 342.552 359.528 343.28 358.66 343.91L358.268 343.014C358.478 342.818 358.59 342.608 358.59 342.37V336.812H356.588V335.846ZM371.764 331.786C372.702 332.514 373.486 333.242 374.13 333.97L373.43 334.67C372.856 333.97 372.072 333.228 371.078 332.444L371.764 331.786ZM379.898 344.148C379.142 344.148 378.302 344.134 377.406 344.12C376.51 344.106 375.768 344.022 375.208 343.868C374.662 343.7 374.172 343.35 373.738 342.846C373.542 342.608 373.36 342.496 373.192 342.496C372.842 342.496 372.282 343.14 371.498 344.456L370.742 343.77C371.498 342.58 372.156 341.852 372.744 341.6V337.344H370.756V336.42H373.682V341.656C373.794 341.74 373.906 341.852 374.018 341.978C374.354 342.384 374.718 342.678 375.11 342.86C375.544 343.056 376.174 343.168 377.014 343.196C377.742 343.21 378.666 343.224 379.758 343.224C380.43 343.224 381.116 343.21 381.816 343.196C382.488 343.182 383.02 343.168 383.398 343.14L383.146 344.148H379.898ZM378.694 331.52H379.674V333.312H382.474V334.278H379.674V336.28H382.964V337.26H380.612V341.012C380.612 341.264 380.752 341.404 381.06 341.404H381.564C381.76 341.404 381.9 341.362 382.012 341.278C382.18 341.152 382.292 340.592 382.348 339.598L383.23 339.892C383.146 341.054 382.992 341.74 382.782 341.964C382.586 342.16 382.25 342.272 381.774 342.286H380.766C380.402 342.286 380.136 342.188 379.954 341.992C379.758 341.796 379.674 341.544 379.674 341.236V337.26H378.26C378.218 338.226 378.078 339.066 377.84 339.766C377.476 340.83 376.622 341.712 375.306 342.398L374.648 341.6C375.782 341.04 376.524 340.34 376.888 339.5C377.126 338.884 377.266 338.128 377.308 337.26H375.054V336.28H378.694V334.278H376.426C376.174 334.81 375.894 335.286 375.586 335.734L374.704 335.188C375.46 334.138 376.006 332.976 376.342 331.716L377.308 331.912C377.168 332.402 377.014 332.864 376.846 333.312H378.694V331.52ZM389.782 332.122H396.418V332.962C396.012 334.054 395.284 334.964 394.22 335.72C395.116 336.14 396.208 336.434 397.482 336.602L397.118 337.498C395.578 337.288 394.29 336.882 393.282 336.294C392.302 336.826 391.126 337.246 389.768 337.582L389.292 336.728C390.482 336.448 391.518 336.112 392.386 335.692C391.504 334.978 390.874 334.096 390.482 333.032H389.782V332.122ZM391.476 333.032C391.854 333.9 392.456 334.628 393.282 335.188C394.234 334.586 394.92 333.872 395.354 333.032H391.476ZM386.268 344.274H385.05L384.84 343.294C385.204 343.322 385.568 343.35 385.918 343.35C386.282 343.35 386.478 343.154 386.478 342.79V339.43C385.918 339.626 385.358 339.808 384.798 339.976L384.546 338.968C385.204 338.814 385.848 338.632 386.478 338.422V335.216H384.77V334.25H386.478V331.604H387.514V334.25H389.082V335.216H387.514V338.044C388.046 337.82 388.578 337.568 389.11 337.302V338.324C388.592 338.576 388.06 338.814 387.514 339.038V343.056C387.514 343.868 387.094 344.274 386.268 344.274ZM390.02 338.59H392.82V337.358H393.8V338.59H396.558V339.514H393.8V341.11H397.272V342.048H393.8V344.26H392.82V342.048H389.306V341.11H392.82V339.514H390.02V338.59Z"
    fill="#292C33" />
  <path d="M628 338.781L631.3 335.481L632.243 336.424L628 340.667L623.758 336.424L624.7 335.481L628 338.781Z"
    fill="#C3C6CD" />
  <path
    d="M348.248 363.828H351.08C350.924 363.288 350.756 362.796 350.588 362.34L351.752 362.148C351.92 362.64 352.088 363.204 352.244 363.828H355.184V364.92H354.2C353.864 366.168 353.396 367.26 352.796 368.184C353.684 368.952 354.476 369.708 355.196 370.464L354.308 371.352C353.684 370.608 352.952 369.852 352.112 369.084C351.188 370.128 350.036 370.896 348.656 371.376L348.02 370.344C349.34 369.924 350.432 369.252 351.272 368.34C350.48 367.656 349.628 366.972 348.704 366.276L349.472 365.532C350.36 366.18 351.176 366.816 351.944 367.452C352.424 366.708 352.808 365.868 353.072 364.92H348.248V363.828ZM345.632 362.28C346.424 362.904 347.108 363.528 347.66 364.14L346.844 364.956C346.364 364.356 345.704 363.72 344.84 363.036L345.632 362.28ZM352.508 373.032C351.86 373.032 351.152 373.02 350.396 373.008C349.628 372.996 349.004 372.924 348.512 372.804C348.032 372.66 347.624 372.372 347.264 371.964C347.108 371.76 346.964 371.664 346.82 371.664C346.58 371.664 346.148 372.204 345.536 373.284L344.696 372.504C345.296 371.532 345.836 370.92 346.316 370.68V367.284H344.696V366.228H347.384V370.776C347.432 370.824 347.492 370.872 347.552 370.944C347.816 371.268 348.104 371.508 348.404 371.664C348.752 371.832 349.268 371.94 349.964 371.964C350.636 371.976 351.428 371.988 352.352 371.988C352.928 371.988 353.528 371.976 354.14 371.964C354.74 371.952 355.208 371.928 355.532 371.904L355.256 373.032H352.508ZM358.796 365.976V367.284H361.424V365.976H358.796ZM361.424 368.328H357.68V362.532H366.296V368.328H362.576V369.492H366.812V370.572H362.576V371.784H367.316V372.888H356.672V371.784H361.424V370.572H357.188V369.492H361.424V368.328ZM362.576 367.284H365.18V365.976H362.576V367.284ZM365.18 364.92V363.588H362.576V364.92H365.18ZM361.424 363.588H358.796V364.92H361.424V363.588ZM370.304 362.52H377.756V366.852H370.304V362.52ZM376.628 365.88V365.136H371.432V365.88H376.628ZM371.432 364.236H376.628V363.492H371.432V364.236ZM373.568 368.58H368.66V367.548H379.352V368.58H374.708V369.696H378.068V370.704H374.708V371.988C375.26 372.036 375.908 372.06 376.628 372.06C377.684 372.06 378.584 372.036 379.304 372.012L378.992 373.08C378.152 373.08 377.384 373.068 376.712 373.056C374.72 373.044 373.364 372.888 372.632 372.6C372.056 372.348 371.528 371.868 371.06 371.16C370.604 371.976 370.028 372.672 369.332 373.224L368.588 372.288C369.668 371.436 370.412 370.296 370.796 368.88L371.876 369.06C371.756 369.492 371.624 369.888 371.48 370.272C371.96 371.016 372.488 371.484 373.088 371.688C373.232 371.736 373.388 371.772 373.568 371.82V368.58ZM384.68 366.852V367.98C384.248 368.196 383.828 368.388 383.396 368.568V372C383.396 372.792 383.012 373.2 382.244 373.2H381.116L380.852 372.108C381.2 372.156 381.524 372.18 381.836 372.18C382.124 372.18 382.28 372.024 382.28 371.724V369.012C381.752 369.204 381.224 369.384 380.696 369.552L380.408 368.424C381.044 368.28 381.668 368.112 382.28 367.896V365.364H380.636V364.272H382.28V362.196H383.396V364.272H384.644V365.364H383.396V367.464C383.828 367.272 384.26 367.068 384.68 366.852ZM386.252 367.908V373.236H385.172V362.58H390.704C390.704 363.996 390.62 364.932 390.476 365.4C390.32 365.856 389.84 366.084 389.036 366.084H388.136L387.824 365.1C388.004 365.1 388.232 365.112 388.52 365.112C388.796 365.112 389.012 365.1 389.156 365.076C389.276 365.04 389.384 364.956 389.456 364.836C389.54 364.656 389.588 364.248 389.612 363.612H386.252V366.864H390.788V367.848C390.596 369.084 390.212 370.14 389.636 371.004C390.188 371.508 390.836 371.964 391.604 372.372L390.836 373.26C390.116 372.804 389.504 372.336 388.988 371.832C388.436 372.42 387.764 372.9 386.996 373.272L386.444 372.276C387.14 371.94 387.728 371.508 388.208 370.98C387.44 370.032 386.972 369.012 386.78 367.908H386.252ZM387.8 367.908C387.956 368.724 388.304 369.468 388.844 370.152C389.24 369.504 389.528 368.748 389.72 367.908H387.8ZM397.208 363.408H398.408V362.124H399.488V363.408H400.964V362.124H402.044V363.408H403.304V364.428H402.044V365.7H403.58V366.756H396.896V365.7H398.408V364.428H397.208V363.408ZM399.488 365.7H400.964V364.428H399.488V365.7ZM402.848 367.5V373.26H401.768V372.732H398.768V373.248H397.688V367.5H402.848ZM398.768 371.7H401.768V370.584H398.768V371.7ZM398.768 369.576H401.768V368.508H398.768V369.576ZM393.944 362.184L395.048 362.412C394.952 362.76 394.856 363.096 394.76 363.42H396.824V364.512H394.376C394.184 364.992 393.968 365.448 393.752 365.856H396.608V366.876H395.456V368.1H397.016V369.156H395.456V371.64C395.972 371.448 396.488 371.196 397.004 370.884L397.208 371.88C396.392 372.312 395.444 372.672 394.388 372.96L393.908 371.988C394.196 371.88 394.34 371.724 394.34 371.532V369.156H392.792V368.1H394.34V366.876H393.716V365.916C393.572 366.18 393.416 366.432 393.272 366.672L392.348 366.084C393.092 364.884 393.632 363.576 393.944 362.184ZM405.716 366.912C405.404 367.32 405.08 367.728 404.72 368.136L404.348 366.912C405.452 365.52 406.28 363.888 406.82 362.04L407.888 362.544C407.612 363.432 407.264 364.296 406.832 365.124V373.26H405.716V366.912ZM407.672 363.612H411.188C411.032 363.204 410.852 362.808 410.648 362.424L411.74 362.124C411.992 362.664 412.184 363.156 412.316 363.612H415.556V364.68H407.672V363.612ZM408.764 365.412H414.536V366.432H408.764V365.412ZM408.764 367.104H414.536V368.136H408.764V367.104ZM414.788 368.892V373.236H413.684V372.612H409.604V373.236H408.5V368.892H414.788ZM409.604 371.544H413.684V369.948H409.604V371.544ZM418.208 362.976H420.86C421.004 362.676 421.112 362.376 421.196 362.064L422.384 362.22C422.312 362.484 422.204 362.736 422.084 362.976H425.888V369.036H418.208V362.976ZM424.784 368.064V367.284H419.312V368.064H424.784ZM419.312 366.372H424.784V365.616H419.312V366.372ZM419.312 364.716H424.784V363.948H419.312V364.716ZM417.56 369.732L418.64 369.948C418.352 371.064 417.968 372.024 417.464 372.84L416.504 372.228C417.008 371.46 417.356 370.62 417.56 369.732ZM423.536 373.056H420.488C419.696 373.056 419.3 372.672 419.3 371.904V369.708H420.452V371.664C420.452 371.904 420.572 372.036 420.812 372.036H423.32C423.548 372.036 423.704 371.976 423.788 371.856C423.92 371.712 424.004 371.292 424.04 370.584L425.132 370.932C425.036 371.952 424.856 372.564 424.604 372.78C424.364 372.96 424.016 373.056 423.536 373.056ZM422.06 369.24C422.648 369.84 423.104 370.356 423.416 370.812L422.564 371.412C422.228 370.908 421.784 370.356 421.22 369.756L422.06 369.24ZM425.9 369.492C426.62 370.428 427.16 371.256 427.544 371.952L426.644 372.588C426.236 371.82 425.696 370.98 425.012 370.044L425.9 369.492ZM430.304 370.284C430.616 370.284 430.868 370.404 431.084 370.656C431.276 370.92 431.384 371.244 431.384 371.652C431.384 372.264 431.204 372.792 430.844 373.248C430.484 373.704 430.004 374.016 429.404 374.184V373.44C429.728 373.32 430.004 373.14 430.22 372.876C430.424 372.6 430.52 372.324 430.52 372.036C430.448 372.06 430.352 372.072 430.232 372.072C429.98 372.072 429.776 371.988 429.608 371.82C429.44 371.652 429.356 371.436 429.356 371.184C429.356 370.908 429.44 370.692 429.62 370.524C429.788 370.356 430.016 370.284 430.304 370.284ZM440.708 364.092H445.544C445.232 363.516 444.848 362.976 444.392 362.46L445.532 362.04C445.964 362.616 446.372 363.3 446.744 364.092H451.292V365.22H449.456C448.88 367.044 448.028 368.568 446.9 369.804C448.148 370.824 449.708 371.676 451.556 372.348L450.92 373.308C448.988 372.588 447.38 371.688 446.108 370.608C444.752 371.808 443.084 372.696 441.104 373.272L440.492 372.264C442.436 371.76 444.032 370.968 445.304 369.876C443.984 368.556 443.06 366.996 442.544 365.22H440.708V364.092ZM443.636 365.22C444.14 366.696 444.956 367.992 446.096 369.096C447.068 368.028 447.8 366.732 448.28 365.22H443.636ZM457.136 364.104L458.168 364.404C457.988 364.632 457.82 364.848 457.652 365.04H462.812V365.952H460.844C460.472 366.432 460.076 366.828 459.668 367.14C460.664 367.392 461.684 367.68 462.728 368.016L462.068 368.88C460.904 368.472 459.728 368.1 458.552 367.788C457.292 368.364 455.66 368.664 453.668 368.7L453.044 367.764C454.724 367.764 456.056 367.632 457.016 367.392C456.26 367.212 455.504 367.056 454.76 366.912C455.06 366.588 455.348 366.264 455.636 365.952H453.212V365.04H456.404C456.656 364.728 456.896 364.416 457.136 364.104ZM458.408 366.84C458.864 366.576 459.26 366.276 459.572 365.952H456.884L456.428 366.444C457.076 366.552 457.736 366.684 458.408 366.84ZM462.884 363.036V364.836H461.828V363.984H454.172V364.836H453.116V363.036H457.424C457.28 362.772 457.124 362.52 456.956 362.28L458.144 362.088C458.288 362.376 458.42 362.688 458.564 363.036H462.884ZM452.828 369.228H457.448V368.364H458.6V369.228H463.184V370.212H459.56C460.412 370.932 461.684 371.52 463.364 371.952L462.872 372.948C460.928 372.276 459.512 371.424 458.6 370.368V373.2H457.448V370.344C456.632 371.376 455.24 372.264 453.248 373.032L452.624 372.024C454.448 371.472 455.732 370.872 456.476 370.212H452.828V369.228ZM471.44 367.896H470.288V371.652C470.936 371.472 471.584 371.244 472.232 370.968L472.484 371.988C471.584 372.36 470.444 372.72 469.076 373.068L468.812 372.072C469.052 371.976 469.184 371.844 469.184 371.652V362.556H474.644V367.896H472.448C472.58 368.532 472.796 369.108 473.084 369.636C473.624 369.324 474.14 368.892 474.62 368.316L475.34 369.048C474.836 369.648 474.26 370.116 473.624 370.452C474.14 371.1 474.8 371.664 475.616 372.144L474.98 373.152C473.012 371.856 471.836 370.104 471.44 367.896ZM464.684 364.416H466.184V362.184H467.3V364.416H468.644V365.508H467.3V366.06C467.816 366.636 468.344 367.272 468.896 367.992L468.236 368.988C467.876 368.292 467.564 367.704 467.3 367.224V373.176H466.184V367.704C465.836 368.7 465.404 369.612 464.888 370.452L464.396 369.216C465.2 368.136 465.788 366.9 466.16 365.508H464.684V364.416ZM470.288 365.748V366.876H473.528V365.748H470.288ZM473.528 364.764V363.588H470.288V364.764H473.528ZM477.98 373.128H476.96L476.72 372.048C477.02 372.096 477.308 372.132 477.596 372.132C477.86 372.132 478.004 371.976 478.004 371.664V369.084C477.572 369.24 477.152 369.384 476.732 369.528L476.444 368.4C476.972 368.28 477.488 368.124 478.004 367.944V365.46H476.66V364.368H478.004V362.196H479.108V364.368H480.164V365.46H479.108V367.512C479.444 367.356 479.792 367.188 480.128 367.008V368.124C479.78 368.292 479.444 368.46 479.108 368.616V371.94C479.108 372.732 478.724 373.128 477.98 373.128ZM481.712 367.92C481.556 369.936 481.1 371.712 480.332 373.248L479.444 372.456C480.248 370.908 480.656 368.916 480.668 366.48V362.568H487.16V365.676H484.976V366.876H487.448V367.92H484.976V369.156H486.908V373.236H485.852V372.72H483.008V373.236H481.952V369.156H483.872V367.92H481.712ZM483.872 365.676H481.772V366.48C481.772 366.612 481.76 366.744 481.76 366.876H483.872V365.676ZM483.008 371.712H485.852V370.164H483.008V371.712ZM486.056 363.612H481.772V364.656H486.056V363.612ZM488.84 362.712H499.16V363.828H495.284C495.068 364.284 494.84 364.728 494.588 365.148V373.26H493.412V366.78C492.308 368.064 490.916 369.216 489.224 370.224L488.468 369.228C491.096 367.74 492.944 365.94 494 363.828H488.84V362.712ZM496.1 365.976C497.444 367.032 498.584 368.1 499.508 369.156L498.608 370.056C497.816 369.036 496.712 367.944 495.284 366.768L496.1 365.976ZM509.756 373.188H508.184L507.872 372.048L509.384 372.096C509.648 372.096 509.78 371.928 509.78 371.592V363.66H502.22V373.224H501.08V362.556H510.92V371.844C510.92 372.732 510.524 373.188 509.756 373.188ZM502.94 364.8H509.06V365.856H502.94V364.8ZM503.564 366.948H508.448V370.968H503.564V366.948ZM507.344 369.948V367.968H504.668V369.948H507.344ZM518.576 367.272H516.944V366.228C518.288 365.46 519.524 364.656 520.664 363.804H517.112V362.76H522.356V363.744C521.288 364.644 520.124 365.496 518.876 366.288H523.244C523.16 369.18 523.016 371.028 522.8 371.844C522.584 372.66 522.008 373.068 521.072 373.092C520.676 373.092 520.292 373.08 519.92 373.056L519.608 371.952C520.052 372 520.484 372.024 520.916 372.024C521.324 372.012 521.6 371.82 521.768 371.436C521.912 371.112 522.02 369.72 522.092 367.272H521.48C521.192 368.688 520.772 369.792 520.22 370.608C519.596 371.52 518.66 372.336 517.412 373.056L516.716 372.156C517.82 371.544 518.672 370.86 519.248 370.104C519.752 369.408 520.124 368.46 520.388 367.272H519.656C519.224 368.772 518.468 369.948 517.4 370.788L516.692 369.9C517.568 369.216 518.192 368.34 518.576 367.272ZM512.576 365.388H513.92V362.448H515.072V365.388H516.476V366.48H515.072V370.356C515.552 370.2 516.008 370.032 516.464 369.864V371.052C515.312 371.496 514.064 371.868 512.744 372.168L512.444 370.968C512.948 370.884 513.44 370.788 513.92 370.668V366.48H512.576V365.388ZM526.172 368.04H533.948V370.596H530.72V372.036C530.72 372.804 530.36 373.188 529.664 373.188H528.2L527.96 372.132C528.428 372.18 528.872 372.204 529.292 372.204C529.484 372.204 529.592 372.06 529.592 371.772V370.596H526.172V368.04ZM532.832 369.708V368.916H527.276V369.708H532.832ZM525.932 362.46H534.08V366.072H530.444C530.528 366.24 530.612 366.42 530.684 366.6H535.34V367.548H524.66V366.6H529.448C529.352 366.408 529.244 366.24 529.136 366.072H525.932V362.46ZM532.964 365.184V364.668H527.048V365.184H532.964ZM527.048 363.864H532.964V363.348H527.048V363.864ZM532.124 370.872C533.288 371.148 534.416 371.556 535.496 372.084L535.088 373.128C533.984 372.552 532.844 372.096 531.656 371.772L532.124 370.872ZM527.456 370.788L528.164 371.52C527.372 372.18 526.376 372.72 525.152 373.14L524.516 372.204C525.812 371.82 526.796 371.34 527.456 370.788ZM545.3 364.668C546.164 365.256 546.896 365.844 547.484 366.444L546.692 367.236C546.176 366.66 545.456 366.048 544.544 365.4L545.3 364.668ZM542.276 362.04C542.396 362.364 542.504 362.724 542.612 363.12H547.196V364.224H543.98V367.332H542.852V364.224H541.16V367.332H540.032V364.224H536.804V363.12H541.448C541.328 362.808 541.196 362.508 541.052 362.232L542.276 362.04ZM538.688 364.716L539.528 365.448C538.904 366.108 538.124 366.696 537.212 367.212L536.516 366.3C537.38 365.844 538.1 365.316 538.688 364.716ZM537.62 367.848H545.936V368.712C545.192 369.636 544.292 370.428 543.224 371.076C544.472 371.568 545.924 371.928 547.58 372.144L547.052 373.188C545.132 372.864 543.488 372.36 542.12 371.688C540.692 372.384 539.036 372.888 537.14 373.2L536.612 372.12C538.22 371.892 539.66 371.52 540.92 371.016C539.96 370.392 539.18 369.672 538.556 368.856H537.62V367.848ZM539.84 368.856C540.428 369.504 541.148 370.056 542 370.512C542.888 370.044 543.68 369.492 544.352 368.856H539.84ZM548.804 362.568H559.208V363.636H554.564V364.464H558.236V369.396H554.396C554.264 370.092 554.06 370.656 553.784 371.1C555.44 371.748 557.372 372.096 559.604 372.168L559.316 373.272C556.916 373.164 554.828 372.72 553.052 371.928C552.188 372.6 550.832 373.044 548.972 373.26L548.48 372.216C550.016 372.12 551.168 371.844 551.936 371.376C551.288 371.016 550.7 370.608 550.172 370.164L551.048 369.564C551.564 369.972 552.128 370.32 552.728 370.632C552.944 370.296 553.124 369.876 553.244 369.396H549.8V364.464H553.436V363.636H548.804V362.568ZM557.108 368.4V367.38H554.564V367.668C554.564 367.932 554.552 368.172 554.528 368.4H557.108ZM553.4 368.4C553.424 368.16 553.436 367.908 553.436 367.668V367.38H550.928V368.4H553.4ZM550.928 366.444H553.436V365.436H550.928V366.444ZM554.564 365.436V366.444H557.108V365.436H554.564Z"
    fill="#F66074" />
  <rect x="344.75" y="320.75" width="298.5" height="34.5" rx="3.25" stroke="#F66074" stroke-width="1.5" />
  <rect x="20.5" y="380.5" width="299" height="35" rx="3.5" fill="#F7F6F4" />
  <path
    d="M47.75 396.125V398.375C47.75 400.239 44.7275 401.75 41 401.75C37.2725 401.75 34.25 400.239 34.25 398.375V396.125C34.25 397.989 37.2725 399.5 41 399.5C44.7275 399.5 47.75 397.989 47.75 396.125ZM34.25 399.875C34.25 401.739 37.2725 403.25 41 403.25C44.7275 403.25 47.75 401.739 47.75 399.875V402.125C47.75 403.989 44.7275 405.5 41 405.5C37.2725 405.5 34.25 403.989 34.25 402.125V399.875ZM41 398C37.2725 398 34.25 396.489 34.25 394.625C34.25 392.761 37.2725 391.25 41 391.25C44.7275 391.25 47.75 392.761 47.75 394.625C47.75 396.489 44.7275 398 41 398Z"
    fill="#C3C6CD" />
  <path
    d="M68.596 391.562H69.562V392.472H73.034V393.298H69.562V394.236H72.53V395.048H69.562V396H73.384V396.84H64.816V396H68.596V395.048H65.768V394.236H68.596V393.298H65.208V392.472H68.596V391.562ZM66.846 400.368V401.39H71.368V400.368H66.846ZM71.368 399.584V398.548H66.846V399.584H71.368ZM66.846 402.174V404.4H65.88V397.722H72.334V403.182C72.334 403.938 71.928 404.316 71.144 404.316H69.968L69.73 403.42L70.85 403.462C71.186 403.462 71.368 403.294 71.368 402.972V402.174H66.846ZM62.282 391.716C63.22 392.416 64.004 393.13 64.648 393.844L63.962 394.544C63.374 393.872 62.576 393.158 61.568 392.402L62.282 391.716ZM60.588 395.846H63.556V401.992C63.976 401.6 64.41 401.166 64.886 400.676L65.152 401.74C64.368 402.552 63.528 403.28 62.66 403.91L62.268 403.014C62.478 402.818 62.59 402.608 62.59 402.37V396.812H60.588V395.846ZM75.764 391.786C76.702 392.514 77.486 393.242 78.13 393.97L77.43 394.67C76.856 393.97 76.072 393.228 75.078 392.444L75.764 391.786ZM83.898 404.148C83.142 404.148 82.302 404.134 81.406 404.12C80.51 404.106 79.768 404.022 79.208 403.868C78.662 403.7 78.172 403.35 77.738 402.846C77.542 402.608 77.36 402.496 77.192 402.496C76.842 402.496 76.282 403.14 75.498 404.456L74.742 403.77C75.498 402.58 76.156 401.852 76.744 401.6V397.344H74.756V396.42H77.682V401.656C77.794 401.74 77.906 401.852 78.018 401.978C78.354 402.384 78.718 402.678 79.11 402.86C79.544 403.056 80.174 403.168 81.014 403.196C81.742 403.21 82.666 403.224 83.758 403.224C84.43 403.224 85.116 403.21 85.816 403.196C86.488 403.182 87.02 403.168 87.398 403.14L87.146 404.148H83.898ZM82.694 391.52H83.674V393.312H86.474V394.278H83.674V396.28H86.964V397.26H84.612V401.012C84.612 401.264 84.752 401.404 85.06 401.404H85.564C85.76 401.404 85.9 401.362 86.012 401.278C86.18 401.152 86.292 400.592 86.348 399.598L87.23 399.892C87.146 401.054 86.992 401.74 86.782 401.964C86.586 402.16 86.25 402.272 85.774 402.286H84.766C84.402 402.286 84.136 402.188 83.954 401.992C83.758 401.796 83.674 401.544 83.674 401.236V397.26H82.26C82.218 398.226 82.078 399.066 81.84 399.766C81.476 400.83 80.622 401.712 79.306 402.398L78.648 401.6C79.782 401.04 80.524 400.34 80.888 399.5C81.126 398.884 81.266 398.128 81.308 397.26H79.054V396.28H82.694V394.278H80.426C80.174 394.81 79.894 395.286 79.586 395.734L78.704 395.188C79.46 394.138 80.006 392.976 80.342 391.716L81.308 391.912C81.168 392.402 81.014 392.864 80.846 393.312H82.694V391.52ZM93.782 392.122H100.418V392.962C100.012 394.054 99.284 394.964 98.22 395.72C99.116 396.14 100.208 396.434 101.482 396.602L101.118 397.498C99.578 397.288 98.29 396.882 97.282 396.294C96.302 396.826 95.126 397.246 93.768 397.582L93.292 396.728C94.482 396.448 95.518 396.112 96.386 395.692C95.504 394.978 94.874 394.096 94.482 393.032H93.782V392.122ZM95.476 393.032C95.854 393.9 96.456 394.628 97.282 395.188C98.234 394.586 98.92 393.872 99.354 393.032H95.476ZM90.268 404.274H89.05L88.84 403.294C89.204 403.322 89.568 403.35 89.918 403.35C90.282 403.35 90.478 403.154 90.478 402.79V399.43C89.918 399.626 89.358 399.808 88.798 399.976L88.546 398.968C89.204 398.814 89.848 398.632 90.478 398.422V395.216H88.77V394.25H90.478V391.604H91.514V394.25H93.082V395.216H91.514V398.044C92.046 397.82 92.578 397.568 93.11 397.302V398.324C92.592 398.576 92.06 398.814 91.514 399.038V403.056C91.514 403.868 91.094 404.274 90.268 404.274ZM94.02 398.59H96.82V397.358H97.8V398.59H100.558V399.514H97.8V401.11H101.272V402.048H97.8V404.26H96.82V402.048H93.306V401.11H96.82V399.514H94.02V398.59Z"
    fill="#C3C6CD" />
  <path d="M304 398.781L307.3 395.481L308.243 396.424L304 400.667L299.758 396.424L300.7 395.481L304 398.781Z"
    fill="#C3C6CD" />
  <rect x="20.5" y="380.5" width="299" height="35" rx="3.5" stroke="#E8E7E6" />
  <rect x="344.5" y="380.5" width="299" height="35" rx="3.5" fill="#F7F6F4" />
  <path
    d="M364.596 391.562H365.562V392.472H369.034V393.298H365.562V394.236H368.53V395.048H365.562V396H369.384V396.84H360.816V396H364.596V395.048H361.768V394.236H364.596V393.298H361.208V392.472H364.596V391.562ZM362.846 400.368V401.39H367.368V400.368H362.846ZM367.368 399.584V398.548H362.846V399.584H367.368ZM362.846 402.174V404.4H361.88V397.722H368.334V403.182C368.334 403.938 367.928 404.316 367.144 404.316H365.968L365.73 403.42L366.85 403.462C367.186 403.462 367.368 403.294 367.368 402.972V402.174H362.846ZM358.282 391.716C359.22 392.416 360.004 393.13 360.648 393.844L359.962 394.544C359.374 393.872 358.576 393.158 357.568 392.402L358.282 391.716ZM356.588 395.846H359.556V401.992C359.976 401.6 360.41 401.166 360.886 400.676L361.152 401.74C360.368 402.552 359.528 403.28 358.66 403.91L358.268 403.014C358.478 402.818 358.59 402.608 358.59 402.37V396.812H356.588V395.846ZM371.764 391.786C372.702 392.514 373.486 393.242 374.13 393.97L373.43 394.67C372.856 393.97 372.072 393.228 371.078 392.444L371.764 391.786ZM379.898 404.148C379.142 404.148 378.302 404.134 377.406 404.12C376.51 404.106 375.768 404.022 375.208 403.868C374.662 403.7 374.172 403.35 373.738 402.846C373.542 402.608 373.36 402.496 373.192 402.496C372.842 402.496 372.282 403.14 371.498 404.456L370.742 403.77C371.498 402.58 372.156 401.852 372.744 401.6V397.344H370.756V396.42H373.682V401.656C373.794 401.74 373.906 401.852 374.018 401.978C374.354 402.384 374.718 402.678 375.11 402.86C375.544 403.056 376.174 403.168 377.014 403.196C377.742 403.21 378.666 403.224 379.758 403.224C380.43 403.224 381.116 403.21 381.816 403.196C382.488 403.182 383.02 403.168 383.398 403.14L383.146 404.148H379.898ZM378.694 391.52H379.674V393.312H382.474V394.278H379.674V396.28H382.964V397.26H380.612V401.012C380.612 401.264 380.752 401.404 381.06 401.404H381.564C381.76 401.404 381.9 401.362 382.012 401.278C382.18 401.152 382.292 400.592 382.348 399.598L383.23 399.892C383.146 401.054 382.992 401.74 382.782 401.964C382.586 402.16 382.25 402.272 381.774 402.286H380.766C380.402 402.286 380.136 402.188 379.954 401.992C379.758 401.796 379.674 401.544 379.674 401.236V397.26H378.26C378.218 398.226 378.078 399.066 377.84 399.766C377.476 400.83 376.622 401.712 375.306 402.398L374.648 401.6C375.782 401.04 376.524 400.34 376.888 399.5C377.126 398.884 377.266 398.128 377.308 397.26H375.054V396.28H378.694V394.278H376.426C376.174 394.81 375.894 395.286 375.586 395.734L374.704 395.188C375.46 394.138 376.006 392.976 376.342 391.716L377.308 391.912C377.168 392.402 377.014 392.864 376.846 393.312H378.694V391.52ZM389.782 392.122H396.418V392.962C396.012 394.054 395.284 394.964 394.22 395.72C395.116 396.14 396.208 396.434 397.482 396.602L397.118 397.498C395.578 397.288 394.29 396.882 393.282 396.294C392.302 396.826 391.126 397.246 389.768 397.582L389.292 396.728C390.482 396.448 391.518 396.112 392.386 395.692C391.504 394.978 390.874 394.096 390.482 393.032H389.782V392.122ZM391.476 393.032C391.854 393.9 392.456 394.628 393.282 395.188C394.234 394.586 394.92 393.872 395.354 393.032H391.476ZM386.268 404.274H385.05L384.84 403.294C385.204 403.322 385.568 403.35 385.918 403.35C386.282 403.35 386.478 403.154 386.478 402.79V399.43C385.918 399.626 385.358 399.808 384.798 399.976L384.546 398.968C385.204 398.814 385.848 398.632 386.478 398.422V395.216H384.77V394.25H386.478V391.604H387.514V394.25H389.082V395.216H387.514V398.044C388.046 397.82 388.578 397.568 389.11 397.302V398.324C388.592 398.576 388.06 398.814 387.514 399.038V403.056C387.514 403.868 387.094 404.274 386.268 404.274ZM390.02 398.59H392.82V397.358H393.8V398.59H396.558V399.514H393.8V401.11H397.272V402.048H393.8V404.26H392.82V402.048H389.306V401.11H392.82V399.514H390.02V398.59Z"
    fill="#C3C6CD" />
  <path d="M628 398.781L631.3 395.481L632.243 396.424L628 400.667L623.758 396.424L624.7 395.481L628 398.781Z"
    fill="#C3C6CD" />
  <rect x="344.5" y="380.5" width="299" height="35" rx="3.5" stroke="#E8E7E6" />
  <rect x="0.5" y="0.5" width="663" height="435" rx="4.5" stroke="#9747FF" stroke-dasharray="10 5" />
</svg>