<svg width="980" height="274" viewBox="0 0 980 274" fill="none" xmlns="http://www.w3.org/2000/svg">
  <rect x="0.5" y="0.5" width="979" height="273" rx="4.5" fill="#FCFBF9" />
  <g filter="url(#filter0_d_1289_13311)">
    <rect x="20" y="20" width="300" height="234" rx="8" fill="#FCFBF9" />
    <rect x="24" y="24" width="292" height="36" rx="4" fill="#FCFBF9" />
    <path
      d="M47.75 40.125V42.375C47.75 44.2387 44.7275 45.75 41 45.75C37.2725 45.75 34.25 44.2387 34.25 42.375V40.125C34.25 41.9887 37.2725 43.5 41 43.5C44.7275 43.5 47.75 41.9887 47.75 40.125ZM34.25 43.875C34.25 45.7387 37.2725 47.25 41 47.25C44.7275 47.25 47.75 45.7387 47.75 43.875V46.125C47.75 47.9887 44.7275 49.5 41 49.5C37.2725 49.5 34.25 47.9887 34.25 46.125V43.875ZM41 42C37.2725 42 34.25 40.4887 34.25 38.625C34.25 36.7613 37.2725 35.25 41 35.25C44.7275 35.25 47.75 36.7613 47.75 38.625C47.75 40.4887 44.7275 42 41 42Z"
      fill="#C3C6CD" />
    <path
      d="M61.764 35.786C62.702 36.514 63.486 37.242 64.13 37.97L63.43 38.67C62.856 37.97 62.072 37.228 61.078 36.444L61.764 35.786ZM69.898 48.148C69.142 48.148 68.302 48.134 67.406 48.12C66.51 48.106 65.768 48.022 65.208 47.868C64.662 47.7 64.172 47.35 63.738 46.846C63.542 46.608 63.36 46.496 63.192 46.496C62.842 46.496 62.282 47.14 61.498 48.456L60.742 47.77C61.498 46.58 62.156 45.852 62.744 45.6V41.344H60.756V40.42H63.682V45.656C63.794 45.74 63.906 45.852 64.018 45.978C64.354 46.384 64.718 46.678 65.11 46.86C65.544 47.056 66.174 47.168 67.014 47.196C67.742 47.21 68.666 47.224 69.758 47.224C70.43 47.224 71.116 47.21 71.816 47.196C72.488 47.182 73.02 47.168 73.398 47.14L73.146 48.148H69.898ZM68.694 35.52H69.674V37.312H72.474V38.278H69.674V40.28H72.964V41.26H70.612V45.012C70.612 45.264 70.752 45.404 71.06 45.404H71.564C71.76 45.404 71.9 45.362 72.012 45.278C72.18 45.152 72.292 44.592 72.348 43.598L73.23 43.892C73.146 45.054 72.992 45.74 72.782 45.964C72.586 46.16 72.25 46.272 71.774 46.286H70.766C70.402 46.286 70.136 46.188 69.954 45.992C69.758 45.796 69.674 45.544 69.674 45.236V41.26H68.26C68.218 42.226 68.078 43.066 67.84 43.766C67.476 44.83 66.622 45.712 65.306 46.398L64.648 45.6C65.782 45.04 66.524 44.34 66.888 43.5C67.126 42.884 67.266 42.128 67.308 41.26H65.054V40.28H68.694V38.278H66.426C66.174 38.81 65.894 39.286 65.586 39.734L64.704 39.188C65.46 38.138 66.006 36.976 66.342 35.716L67.308 35.912C67.168 36.402 67.014 36.864 66.846 37.312H68.694V35.52ZM76.436 37.914H74.77V36.934H79.096V37.914H77.472V44.242C78.074 44.032 78.648 43.822 79.194 43.598V44.606C77.962 45.124 76.534 45.6 74.91 46.034L74.616 45.04C75.246 44.886 75.848 44.732 76.436 44.564V37.914ZM79.628 36.164H87.384V37.144H84.038C83.954 37.676 83.856 38.166 83.744 38.642H86.712V45.222H85.732V39.566H81.238V45.222H80.272V38.642H82.736C82.876 38.166 82.974 37.662 83.044 37.144H79.628V36.164ZM84.626 45.25C85.774 46.09 86.754 46.93 87.538 47.77L86.81 48.498C86.11 47.686 85.158 46.818 83.954 45.894L84.626 45.25ZM82.918 40.462H83.926V42.87C83.87 44.382 83.478 45.586 82.722 46.496C81.98 47.322 80.776 47.98 79.096 48.456L78.55 47.588C80.174 47.154 81.322 46.566 81.966 45.838C82.554 45.082 82.876 44.088 82.918 42.87V40.462ZM88.896 37.928H94.692C94.314 37.186 93.852 36.486 93.292 35.828L94.3 35.464C94.832 36.136 95.308 36.962 95.756 37.928H101.104V38.936H98.92C98.234 41.148 97.198 43.01 95.826 44.494C97.31 45.754 99.172 46.79 101.412 47.616L100.866 48.456C98.542 47.588 96.638 46.51 95.126 45.208C93.53 46.678 91.542 47.756 89.162 48.442L88.63 47.56C90.982 46.93 92.914 45.936 94.426 44.564C92.802 42.968 91.682 41.092 91.052 38.936H88.896V37.928ZM92.046 38.936C92.648 40.826 93.67 42.464 95.126 43.864C96.372 42.506 97.282 40.868 97.87 38.936H92.046ZM103.008 38.138H108.482V35.604H109.518V38.138H114.978V39.104H110.414C111.352 41.33 113.032 43.318 115.44 45.068L114.754 45.936C112.29 43.92 110.582 41.638 109.63 39.104H109.518V44.564H112.514V45.53H109.518V48.4H108.482V45.53H105.598V44.564H108.482V39.104H108.384C107.348 41.946 105.584 44.284 103.092 46.118L102.518 45.18C104.87 43.612 106.55 41.582 107.586 39.104H103.008V38.138ZM116.7 41.358H129.286V42.366H116.7V41.358Z"
      fill="#292C33" />
    <rect x="24" y="62" width="292" height="36" rx="4" fill="#F2F1EF" />
    <path
      d="M47.75 78.125V80.375C47.75 82.2387 44.7275 83.75 41 83.75C37.2725 83.75 34.25 82.2387 34.25 80.375V78.125C34.25 79.9887 37.2725 81.5 41 81.5C44.7275 81.5 47.75 79.9887 47.75 78.125ZM34.25 81.875C34.25 83.7387 37.2725 85.25 41 85.25C44.7275 85.25 47.75 83.7387 47.75 81.875V84.125C47.75 85.9887 44.7275 87.5 41 87.5C37.2725 87.5 34.25 85.9887 34.25 84.125V81.875ZM41 80C37.2725 80 34.25 78.4887 34.25 76.625C34.25 74.7613 37.2725 73.25 41 73.25C44.7275 73.25 47.75 74.7613 47.75 76.625C47.75 78.4887 44.7275 80 41 80Z"
      fill="#4583FF" />
    <path
      d="M61.89 73.66C62.814 74.402 63.584 75.144 64.214 75.872L63.276 76.796C62.744 76.096 61.974 75.34 60.98 74.528L61.89 73.66ZM69.912 86.204C69.156 86.204 68.316 86.19 67.42 86.176C66.51 86.162 65.768 86.078 65.194 85.938C64.634 85.77 64.144 85.434 63.724 84.958C63.528 84.72 63.346 84.608 63.192 84.608C62.884 84.608 62.38 85.238 61.666 86.512L60.686 85.602C61.386 84.454 62.03 83.74 62.59 83.46V79.498H60.714V78.266H63.836V83.572C63.892 83.628 63.962 83.684 64.032 83.768C64.368 84.146 64.704 84.426 65.04 84.608C65.46 84.804 66.076 84.93 66.916 84.958C67.7 84.972 68.638 84.986 69.73 84.986C70.416 84.986 71.116 84.972 71.83 84.958C72.53 84.944 73.076 84.916 73.468 84.888L73.132 86.204H69.912ZM68.568 73.478H69.856V75.158H72.544V76.432H69.856V78.168H73.034V79.442H70.766V82.872C70.766 83.096 70.906 83.222 71.186 83.222H71.494C71.634 83.222 71.76 83.166 71.858 83.082C71.97 82.984 72.054 82.466 72.096 81.514L73.258 81.906C73.146 83.11 72.992 83.824 72.796 84.034C72.6 84.23 72.264 84.342 71.774 84.356H70.78C70.36 84.356 70.052 84.244 69.842 84.034C69.618 83.796 69.52 83.502 69.52 83.166V79.442H68.358C68.302 80.352 68.162 81.15 67.924 81.822C67.56 82.886 66.72 83.754 65.404 84.454L64.536 83.418C65.642 82.872 66.37 82.2 66.706 81.402C66.916 80.87 67.042 80.212 67.098 79.442H64.956V78.168H68.568V76.432H66.524C66.272 76.908 66.02 77.356 65.74 77.776L64.592 77.062C65.348 76.012 65.88 74.892 66.202 73.702L67.476 73.954C67.35 74.374 67.224 74.78 67.084 75.158H68.568V73.478ZM76.282 76.068H74.728V74.78H79.138V76.068H77.626V81.976C78.172 81.794 78.69 81.598 79.194 81.402V82.732C77.962 83.236 76.548 83.712 74.952 84.146L74.56 82.83C75.148 82.69 75.722 82.536 76.282 82.382V76.068ZM79.586 74.01H87.426V75.298H84.164C84.094 75.718 84.01 76.11 83.926 76.488H86.866V83.264H85.578V77.72H81.392V83.264H80.118V76.488H82.61C82.722 76.096 82.806 75.704 82.862 75.298H79.586V74.01ZM84.78 83.18C85.9 83.992 86.824 84.79 87.58 85.574L86.628 86.526C85.984 85.756 85.074 84.93 83.898 84.034L84.78 83.18ZM82.778 78.42H84.108V80.87C84.038 82.382 83.618 83.614 82.862 84.538C82.12 85.378 80.916 86.022 79.236 86.498L78.508 85.364C80.132 84.916 81.252 84.356 81.84 83.684C82.4 82.956 82.722 82.018 82.778 80.87V78.42ZM88.826 75.774H94.468C94.104 75.102 93.656 74.472 93.124 73.87L94.454 73.38C94.958 74.052 95.434 74.85 95.868 75.774H101.174V77.09H99.032C98.36 79.218 97.366 80.996 96.05 82.438C97.506 83.628 99.326 84.622 101.482 85.406L100.74 86.526C98.486 85.686 96.61 84.636 95.126 83.376C93.544 84.776 91.598 85.812 89.288 86.484L88.574 85.308C90.842 84.72 92.704 83.796 94.188 82.522C92.648 80.982 91.57 79.162 90.968 77.09H88.826V75.774ZM92.242 77.09C92.83 78.812 93.782 80.324 95.112 81.612C96.246 80.366 97.1 78.854 97.66 77.09H92.242ZM102.966 75.984H108.328V73.562H109.672V75.984H115.02V77.258H110.722C111.646 79.358 113.242 81.248 115.51 82.9L114.6 84.048C112.262 82.032 110.624 79.764 109.686 77.258H109.672V82.41H112.556V83.684H109.672V86.442H108.328V83.684H105.556V82.41H108.328V77.258H108.314C107.306 80.086 105.598 82.41 103.218 84.23L102.448 82.984C104.66 81.5 106.27 79.582 107.278 77.258H102.966V75.984ZM117.988 74.962H128.012V76.264H117.988V74.962ZM116.7 83.768H129.286V85.098H116.7V83.768Z"
      fill="#292C33" />
    <rect x="24" y="100" width="292" height="36" rx="4" fill="#FCFBF9" />
    <path
      d="M47.75 116.125V118.375C47.75 120.239 44.7275 121.75 41 121.75C37.2725 121.75 34.25 120.239 34.25 118.375V116.125C34.25 117.989 37.2725 119.5 41 119.5C44.7275 119.5 47.75 117.989 47.75 116.125ZM34.25 119.875C34.25 121.739 37.2725 123.25 41 123.25C44.7275 123.25 47.75 121.739 47.75 119.875V122.125C47.75 123.989 44.7275 125.5 41 125.5C37.2725 125.5 34.25 123.989 34.25 122.125V119.875ZM41 118C37.2725 118 34.25 116.489 34.25 114.625C34.25 112.761 37.2725 111.25 41 111.25C44.7275 111.25 47.75 112.761 47.75 114.625C47.75 116.489 44.7275 118 41 118Z"
      fill="#C3C6CD" />
    <path
      d="M61.764 111.786C62.702 112.514 63.486 113.242 64.13 113.97L63.43 114.67C62.856 113.97 62.072 113.228 61.078 112.444L61.764 111.786ZM69.898 124.148C69.142 124.148 68.302 124.134 67.406 124.12C66.51 124.106 65.768 124.022 65.208 123.868C64.662 123.7 64.172 123.35 63.738 122.846C63.542 122.608 63.36 122.496 63.192 122.496C62.842 122.496 62.282 123.14 61.498 124.456L60.742 123.77C61.498 122.58 62.156 121.852 62.744 121.6V117.344H60.756V116.42H63.682V121.656C63.794 121.74 63.906 121.852 64.018 121.978C64.354 122.384 64.718 122.678 65.11 122.86C65.544 123.056 66.174 123.168 67.014 123.196C67.742 123.21 68.666 123.224 69.758 123.224C70.43 123.224 71.116 123.21 71.816 123.196C72.488 123.182 73.02 123.168 73.398 123.14L73.146 124.148H69.898ZM68.694 111.52H69.674V113.312H72.474V114.278H69.674V116.28H72.964V117.26H70.612V121.012C70.612 121.264 70.752 121.404 71.06 121.404H71.564C71.76 121.404 71.9 121.362 72.012 121.278C72.18 121.152 72.292 120.592 72.348 119.598L73.23 119.892C73.146 121.054 72.992 121.74 72.782 121.964C72.586 122.16 72.25 122.272 71.774 122.286H70.766C70.402 122.286 70.136 122.188 69.954 121.992C69.758 121.796 69.674 121.544 69.674 121.236V117.26H68.26C68.218 118.226 68.078 119.066 67.84 119.766C67.476 120.83 66.622 121.712 65.306 122.398L64.648 121.6C65.782 121.04 66.524 120.34 66.888 119.5C67.126 118.884 67.266 118.128 67.308 117.26H65.054V116.28H68.694V114.278H66.426C66.174 114.81 65.894 115.286 65.586 115.734L64.704 115.188C65.46 114.138 66.006 112.976 66.342 111.716L67.308 111.912C67.168 112.402 67.014 112.864 66.846 113.312H68.694V111.52ZM76.436 113.914H74.77V112.934H79.096V113.914H77.472V120.242C78.074 120.032 78.648 119.822 79.194 119.598V120.606C77.962 121.124 76.534 121.6 74.91 122.034L74.616 121.04C75.246 120.886 75.848 120.732 76.436 120.564V113.914ZM79.628 112.164H87.384V113.144H84.038C83.954 113.676 83.856 114.166 83.744 114.642H86.712V121.222H85.732V115.566H81.238V121.222H80.272V114.642H82.736C82.876 114.166 82.974 113.662 83.044 113.144H79.628V112.164ZM84.626 121.25C85.774 122.09 86.754 122.93 87.538 123.77L86.81 124.498C86.11 123.686 85.158 122.818 83.954 121.894L84.626 121.25ZM82.918 116.462H83.926V118.87C83.87 120.382 83.478 121.586 82.722 122.496C81.98 123.322 80.776 123.98 79.096 124.456L78.55 123.588C80.174 123.154 81.322 122.566 81.966 121.838C82.554 121.082 82.876 120.088 82.918 118.87V116.462ZM88.896 113.928H94.692C94.314 113.186 93.852 112.486 93.292 111.828L94.3 111.464C94.832 112.136 95.308 112.962 95.756 113.928H101.104V114.936H98.92C98.234 117.148 97.198 119.01 95.826 120.494C97.31 121.754 99.172 122.79 101.412 123.616L100.866 124.456C98.542 123.588 96.638 122.51 95.126 121.208C93.53 122.678 91.542 123.756 89.162 124.442L88.63 123.56C90.982 122.93 92.914 121.936 94.426 120.564C92.802 118.968 91.682 117.092 91.052 114.936H88.896V113.928ZM92.046 114.936C92.648 116.826 93.67 118.464 95.126 119.864C96.372 118.506 97.282 116.868 97.87 114.936H92.046ZM103.008 114.138H108.482V111.604H109.518V114.138H114.978V115.104H110.414C111.352 117.33 113.032 119.318 115.44 121.068L114.754 121.936C112.29 119.92 110.582 117.638 109.63 115.104H109.518V120.564H112.514V121.53H109.518V124.4H108.482V121.53H105.598V120.564H108.482V115.104H108.384C107.348 117.946 105.584 120.284 103.092 122.118L102.518 121.18C104.87 119.612 106.55 117.582 107.586 115.104H103.008V114.138ZM117.722 112.626H128.306V113.606H117.722V112.626ZM118.66 117.47H127.354V118.45H118.66V117.47ZM116.686 122.65H129.314V123.658H116.686V122.65Z"
      fill="#292C33" />
    <rect x="24" y="138" width="292" height="36" rx="4" fill="#F7F6F4" />
    <path
      d="M47.75 154.125V156.375C47.75 158.239 44.7275 159.75 41 159.75C37.2725 159.75 34.25 158.239 34.25 156.375V154.125C34.25 155.989 37.2725 157.5 41 157.5C44.7275 157.5 47.75 155.989 47.75 154.125ZM34.25 157.875C34.25 159.739 37.2725 161.25 41 161.25C44.7275 161.25 47.75 159.739 47.75 157.875V160.125C47.75 161.989 44.7275 163.5 41 163.5C37.2725 163.5 34.25 161.989 34.25 160.125V157.875ZM41 156C37.2725 156 34.25 154.489 34.25 152.625C34.25 150.761 37.2725 149.25 41 149.25C44.7275 149.25 47.75 150.761 47.75 152.625C47.75 154.489 44.7275 156 41 156Z"
      fill="#C3C6CD" />
    <path
      d="M61.764 149.786C62.702 150.514 63.486 151.242 64.13 151.97L63.43 152.67C62.856 151.97 62.072 151.228 61.078 150.444L61.764 149.786ZM69.898 162.148C69.142 162.148 68.302 162.134 67.406 162.12C66.51 162.106 65.768 162.022 65.208 161.868C64.662 161.7 64.172 161.35 63.738 160.846C63.542 160.608 63.36 160.496 63.192 160.496C62.842 160.496 62.282 161.14 61.498 162.456L60.742 161.77C61.498 160.58 62.156 159.852 62.744 159.6V155.344H60.756V154.42H63.682V159.656C63.794 159.74 63.906 159.852 64.018 159.978C64.354 160.384 64.718 160.678 65.11 160.86C65.544 161.056 66.174 161.168 67.014 161.196C67.742 161.21 68.666 161.224 69.758 161.224C70.43 161.224 71.116 161.21 71.816 161.196C72.488 161.182 73.02 161.168 73.398 161.14L73.146 162.148H69.898ZM68.694 149.52H69.674V151.312H72.474V152.278H69.674V154.28H72.964V155.26H70.612V159.012C70.612 159.264 70.752 159.404 71.06 159.404H71.564C71.76 159.404 71.9 159.362 72.012 159.278C72.18 159.152 72.292 158.592 72.348 157.598L73.23 157.892C73.146 159.054 72.992 159.74 72.782 159.964C72.586 160.16 72.25 160.272 71.774 160.286H70.766C70.402 160.286 70.136 160.188 69.954 159.992C69.758 159.796 69.674 159.544 69.674 159.236V155.26H68.26C68.218 156.226 68.078 157.066 67.84 157.766C67.476 158.83 66.622 159.712 65.306 160.398L64.648 159.6C65.782 159.04 66.524 158.34 66.888 157.5C67.126 156.884 67.266 156.128 67.308 155.26H65.054V154.28H68.694V152.278H66.426C66.174 152.81 65.894 153.286 65.586 153.734L64.704 153.188C65.46 152.138 66.006 150.976 66.342 149.716L67.308 149.912C67.168 150.402 67.014 150.864 66.846 151.312H68.694V149.52ZM76.436 151.914H74.77V150.934H79.096V151.914H77.472V158.242C78.074 158.032 78.648 157.822 79.194 157.598V158.606C77.962 159.124 76.534 159.6 74.91 160.034L74.616 159.04C75.246 158.886 75.848 158.732 76.436 158.564V151.914ZM79.628 150.164H87.384V151.144H84.038C83.954 151.676 83.856 152.166 83.744 152.642H86.712V159.222H85.732V153.566H81.238V159.222H80.272V152.642H82.736C82.876 152.166 82.974 151.662 83.044 151.144H79.628V150.164ZM84.626 159.25C85.774 160.09 86.754 160.93 87.538 161.77L86.81 162.498C86.11 161.686 85.158 160.818 83.954 159.894L84.626 159.25ZM82.918 154.462H83.926V156.87C83.87 158.382 83.478 159.586 82.722 160.496C81.98 161.322 80.776 161.98 79.096 162.456L78.55 161.588C80.174 161.154 81.322 160.566 81.966 159.838C82.554 159.082 82.876 158.088 82.918 156.87V154.462ZM88.896 151.928H94.692C94.314 151.186 93.852 150.486 93.292 149.828L94.3 149.464C94.832 150.136 95.308 150.962 95.756 151.928H101.104V152.936H98.92C98.234 155.148 97.198 157.01 95.826 158.494C97.31 159.754 99.172 160.79 101.412 161.616L100.866 162.456C98.542 161.588 96.638 160.51 95.126 159.208C93.53 160.678 91.542 161.756 89.162 162.442L88.63 161.56C90.982 160.93 92.914 159.936 94.426 158.564C92.802 156.968 91.682 155.092 91.052 152.936H88.896V151.928ZM92.046 152.936C92.648 154.826 93.67 156.464 95.126 157.864C96.372 156.506 97.282 154.868 97.87 152.936H92.046ZM103.008 152.138H108.482V149.604H109.518V152.138H114.978V153.104H110.414C111.352 155.33 113.032 157.318 115.44 159.068L114.754 159.936C112.29 157.92 110.582 155.638 109.63 153.104H109.518V158.564H112.514V159.53H109.518V162.4H108.482V159.53H105.598V158.564H108.482V153.104H108.384C107.348 155.946 105.584 158.284 103.092 160.118L102.518 159.18C104.87 157.612 106.55 155.582 107.586 153.104H103.008V152.138ZM128.754 150.458V162.19H127.732V161.378H118.268V162.19H117.246V150.458H128.754ZM118.268 160.468H127.732V151.368H124.974V156.716C124.974 156.996 125.156 157.15 125.52 157.15H127.242V158.074H125.254C124.414 158.074 124.008 157.682 124.008 156.926V151.368H121.922V154.406C121.894 156.352 121.096 157.78 119.528 158.676L118.758 158.004C120.186 157.248 120.914 156.058 120.942 154.406V151.368H118.268V160.468Z"
      fill="#292C33" />
    <rect x="24" y="176" width="292" height="36" rx="4" fill="#FCFBF9" />
    <path
      d="M47.75 192.125V194.375C47.75 196.239 44.7275 197.75 41 197.75C37.2725 197.75 34.25 196.239 34.25 194.375V192.125C34.25 193.989 37.2725 195.5 41 195.5C44.7275 195.5 47.75 193.989 47.75 192.125ZM34.25 195.875C34.25 197.739 37.2725 199.25 41 199.25C44.7275 199.25 47.75 197.739 47.75 195.875V198.125C47.75 199.989 44.7275 201.5 41 201.5C37.2725 201.5 34.25 199.989 34.25 198.125V195.875ZM41 194C37.2725 194 34.25 192.489 34.25 190.625C34.25 188.761 37.2725 187.25 41 187.25C44.7275 187.25 47.75 188.761 47.75 190.625C47.75 192.489 44.7275 194 41 194Z"
      fill="#C3C6CD" />
    <path
      d="M61.764 187.786C62.702 188.514 63.486 189.242 64.13 189.97L63.43 190.67C62.856 189.97 62.072 189.228 61.078 188.444L61.764 187.786ZM69.898 200.148C69.142 200.148 68.302 200.134 67.406 200.12C66.51 200.106 65.768 200.022 65.208 199.868C64.662 199.7 64.172 199.35 63.738 198.846C63.542 198.608 63.36 198.496 63.192 198.496C62.842 198.496 62.282 199.14 61.498 200.456L60.742 199.77C61.498 198.58 62.156 197.852 62.744 197.6V193.344H60.756V192.42H63.682V197.656C63.794 197.74 63.906 197.852 64.018 197.978C64.354 198.384 64.718 198.678 65.11 198.86C65.544 199.056 66.174 199.168 67.014 199.196C67.742 199.21 68.666 199.224 69.758 199.224C70.43 199.224 71.116 199.21 71.816 199.196C72.488 199.182 73.02 199.168 73.398 199.14L73.146 200.148H69.898ZM68.694 187.52H69.674V189.312H72.474V190.278H69.674V192.28H72.964V193.26H70.612V197.012C70.612 197.264 70.752 197.404 71.06 197.404H71.564C71.76 197.404 71.9 197.362 72.012 197.278C72.18 197.152 72.292 196.592 72.348 195.598L73.23 195.892C73.146 197.054 72.992 197.74 72.782 197.964C72.586 198.16 72.25 198.272 71.774 198.286H70.766C70.402 198.286 70.136 198.188 69.954 197.992C69.758 197.796 69.674 197.544 69.674 197.236V193.26H68.26C68.218 194.226 68.078 195.066 67.84 195.766C67.476 196.83 66.622 197.712 65.306 198.398L64.648 197.6C65.782 197.04 66.524 196.34 66.888 195.5C67.126 194.884 67.266 194.128 67.308 193.26H65.054V192.28H68.694V190.278H66.426C66.174 190.81 65.894 191.286 65.586 191.734L64.704 191.188C65.46 190.138 66.006 188.976 66.342 187.716L67.308 187.912C67.168 188.402 67.014 188.864 66.846 189.312H68.694V187.52ZM76.436 189.914H74.77V188.934H79.096V189.914H77.472V196.242C78.074 196.032 78.648 195.822 79.194 195.598V196.606C77.962 197.124 76.534 197.6 74.91 198.034L74.616 197.04C75.246 196.886 75.848 196.732 76.436 196.564V189.914ZM79.628 188.164H87.384V189.144H84.038C83.954 189.676 83.856 190.166 83.744 190.642H86.712V197.222H85.732V191.566H81.238V197.222H80.272V190.642H82.736C82.876 190.166 82.974 189.662 83.044 189.144H79.628V188.164ZM84.626 197.25C85.774 198.09 86.754 198.93 87.538 199.77L86.81 200.498C86.11 199.686 85.158 198.818 83.954 197.894L84.626 197.25ZM82.918 192.462H83.926V194.87C83.87 196.382 83.478 197.586 82.722 198.496C81.98 199.322 80.776 199.98 79.096 200.456L78.55 199.588C80.174 199.154 81.322 198.566 81.966 197.838C82.554 197.082 82.876 196.088 82.918 194.87V192.462ZM88.896 189.928H94.692C94.314 189.186 93.852 188.486 93.292 187.828L94.3 187.464C94.832 188.136 95.308 188.962 95.756 189.928H101.104V190.936H98.92C98.234 193.148 97.198 195.01 95.826 196.494C97.31 197.754 99.172 198.79 101.412 199.616L100.866 200.456C98.542 199.588 96.638 198.51 95.126 197.208C93.53 198.678 91.542 199.756 89.162 200.442L88.63 199.56C90.982 198.93 92.914 197.936 94.426 196.564C92.802 194.968 91.682 193.092 91.052 190.936H88.896V189.928ZM92.046 190.936C92.648 192.826 93.67 194.464 95.126 195.864C96.372 194.506 97.282 192.868 97.87 190.936H92.046ZM103.008 190.138H108.482V187.604H109.518V190.138H114.978V191.104H110.414C111.352 193.33 113.032 195.318 115.44 197.068L114.754 197.936C112.29 195.92 110.582 193.638 109.63 191.104H109.518V196.564H112.514V197.53H109.518V200.4H108.482V197.53H105.598V196.564H108.482V191.104H108.384C107.348 193.946 105.584 196.284 103.092 198.118L102.518 197.18C104.87 195.612 106.55 193.582 107.586 191.104H103.008V190.138ZM118.03 192.798H121.208L121.936 189.354H117.316V188.374H128.698V189.354H122.944L122.216 192.798H126.934V198.804H129.23V199.798H116.784V198.804H119.948L120.998 193.778H118.03V192.798ZM120.956 198.804H125.912V193.778H122.006L120.956 198.804Z"
      fill="#292C33" />
    <rect x="24" y="214" width="292" height="36" rx="4" fill="#FCFBF9" />
    <path
      d="M47.75 230.125V232.375C47.75 234.239 44.7275 235.75 41 235.75C37.2725 235.75 34.25 234.239 34.25 232.375V230.125C34.25 231.989 37.2725 233.5 41 233.5C44.7275 233.5 47.75 231.989 47.75 230.125ZM34.25 233.875C34.25 235.739 37.2725 237.25 41 237.25C44.7275 237.25 47.75 235.739 47.75 233.875V236.125C47.75 237.989 44.7275 239.5 41 239.5C37.2725 239.5 34.25 237.989 34.25 236.125V233.875ZM41 232C37.2725 232 34.25 230.489 34.25 228.625C34.25 226.761 37.2725 225.25 41 225.25C44.7275 225.25 47.75 226.761 47.75 228.625C47.75 230.489 44.7275 232 41 232Z"
      fill="#C3C6CD" />
    <path
      d="M61.764 225.786C62.702 226.514 63.486 227.242 64.13 227.97L63.43 228.67C62.856 227.97 62.072 227.228 61.078 226.444L61.764 225.786ZM69.898 238.148C69.142 238.148 68.302 238.134 67.406 238.12C66.51 238.106 65.768 238.022 65.208 237.868C64.662 237.7 64.172 237.35 63.738 236.846C63.542 236.608 63.36 236.496 63.192 236.496C62.842 236.496 62.282 237.14 61.498 238.456L60.742 237.77C61.498 236.58 62.156 235.852 62.744 235.6V231.344H60.756V230.42H63.682V235.656C63.794 235.74 63.906 235.852 64.018 235.978C64.354 236.384 64.718 236.678 65.11 236.86C65.544 237.056 66.174 237.168 67.014 237.196C67.742 237.21 68.666 237.224 69.758 237.224C70.43 237.224 71.116 237.21 71.816 237.196C72.488 237.182 73.02 237.168 73.398 237.14L73.146 238.148H69.898ZM68.694 225.52H69.674V227.312H72.474V228.278H69.674V230.28H72.964V231.26H70.612V235.012C70.612 235.264 70.752 235.404 71.06 235.404H71.564C71.76 235.404 71.9 235.362 72.012 235.278C72.18 235.152 72.292 234.592 72.348 233.598L73.23 233.892C73.146 235.054 72.992 235.74 72.782 235.964C72.586 236.16 72.25 236.272 71.774 236.286H70.766C70.402 236.286 70.136 236.188 69.954 235.992C69.758 235.796 69.674 235.544 69.674 235.236V231.26H68.26C68.218 232.226 68.078 233.066 67.84 233.766C67.476 234.83 66.622 235.712 65.306 236.398L64.648 235.6C65.782 235.04 66.524 234.34 66.888 233.5C67.126 232.884 67.266 232.128 67.308 231.26H65.054V230.28H68.694V228.278H66.426C66.174 228.81 65.894 229.286 65.586 229.734L64.704 229.188C65.46 228.138 66.006 226.976 66.342 225.716L67.308 225.912C67.168 226.402 67.014 226.864 66.846 227.312H68.694V225.52ZM76.436 227.914H74.77V226.934H79.096V227.914H77.472V234.242C78.074 234.032 78.648 233.822 79.194 233.598V234.606C77.962 235.124 76.534 235.6 74.91 236.034L74.616 235.04C75.246 234.886 75.848 234.732 76.436 234.564V227.914ZM79.628 226.164H87.384V227.144H84.038C83.954 227.676 83.856 228.166 83.744 228.642H86.712V235.222H85.732V229.566H81.238V235.222H80.272V228.642H82.736C82.876 228.166 82.974 227.662 83.044 227.144H79.628V226.164ZM84.626 235.25C85.774 236.09 86.754 236.93 87.538 237.77L86.81 238.498C86.11 237.686 85.158 236.818 83.954 235.894L84.626 235.25ZM82.918 230.462H83.926V232.87C83.87 234.382 83.478 235.586 82.722 236.496C81.98 237.322 80.776 237.98 79.096 238.456L78.55 237.588C80.174 237.154 81.322 236.566 81.966 235.838C82.554 235.082 82.876 234.088 82.918 232.87V230.462ZM88.896 227.928H94.692C94.314 227.186 93.852 226.486 93.292 225.828L94.3 225.464C94.832 226.136 95.308 226.962 95.756 227.928H101.104V228.936H98.92C98.234 231.148 97.198 233.01 95.826 234.494C97.31 235.754 99.172 236.79 101.412 237.616L100.866 238.456C98.542 237.588 96.638 236.51 95.126 235.208C93.53 236.678 91.542 237.756 89.162 238.442L88.63 237.56C90.982 236.93 92.914 235.936 94.426 234.564C92.802 232.968 91.682 231.092 91.052 228.936H88.896V227.928ZM92.046 228.936C92.648 230.826 93.67 232.464 95.126 233.864C96.372 232.506 97.282 230.868 97.87 228.936H92.046ZM103.008 228.138H108.482V225.604H109.518V228.138H114.978V229.104H110.414C111.352 231.33 113.032 233.318 115.44 235.068L114.754 235.936C112.29 233.92 110.582 231.638 109.63 229.104H109.518V234.564H112.514V235.53H109.518V238.4H108.482V235.53H105.598V234.564H108.482V229.104H108.384C107.348 231.946 105.584 234.284 103.092 236.118L102.518 235.18C104.87 233.612 106.55 231.582 107.586 229.104H103.008V228.138ZM125.352 231.652C126.976 233.948 128.208 235.964 129.062 237.672L128.166 238.288C127.27 236.468 126.038 234.438 124.484 232.198L125.352 231.652ZM120.536 231.736L121.516 232.128C120.536 234.788 119.234 236.804 117.624 238.204L116.77 237.476C118.45 236.062 119.696 234.144 120.536 231.736ZM116.784 229.314H129.216V230.294H116.784V229.314ZM121.698 225.674C122.818 226.458 123.756 227.256 124.526 228.04L123.784 228.782C123.112 228.012 122.188 227.2 120.998 226.332L121.698 225.674Z"
      fill="#292C33" />
    <rect x="309" y="30" width="6" height="100" rx="3" fill="#C3C6CD" />
    <g filter="url(#filter1_d_1289_13311)">
      <path
        d="M182.27 160.28C181.99 159.92 181.64 159.19 181.03 158.28C180.68 157.78 179.82 156.83 179.56 156.34C179.372 156.042 179.318 155.68 179.41 155.34C179.567 154.694 180.179 154.266 180.84 154.34C181.351 154.443 181.82 154.693 182.19 155.06C182.448 155.303 182.686 155.567 182.9 155.85C183.06 156.05 183.1 156.13 183.28 156.36C183.46 156.59 183.58 156.82 183.49 156.48C183.42 155.98 183.3 155.14 183.13 154.39C183 153.82 182.97 153.73 182.85 153.3C182.73 152.87 182.66 152.51 182.53 152.02C182.411 151.538 182.318 151.051 182.25 150.56C182.124 149.932 182.216 149.279 182.51 148.71C182.859 148.381 183.372 148.295 183.81 148.49C184.25 148.815 184.579 149.27 184.75 149.79C185.012 150.43 185.187 151.103 185.27 151.79C185.43 152.79 185.74 154.25 185.75 154.55C185.75 154.18 185.68 153.4 185.75 153.05C185.819 152.685 186.073 152.382 186.42 152.25C186.718 152.159 187.033 152.138 187.34 152.19C187.65 152.255 187.925 152.433 188.11 152.69C188.342 153.273 188.47 153.893 188.49 154.52C188.517 153.971 188.611 153.426 188.77 152.9C188.937 152.664 189.181 152.495 189.46 152.42C189.79 152.359 190.129 152.359 190.46 152.42C190.731 152.511 190.968 152.681 191.14 152.91C191.352 153.44 191.48 154 191.52 154.57C191.52 154.71 191.59 154.18 191.81 153.83C191.924 153.491 192.211 153.238 192.562 153.167C192.913 153.097 193.275 153.218 193.512 153.487C193.749 153.756 193.824 154.131 193.71 154.47C193.71 155.12 193.71 155.09 193.71 155.53C193.71 155.97 193.71 156.36 193.71 156.73C193.673 157.315 193.593 157.897 193.47 158.47C193.296 158.977 193.054 159.458 192.75 159.9C192.264 160.44 191.863 161.05 191.56 161.71C191.485 162.038 191.451 162.374 191.46 162.71C191.459 163.021 191.499 163.33 191.58 163.63C191.171 163.673 190.759 163.673 190.35 163.63C189.96 163.57 189.48 162.79 189.35 162.55C189.286 162.421 189.154 162.34 189.01 162.34C188.866 162.34 188.734 162.421 188.67 162.55C188.45 162.93 187.96 163.62 187.62 163.66C186.95 163.74 185.57 163.66 184.48 163.66C184.48 163.66 184.66 162.66 184.25 162.3C183.84 161.94 183.42 161.52 183.11 161.24L182.27 160.28Z"
        fill="white" />
      <path fill-rule="evenodd" clip-rule="evenodd"
        d="M182.27 160.28C181.99 159.92 181.64 159.19 181.03 158.28C180.68 157.78 179.82 156.83 179.56 156.34C179.372 156.042 179.318 155.68 179.41 155.34C179.567 154.694 180.179 154.266 180.84 154.34C181.351 154.443 181.82 154.693 182.19 155.06C182.448 155.303 182.686 155.567 182.9 155.85C183.06 156.05 183.1 156.13 183.28 156.36C183.46 156.59 183.58 156.82 183.49 156.48C183.42 155.98 183.3 155.14 183.13 154.39C183 153.82 182.97 153.73 182.85 153.3C182.73 152.87 182.66 152.51 182.53 152.02C182.411 151.538 182.318 151.051 182.25 150.56C182.124 149.932 182.216 149.279 182.51 148.71C182.859 148.381 183.372 148.295 183.81 148.49C184.25 148.815 184.579 149.27 184.75 149.79C185.012 150.43 185.187 151.103 185.27 151.79C185.43 152.79 185.74 154.25 185.75 154.55C185.75 154.18 185.68 153.4 185.75 153.05C185.819 152.685 186.073 152.382 186.42 152.25C186.718 152.159 187.033 152.138 187.34 152.19C187.65 152.255 187.925 152.433 188.11 152.69C188.342 153.273 188.47 153.893 188.49 154.52C188.517 153.971 188.611 153.426 188.77 152.9C188.937 152.664 189.181 152.495 189.46 152.42C189.79 152.359 190.129 152.359 190.46 152.42C190.731 152.511 190.968 152.681 191.14 152.91C191.352 153.44 191.48 154 191.52 154.57C191.52 154.71 191.59 154.18 191.81 153.83C191.924 153.491 192.211 153.238 192.562 153.167C192.913 153.097 193.275 153.218 193.512 153.487C193.749 153.756 193.824 154.131 193.71 154.47C193.71 155.12 193.71 155.09 193.71 155.53C193.71 155.97 193.71 156.36 193.71 156.73C193.673 157.315 193.593 157.897 193.47 158.47C193.296 158.977 193.054 159.458 192.75 159.9C192.264 160.44 191.863 161.05 191.56 161.71C191.485 162.038 191.451 162.374 191.46 162.71C191.459 163.021 191.499 163.33 191.58 163.63C191.171 163.673 190.759 163.673 190.35 163.63C189.96 163.57 189.48 162.79 189.35 162.55C189.286 162.421 189.154 162.34 189.01 162.34C188.866 162.34 188.734 162.421 188.67 162.55C188.45 162.93 187.96 163.62 187.62 163.66C186.95 163.74 185.57 163.66 184.48 163.66C184.48 163.66 184.66 162.66 184.25 162.3C183.84 161.94 183.42 161.52 183.11 161.24L182.27 160.28Z"
        stroke="black" stroke-width="0.75" stroke-linecap="round" stroke-linejoin="round" />
      <path
        d="M190.75 160.826V157.374C190.75 157.167 190.582 157 190.375 157C190.168 157 190 157.167 190 157.374V160.826C190 161.033 190.168 161.2 190.375 161.2C190.582 161.2 190.75 161.033 190.75 160.826Z"
        fill="black" />
      <path
        d="M188.77 160.825L188.75 157.371C188.749 157.165 188.58 156.999 188.373 157C188.166 157.001 187.999 157.169 188 157.375L188.02 160.829C188.021 161.035 188.19 161.201 188.397 161.2C188.604 161.199 188.771 161.031 188.77 160.825Z"
        fill="black" />
      <path
        d="M186 157.379L186.02 160.825C186.021 161.033 186.19 161.201 186.397 161.2C186.604 161.199 186.771 161.029 186.77 160.821L186.75 157.375C186.749 157.167 186.58 156.999 186.373 157C186.166 157.001 185.999 157.171 186 157.379Z"
        fill="black" />
    </g>
    <rect x="20.5" y="20.5" width="299" height="233" rx="7.5" stroke="#E8E7E6" />
  </g>
  <g filter="url(#filter2_d_1289_13311)">
    <rect x="340" y="20" width="300" height="234" rx="8" fill="#FCFBF9" />
    <rect x="344" y="24" width="292" height="36" rx="4" fill="#F2F1EF" />
    <path
      d="M353.89 35.66C354.814 36.402 355.584 37.144 356.214 37.872L355.276 38.796C354.744 38.096 353.974 37.34 352.98 36.528L353.89 35.66ZM361.912 48.204C361.156 48.204 360.316 48.19 359.42 48.176C358.51 48.162 357.768 48.078 357.194 47.938C356.634 47.77 356.144 47.434 355.724 46.958C355.528 46.72 355.346 46.608 355.192 46.608C354.884 46.608 354.38 47.238 353.666 48.512L352.686 47.602C353.386 46.454 354.03 45.74 354.59 45.46V41.498H352.714V40.266H355.836V45.572C355.892 45.628 355.962 45.684 356.032 45.768C356.368 46.146 356.704 46.426 357.04 46.608C357.46 46.804 358.076 46.93 358.916 46.958C359.7 46.972 360.638 46.986 361.73 46.986C362.416 46.986 363.116 46.972 363.83 46.958C364.53 46.944 365.076 46.916 365.468 46.888L365.132 48.204H361.912ZM360.568 35.478H361.856V37.158H364.544V38.432H361.856V40.168H365.034V41.442H362.766V44.872C362.766 45.096 362.906 45.222 363.186 45.222H363.494C363.634 45.222 363.76 45.166 363.858 45.082C363.97 44.984 364.054 44.466 364.096 43.514L365.258 43.906C365.146 45.11 364.992 45.824 364.796 46.034C364.6 46.23 364.264 46.342 363.774 46.356H362.78C362.36 46.356 362.052 46.244 361.842 46.034C361.618 45.796 361.52 45.502 361.52 45.166V41.442H360.358C360.302 42.352 360.162 43.15 359.924 43.822C359.56 44.886 358.72 45.754 357.404 46.454L356.536 45.418C357.642 44.872 358.37 44.2 358.706 43.402C358.916 42.87 359.042 42.212 359.098 41.442H356.956V40.168H360.568V38.432H358.524C358.272 38.908 358.02 39.356 357.74 39.776L356.592 39.062C357.348 38.012 357.88 36.892 358.202 35.702L359.476 35.954C359.35 36.374 359.224 36.78 359.084 37.158H360.568V35.478ZM368.282 38.068H366.728V36.78H371.138V38.068H369.626V43.976C370.172 43.794 370.69 43.598 371.194 43.402V44.732C369.962 45.236 368.548 45.712 366.952 46.146L366.56 44.83C367.148 44.69 367.722 44.536 368.282 44.382V38.068ZM371.586 36.01H379.426V37.298H376.164C376.094 37.718 376.01 38.11 375.926 38.488H378.866V45.264H377.578V39.72H373.392V45.264H372.118V38.488H374.61C374.722 38.096 374.806 37.704 374.862 37.298H371.586V36.01ZM376.78 45.18C377.9 45.992 378.824 46.79 379.58 47.574L378.628 48.526C377.984 47.756 377.074 46.93 375.898 46.034L376.78 45.18ZM374.778 40.42H376.108V42.87C376.038 44.382 375.618 45.614 374.862 46.538C374.12 47.378 372.916 48.022 371.236 48.498L370.508 47.364C372.132 46.916 373.252 46.356 373.84 45.684C374.4 44.956 374.722 44.018 374.778 42.87V40.42ZM380.826 37.774H386.468C386.104 37.102 385.656 36.472 385.124 35.87L386.454 35.38C386.958 36.052 387.434 36.85 387.868 37.774H393.174V39.09H391.032C390.36 41.218 389.366 42.996 388.05 44.438C389.506 45.628 391.326 46.622 393.482 47.406L392.74 48.526C390.486 47.686 388.61 46.636 387.126 45.376C385.544 46.776 383.598 47.812 381.288 48.484L380.574 47.308C382.842 46.72 384.704 45.796 386.188 44.522C384.648 42.982 383.57 41.162 382.968 39.09H380.826V37.774ZM384.242 39.09C384.83 40.812 385.782 42.324 387.112 43.612C388.246 42.366 389.1 40.854 389.66 39.09H384.242ZM394.966 37.984H400.328V35.562H401.672V37.984H407.02V39.258H402.722C403.646 41.358 405.242 43.248 407.51 44.9L406.6 46.048C404.262 44.032 402.624 41.764 401.686 39.258H401.672V44.41H404.556V45.684H401.672V48.442H400.328V45.684H397.556V44.41H400.328V39.258H400.314C399.306 42.086 397.598 44.41 395.218 46.23L394.448 44.984C396.66 43.5 398.27 41.582 399.278 39.258H394.966V37.984ZM408.658 41.204H421.328V42.52H408.658V41.204Z"
      fill="#292C33" />
    <path d="M611.333 42.0001L614.666 45.3334L621.333 38.6667" stroke="#4583FF" stroke-width="2" stroke-linecap="round"
      stroke-linejoin="round" />
    <rect x="344" y="62" width="292" height="36" rx="4" fill="#F2F1EF" />
    <path
      d="M353.89 73.66C354.814 74.402 355.584 75.144 356.214 75.872L355.276 76.796C354.744 76.096 353.974 75.34 352.98 74.528L353.89 73.66ZM361.912 86.204C361.156 86.204 360.316 86.19 359.42 86.176C358.51 86.162 357.768 86.078 357.194 85.938C356.634 85.77 356.144 85.434 355.724 84.958C355.528 84.72 355.346 84.608 355.192 84.608C354.884 84.608 354.38 85.238 353.666 86.512L352.686 85.602C353.386 84.454 354.03 83.74 354.59 83.46V79.498H352.714V78.266H355.836V83.572C355.892 83.628 355.962 83.684 356.032 83.768C356.368 84.146 356.704 84.426 357.04 84.608C357.46 84.804 358.076 84.93 358.916 84.958C359.7 84.972 360.638 84.986 361.73 84.986C362.416 84.986 363.116 84.972 363.83 84.958C364.53 84.944 365.076 84.916 365.468 84.888L365.132 86.204H361.912ZM360.568 73.478H361.856V75.158H364.544V76.432H361.856V78.168H365.034V79.442H362.766V82.872C362.766 83.096 362.906 83.222 363.186 83.222H363.494C363.634 83.222 363.76 83.166 363.858 83.082C363.97 82.984 364.054 82.466 364.096 81.514L365.258 81.906C365.146 83.11 364.992 83.824 364.796 84.034C364.6 84.23 364.264 84.342 363.774 84.356H362.78C362.36 84.356 362.052 84.244 361.842 84.034C361.618 83.796 361.52 83.502 361.52 83.166V79.442H360.358C360.302 80.352 360.162 81.15 359.924 81.822C359.56 82.886 358.72 83.754 357.404 84.454L356.536 83.418C357.642 82.872 358.37 82.2 358.706 81.402C358.916 80.87 359.042 80.212 359.098 79.442H356.956V78.168H360.568V76.432H358.524C358.272 76.908 358.02 77.356 357.74 77.776L356.592 77.062C357.348 76.012 357.88 74.892 358.202 73.702L359.476 73.954C359.35 74.374 359.224 74.78 359.084 75.158H360.568V73.478ZM368.282 76.068H366.728V74.78H371.138V76.068H369.626V81.976C370.172 81.794 370.69 81.598 371.194 81.402V82.732C369.962 83.236 368.548 83.712 366.952 84.146L366.56 82.83C367.148 82.69 367.722 82.536 368.282 82.382V76.068ZM371.586 74.01H379.426V75.298H376.164C376.094 75.718 376.01 76.11 375.926 76.488H378.866V83.264H377.578V77.72H373.392V83.264H372.118V76.488H374.61C374.722 76.096 374.806 75.704 374.862 75.298H371.586V74.01ZM376.78 83.18C377.9 83.992 378.824 84.79 379.58 85.574L378.628 86.526C377.984 85.756 377.074 84.93 375.898 84.034L376.78 83.18ZM374.778 78.42H376.108V80.87C376.038 82.382 375.618 83.614 374.862 84.538C374.12 85.378 372.916 86.022 371.236 86.498L370.508 85.364C372.132 84.916 373.252 84.356 373.84 83.684C374.4 82.956 374.722 82.018 374.778 80.87V78.42ZM380.826 75.774H386.468C386.104 75.102 385.656 74.472 385.124 73.87L386.454 73.38C386.958 74.052 387.434 74.85 387.868 75.774H393.174V77.09H391.032C390.36 79.218 389.366 80.996 388.05 82.438C389.506 83.628 391.326 84.622 393.482 85.406L392.74 86.526C390.486 85.686 388.61 84.636 387.126 83.376C385.544 84.776 383.598 85.812 381.288 86.484L380.574 85.308C382.842 84.72 384.704 83.796 386.188 82.522C384.648 80.982 383.57 79.162 382.968 77.09H380.826V75.774ZM384.242 77.09C384.83 78.812 385.782 80.324 387.112 81.612C388.246 80.366 389.1 78.854 389.66 77.09H384.242ZM394.966 75.984H400.328V73.562H401.672V75.984H407.02V77.258H402.722C403.646 79.358 405.242 81.248 407.51 82.9L406.6 84.048C404.262 82.032 402.624 79.764 401.686 77.258H401.672V82.41H404.556V83.684H401.672V86.442H400.328V83.684H397.556V82.41H400.328V77.258H400.314C399.306 80.086 397.598 82.41 395.218 84.23L394.448 82.984C396.66 81.5 398.27 79.582 399.278 77.258H394.966V75.984ZM409.988 74.962H420.012V76.264H409.988V74.962ZM408.7 83.768H421.286V85.098H408.7V83.768Z"
      fill="#292C33" />
    <path d="M611.333 80.0001L614.666 83.3334L621.333 76.6667" stroke="#4583FF" stroke-width="2" stroke-linecap="round"
      stroke-linejoin="round" />
    <rect x="344" y="100" width="292" height="36" rx="4" fill="#FCFBF9" />
    <path
      d="M353.764 111.786C354.702 112.514 355.486 113.242 356.13 113.97L355.43 114.67C354.856 113.97 354.072 113.228 353.078 112.444L353.764 111.786ZM361.898 124.148C361.142 124.148 360.302 124.134 359.406 124.12C358.51 124.106 357.768 124.022 357.208 123.868C356.662 123.7 356.172 123.35 355.738 122.846C355.542 122.608 355.36 122.496 355.192 122.496C354.842 122.496 354.282 123.14 353.498 124.456L352.742 123.77C353.498 122.58 354.156 121.852 354.744 121.6V117.344H352.756V116.42H355.682V121.656C355.794 121.74 355.906 121.852 356.018 121.978C356.354 122.384 356.718 122.678 357.11 122.86C357.544 123.056 358.174 123.168 359.014 123.196C359.742 123.21 360.666 123.224 361.758 123.224C362.43 123.224 363.116 123.21 363.816 123.196C364.488 123.182 365.02 123.168 365.398 123.14L365.146 124.148H361.898ZM360.694 111.52H361.674V113.312H364.474V114.278H361.674V116.28H364.964V117.26H362.612V121.012C362.612 121.264 362.752 121.404 363.06 121.404H363.564C363.76 121.404 363.9 121.362 364.012 121.278C364.18 121.152 364.292 120.592 364.348 119.598L365.23 119.892C365.146 121.054 364.992 121.74 364.782 121.964C364.586 122.16 364.25 122.272 363.774 122.286H362.766C362.402 122.286 362.136 122.188 361.954 121.992C361.758 121.796 361.674 121.544 361.674 121.236V117.26H360.26C360.218 118.226 360.078 119.066 359.84 119.766C359.476 120.83 358.622 121.712 357.306 122.398L356.648 121.6C357.782 121.04 358.524 120.34 358.888 119.5C359.126 118.884 359.266 118.128 359.308 117.26H357.054V116.28H360.694V114.278H358.426C358.174 114.81 357.894 115.286 357.586 115.734L356.704 115.188C357.46 114.138 358.006 112.976 358.342 111.716L359.308 111.912C359.168 112.402 359.014 112.864 358.846 113.312H360.694V111.52ZM368.436 113.914H366.77V112.934H371.096V113.914H369.472V120.242C370.074 120.032 370.648 119.822 371.194 119.598V120.606C369.962 121.124 368.534 121.6 366.91 122.034L366.616 121.04C367.246 120.886 367.848 120.732 368.436 120.564V113.914ZM371.628 112.164H379.384V113.144H376.038C375.954 113.676 375.856 114.166 375.744 114.642H378.712V121.222H377.732V115.566H373.238V121.222H372.272V114.642H374.736C374.876 114.166 374.974 113.662 375.044 113.144H371.628V112.164ZM376.626 121.25C377.774 122.09 378.754 122.93 379.538 123.77L378.81 124.498C378.11 123.686 377.158 122.818 375.954 121.894L376.626 121.25ZM374.918 116.462H375.926V118.87C375.87 120.382 375.478 121.586 374.722 122.496C373.98 123.322 372.776 123.98 371.096 124.456L370.55 123.588C372.174 123.154 373.322 122.566 373.966 121.838C374.554 121.082 374.876 120.088 374.918 118.87V116.462ZM380.896 113.928H386.692C386.314 113.186 385.852 112.486 385.292 111.828L386.3 111.464C386.832 112.136 387.308 112.962 387.756 113.928H393.104V114.936H390.92C390.234 117.148 389.198 119.01 387.826 120.494C389.31 121.754 391.172 122.79 393.412 123.616L392.866 124.456C390.542 123.588 388.638 122.51 387.126 121.208C385.53 122.678 383.542 123.756 381.162 124.442L380.63 123.56C382.982 122.93 384.914 121.936 386.426 120.564C384.802 118.968 383.682 117.092 383.052 114.936H380.896V113.928ZM384.046 114.936C384.648 116.826 385.67 118.464 387.126 119.864C388.372 118.506 389.282 116.868 389.87 114.936H384.046ZM395.008 114.138H400.482V111.604H401.518V114.138H406.978V115.104H402.414C403.352 117.33 405.032 119.318 407.44 121.068L406.754 121.936C404.29 119.92 402.582 117.638 401.63 115.104H401.518V120.564H404.514V121.53H401.518V124.4H400.482V121.53H397.598V120.564H400.482V115.104H400.384C399.348 117.946 397.584 120.284 395.092 122.118L394.518 121.18C396.87 119.612 398.55 117.582 399.586 115.104H395.008V114.138ZM409.722 112.626H420.306V113.606H409.722V112.626ZM410.66 117.47H419.354V118.45H410.66V117.47ZM408.686 122.65H421.314V123.658H408.686V122.65Z"
      fill="#292C33" />
    <rect x="344" y="138" width="292" height="36" rx="4" fill="#F7F6F4" />
    <path
      d="M353.764 149.786C354.702 150.514 355.486 151.242 356.13 151.97L355.43 152.67C354.856 151.97 354.072 151.228 353.078 150.444L353.764 149.786ZM361.898 162.148C361.142 162.148 360.302 162.134 359.406 162.12C358.51 162.106 357.768 162.022 357.208 161.868C356.662 161.7 356.172 161.35 355.738 160.846C355.542 160.608 355.36 160.496 355.192 160.496C354.842 160.496 354.282 161.14 353.498 162.456L352.742 161.77C353.498 160.58 354.156 159.852 354.744 159.6V155.344H352.756V154.42H355.682V159.656C355.794 159.74 355.906 159.852 356.018 159.978C356.354 160.384 356.718 160.678 357.11 160.86C357.544 161.056 358.174 161.168 359.014 161.196C359.742 161.21 360.666 161.224 361.758 161.224C362.43 161.224 363.116 161.21 363.816 161.196C364.488 161.182 365.02 161.168 365.398 161.14L365.146 162.148H361.898ZM360.694 149.52H361.674V151.312H364.474V152.278H361.674V154.28H364.964V155.26H362.612V159.012C362.612 159.264 362.752 159.404 363.06 159.404H363.564C363.76 159.404 363.9 159.362 364.012 159.278C364.18 159.152 364.292 158.592 364.348 157.598L365.23 157.892C365.146 159.054 364.992 159.74 364.782 159.964C364.586 160.16 364.25 160.272 363.774 160.286H362.766C362.402 160.286 362.136 160.188 361.954 159.992C361.758 159.796 361.674 159.544 361.674 159.236V155.26H360.26C360.218 156.226 360.078 157.066 359.84 157.766C359.476 158.83 358.622 159.712 357.306 160.398L356.648 159.6C357.782 159.04 358.524 158.34 358.888 157.5C359.126 156.884 359.266 156.128 359.308 155.26H357.054V154.28H360.694V152.278H358.426C358.174 152.81 357.894 153.286 357.586 153.734L356.704 153.188C357.46 152.138 358.006 150.976 358.342 149.716L359.308 149.912C359.168 150.402 359.014 150.864 358.846 151.312H360.694V149.52ZM368.436 151.914H366.77V150.934H371.096V151.914H369.472V158.242C370.074 158.032 370.648 157.822 371.194 157.598V158.606C369.962 159.124 368.534 159.6 366.91 160.034L366.616 159.04C367.246 158.886 367.848 158.732 368.436 158.564V151.914ZM371.628 150.164H379.384V151.144H376.038C375.954 151.676 375.856 152.166 375.744 152.642H378.712V159.222H377.732V153.566H373.238V159.222H372.272V152.642H374.736C374.876 152.166 374.974 151.662 375.044 151.144H371.628V150.164ZM376.626 159.25C377.774 160.09 378.754 160.93 379.538 161.77L378.81 162.498C378.11 161.686 377.158 160.818 375.954 159.894L376.626 159.25ZM374.918 154.462H375.926V156.87C375.87 158.382 375.478 159.586 374.722 160.496C373.98 161.322 372.776 161.98 371.096 162.456L370.55 161.588C372.174 161.154 373.322 160.566 373.966 159.838C374.554 159.082 374.876 158.088 374.918 156.87V154.462ZM380.896 151.928H386.692C386.314 151.186 385.852 150.486 385.292 149.828L386.3 149.464C386.832 150.136 387.308 150.962 387.756 151.928H393.104V152.936H390.92C390.234 155.148 389.198 157.01 387.826 158.494C389.31 159.754 391.172 160.79 393.412 161.616L392.866 162.456C390.542 161.588 388.638 160.51 387.126 159.208C385.53 160.678 383.542 161.756 381.162 162.442L380.63 161.56C382.982 160.93 384.914 159.936 386.426 158.564C384.802 156.968 383.682 155.092 383.052 152.936H380.896V151.928ZM384.046 152.936C384.648 154.826 385.67 156.464 387.126 157.864C388.372 156.506 389.282 154.868 389.87 152.936H384.046ZM395.008 152.138H400.482V149.604H401.518V152.138H406.978V153.104H402.414C403.352 155.33 405.032 157.318 407.44 159.068L406.754 159.936C404.29 157.92 402.582 155.638 401.63 153.104H401.518V158.564H404.514V159.53H401.518V162.4H400.482V159.53H397.598V158.564H400.482V153.104H400.384C399.348 155.946 397.584 158.284 395.092 160.118L394.518 159.18C396.87 157.612 398.55 155.582 399.586 153.104H395.008V152.138ZM420.754 150.458V162.19H419.732V161.378H410.268V162.19H409.246V150.458H420.754ZM410.268 160.468H419.732V151.368H416.974V156.716C416.974 156.996 417.156 157.15 417.52 157.15H419.242V158.074H417.254C416.414 158.074 416.008 157.682 416.008 156.926V151.368H413.922V154.406C413.894 156.352 413.096 157.78 411.528 158.676L410.758 158.004C412.186 157.248 412.914 156.058 412.942 154.406V151.368H410.268V160.468Z"
      fill="#292C33" />
    <rect x="344" y="176" width="292" height="36" rx="4" fill="#F2F1EF" />
    <path
      d="M353.89 187.66C354.814 188.402 355.584 189.144 356.214 189.872L355.276 190.796C354.744 190.096 353.974 189.34 352.98 188.528L353.89 187.66ZM361.912 200.204C361.156 200.204 360.316 200.19 359.42 200.176C358.51 200.162 357.768 200.078 357.194 199.938C356.634 199.77 356.144 199.434 355.724 198.958C355.528 198.72 355.346 198.608 355.192 198.608C354.884 198.608 354.38 199.238 353.666 200.512L352.686 199.602C353.386 198.454 354.03 197.74 354.59 197.46V193.498H352.714V192.266H355.836V197.572C355.892 197.628 355.962 197.684 356.032 197.768C356.368 198.146 356.704 198.426 357.04 198.608C357.46 198.804 358.076 198.93 358.916 198.958C359.7 198.972 360.638 198.986 361.73 198.986C362.416 198.986 363.116 198.972 363.83 198.958C364.53 198.944 365.076 198.916 365.468 198.888L365.132 200.204H361.912ZM360.568 187.478H361.856V189.158H364.544V190.432H361.856V192.168H365.034V193.442H362.766V196.872C362.766 197.096 362.906 197.222 363.186 197.222H363.494C363.634 197.222 363.76 197.166 363.858 197.082C363.97 196.984 364.054 196.466 364.096 195.514L365.258 195.906C365.146 197.11 364.992 197.824 364.796 198.034C364.6 198.23 364.264 198.342 363.774 198.356H362.78C362.36 198.356 362.052 198.244 361.842 198.034C361.618 197.796 361.52 197.502 361.52 197.166V193.442H360.358C360.302 194.352 360.162 195.15 359.924 195.822C359.56 196.886 358.72 197.754 357.404 198.454L356.536 197.418C357.642 196.872 358.37 196.2 358.706 195.402C358.916 194.87 359.042 194.212 359.098 193.442H356.956V192.168H360.568V190.432H358.524C358.272 190.908 358.02 191.356 357.74 191.776L356.592 191.062C357.348 190.012 357.88 188.892 358.202 187.702L359.476 187.954C359.35 188.374 359.224 188.78 359.084 189.158H360.568V187.478ZM368.282 190.068H366.728V188.78H371.138V190.068H369.626V195.976C370.172 195.794 370.69 195.598 371.194 195.402V196.732C369.962 197.236 368.548 197.712 366.952 198.146L366.56 196.83C367.148 196.69 367.722 196.536 368.282 196.382V190.068ZM371.586 188.01H379.426V189.298H376.164C376.094 189.718 376.01 190.11 375.926 190.488H378.866V197.264H377.578V191.72H373.392V197.264H372.118V190.488H374.61C374.722 190.096 374.806 189.704 374.862 189.298H371.586V188.01ZM376.78 197.18C377.9 197.992 378.824 198.79 379.58 199.574L378.628 200.526C377.984 199.756 377.074 198.93 375.898 198.034L376.78 197.18ZM374.778 192.42H376.108V194.87C376.038 196.382 375.618 197.614 374.862 198.538C374.12 199.378 372.916 200.022 371.236 200.498L370.508 199.364C372.132 198.916 373.252 198.356 373.84 197.684C374.4 196.956 374.722 196.018 374.778 194.87V192.42ZM380.826 189.774H386.468C386.104 189.102 385.656 188.472 385.124 187.87L386.454 187.38C386.958 188.052 387.434 188.85 387.868 189.774H393.174V191.09H391.032C390.36 193.218 389.366 194.996 388.05 196.438C389.506 197.628 391.326 198.622 393.482 199.406L392.74 200.526C390.486 199.686 388.61 198.636 387.126 197.376C385.544 198.776 383.598 199.812 381.288 200.484L380.574 199.308C382.842 198.72 384.704 197.796 386.188 196.522C384.648 194.982 383.57 193.162 382.968 191.09H380.826V189.774ZM384.242 191.09C384.83 192.812 385.782 194.324 387.112 195.612C388.246 194.366 389.1 192.854 389.66 191.09H384.242ZM394.966 189.984H400.328V187.562H401.672V189.984H407.02V191.258H402.722C403.646 193.358 405.242 195.248 407.51 196.9L406.6 198.048C404.262 196.032 402.624 193.764 401.686 191.258H401.672V196.41H404.556V197.684H401.672V200.442H400.328V197.684H397.556V196.41H400.328V191.258H400.314C399.306 194.086 397.598 196.41 395.218 198.23L394.448 196.984C396.66 195.5 398.27 193.582 399.278 191.258H394.966V189.984ZM409.988 192.588H413.096L413.74 189.522H409.274V188.234H420.74V189.522H415.084L414.44 192.588H419.088V198.594H421.272V199.896H408.742V198.594H411.836L412.83 193.876H409.988V192.588ZM413.166 198.594H417.73V193.876H414.16L413.166 198.594Z"
      fill="#292C33" />
    <path d="M611.333 194L614.666 197.333L621.333 190.667" stroke="#4583FF" stroke-width="2" stroke-linecap="round"
      stroke-linejoin="round" />
    <rect x="344" y="214" width="292" height="36" rx="4" fill="#FCFBF9" />
    <path
      d="M353.764 225.786C354.702 226.514 355.486 227.242 356.13 227.97L355.43 228.67C354.856 227.97 354.072 227.228 353.078 226.444L353.764 225.786ZM361.898 238.148C361.142 238.148 360.302 238.134 359.406 238.12C358.51 238.106 357.768 238.022 357.208 237.868C356.662 237.7 356.172 237.35 355.738 236.846C355.542 236.608 355.36 236.496 355.192 236.496C354.842 236.496 354.282 237.14 353.498 238.456L352.742 237.77C353.498 236.58 354.156 235.852 354.744 235.6V231.344H352.756V230.42H355.682V235.656C355.794 235.74 355.906 235.852 356.018 235.978C356.354 236.384 356.718 236.678 357.11 236.86C357.544 237.056 358.174 237.168 359.014 237.196C359.742 237.21 360.666 237.224 361.758 237.224C362.43 237.224 363.116 237.21 363.816 237.196C364.488 237.182 365.02 237.168 365.398 237.14L365.146 238.148H361.898ZM360.694 225.52H361.674V227.312H364.474V228.278H361.674V230.28H364.964V231.26H362.612V235.012C362.612 235.264 362.752 235.404 363.06 235.404H363.564C363.76 235.404 363.9 235.362 364.012 235.278C364.18 235.152 364.292 234.592 364.348 233.598L365.23 233.892C365.146 235.054 364.992 235.74 364.782 235.964C364.586 236.16 364.25 236.272 363.774 236.286H362.766C362.402 236.286 362.136 236.188 361.954 235.992C361.758 235.796 361.674 235.544 361.674 235.236V231.26H360.26C360.218 232.226 360.078 233.066 359.84 233.766C359.476 234.83 358.622 235.712 357.306 236.398L356.648 235.6C357.782 235.04 358.524 234.34 358.888 233.5C359.126 232.884 359.266 232.128 359.308 231.26H357.054V230.28H360.694V228.278H358.426C358.174 228.81 357.894 229.286 357.586 229.734L356.704 229.188C357.46 228.138 358.006 226.976 358.342 225.716L359.308 225.912C359.168 226.402 359.014 226.864 358.846 227.312H360.694V225.52ZM368.436 227.914H366.77V226.934H371.096V227.914H369.472V234.242C370.074 234.032 370.648 233.822 371.194 233.598V234.606C369.962 235.124 368.534 235.6 366.91 236.034L366.616 235.04C367.246 234.886 367.848 234.732 368.436 234.564V227.914ZM371.628 226.164H379.384V227.144H376.038C375.954 227.676 375.856 228.166 375.744 228.642H378.712V235.222H377.732V229.566H373.238V235.222H372.272V228.642H374.736C374.876 228.166 374.974 227.662 375.044 227.144H371.628V226.164ZM376.626 235.25C377.774 236.09 378.754 236.93 379.538 237.77L378.81 238.498C378.11 237.686 377.158 236.818 375.954 235.894L376.626 235.25ZM374.918 230.462H375.926V232.87C375.87 234.382 375.478 235.586 374.722 236.496C373.98 237.322 372.776 237.98 371.096 238.456L370.55 237.588C372.174 237.154 373.322 236.566 373.966 235.838C374.554 235.082 374.876 234.088 374.918 232.87V230.462ZM380.896 227.928H386.692C386.314 227.186 385.852 226.486 385.292 225.828L386.3 225.464C386.832 226.136 387.308 226.962 387.756 227.928H393.104V228.936H390.92C390.234 231.148 389.198 233.01 387.826 234.494C389.31 235.754 391.172 236.79 393.412 237.616L392.866 238.456C390.542 237.588 388.638 236.51 387.126 235.208C385.53 236.678 383.542 237.756 381.162 238.442L380.63 237.56C382.982 236.93 384.914 235.936 386.426 234.564C384.802 232.968 383.682 231.092 383.052 228.936H380.896V227.928ZM384.046 228.936C384.648 230.826 385.67 232.464 387.126 233.864C388.372 232.506 389.282 230.868 389.87 228.936H384.046ZM395.008 228.138H400.482V225.604H401.518V228.138H406.978V229.104H402.414C403.352 231.33 405.032 233.318 407.44 235.068L406.754 235.936C404.29 233.92 402.582 231.638 401.63 229.104H401.518V234.564H404.514V235.53H401.518V238.4H400.482V235.53H397.598V234.564H400.482V229.104H400.384C399.348 231.946 397.584 234.284 395.092 236.118L394.518 235.18C396.87 233.612 398.55 231.582 399.586 229.104H395.008V228.138ZM417.352 231.652C418.976 233.948 420.208 235.964 421.062 237.672L420.166 238.288C419.27 236.468 418.038 234.438 416.484 232.198L417.352 231.652ZM412.536 231.736L413.516 232.128C412.536 234.788 411.234 236.804 409.624 238.204L408.77 237.476C410.45 236.062 411.696 234.144 412.536 231.736ZM408.784 229.314H421.216V230.294H408.784V229.314ZM413.698 225.674C414.818 226.458 415.756 227.256 416.526 228.04L415.784 228.782C415.112 228.012 414.188 227.2 412.998 226.332L413.698 225.674Z"
      fill="#292C33" />
    <rect x="629" y="30" width="6" height="100" rx="3" fill="#C3C6CD" />
    <g filter="url(#filter3_d_1289_13311)">
      <path
        d="M502.27 160.28C501.99 159.92 501.64 159.19 501.03 158.28C500.68 157.78 499.82 156.83 499.56 156.34C499.372 156.042 499.318 155.68 499.41 155.34C499.567 154.694 500.179 154.266 500.84 154.34C501.351 154.443 501.82 154.693 502.19 155.06C502.448 155.303 502.686 155.567 502.9 155.85C503.06 156.05 503.1 156.13 503.28 156.36C503.46 156.59 503.58 156.82 503.49 156.48C503.42 155.98 503.3 155.14 503.13 154.39C503 153.82 502.97 153.73 502.85 153.3C502.73 152.87 502.66 152.51 502.53 152.02C502.411 151.538 502.318 151.051 502.25 150.56C502.124 149.932 502.216 149.279 502.51 148.71C502.859 148.381 503.372 148.295 503.81 148.49C504.25 148.815 504.579 149.27 504.75 149.79C505.012 150.43 505.187 151.103 505.27 151.79C505.43 152.79 505.74 154.25 505.75 154.55C505.75 154.18 505.68 153.4 505.75 153.05C505.819 152.685 506.073 152.382 506.42 152.25C506.718 152.159 507.033 152.138 507.34 152.19C507.65 152.255 507.925 152.433 508.11 152.69C508.342 153.273 508.47 153.893 508.49 154.52C508.517 153.971 508.611 153.426 508.77 152.9C508.937 152.664 509.181 152.495 509.46 152.42C509.79 152.359 510.129 152.359 510.46 152.42C510.731 152.511 510.968 152.681 511.14 152.91C511.352 153.44 511.48 154 511.52 154.57C511.52 154.71 511.59 154.18 511.81 153.83C511.924 153.491 512.211 153.238 512.562 153.167C512.913 153.097 513.275 153.218 513.512 153.487C513.749 153.756 513.824 154.131 513.71 154.47C513.71 155.12 513.71 155.09 513.71 155.53C513.71 155.97 513.71 156.36 513.71 156.73C513.673 157.315 513.593 157.897 513.47 158.47C513.296 158.977 513.054 159.458 512.75 159.9C512.264 160.44 511.863 161.05 511.56 161.71C511.485 162.038 511.451 162.374 511.46 162.71C511.459 163.021 511.499 163.33 511.58 163.63C511.171 163.673 510.759 163.673 510.35 163.63C509.96 163.57 509.48 162.79 509.35 162.55C509.286 162.421 509.154 162.34 509.01 162.34C508.866 162.34 508.734 162.421 508.67 162.55C508.45 162.93 507.96 163.62 507.62 163.66C506.95 163.74 505.57 163.66 504.48 163.66C504.48 163.66 504.66 162.66 504.25 162.3C503.84 161.94 503.42 161.52 503.11 161.24L502.27 160.28Z"
        fill="white" />
      <path fill-rule="evenodd" clip-rule="evenodd"
        d="M502.27 160.28C501.99 159.92 501.64 159.19 501.03 158.28C500.68 157.78 499.82 156.83 499.56 156.34C499.372 156.042 499.318 155.68 499.41 155.34C499.567 154.694 500.179 154.266 500.84 154.34C501.351 154.443 501.82 154.693 502.19 155.06C502.448 155.303 502.686 155.567 502.9 155.85C503.06 156.05 503.1 156.13 503.28 156.36C503.46 156.59 503.58 156.82 503.49 156.48C503.42 155.98 503.3 155.14 503.13 154.39C503 153.82 502.97 153.73 502.85 153.3C502.73 152.87 502.66 152.51 502.53 152.02C502.411 151.538 502.318 151.051 502.25 150.56C502.124 149.932 502.216 149.279 502.51 148.71C502.859 148.381 503.372 148.295 503.81 148.49C504.25 148.815 504.579 149.27 504.75 149.79C505.012 150.43 505.187 151.103 505.27 151.79C505.43 152.79 505.74 154.25 505.75 154.55C505.75 154.18 505.68 153.4 505.75 153.05C505.819 152.685 506.073 152.382 506.42 152.25C506.718 152.159 507.033 152.138 507.34 152.19C507.65 152.255 507.925 152.433 508.11 152.69C508.342 153.273 508.47 153.893 508.49 154.52C508.517 153.971 508.611 153.426 508.77 152.9C508.937 152.664 509.181 152.495 509.46 152.42C509.79 152.359 510.129 152.359 510.46 152.42C510.731 152.511 510.968 152.681 511.14 152.91C511.352 153.44 511.48 154 511.52 154.57C511.52 154.71 511.59 154.18 511.81 153.83C511.924 153.491 512.211 153.238 512.562 153.167C512.913 153.097 513.275 153.218 513.512 153.487C513.749 153.756 513.824 154.131 513.71 154.47C513.71 155.12 513.71 155.09 513.71 155.53C513.71 155.97 513.71 156.36 513.71 156.73C513.673 157.315 513.593 157.897 513.47 158.47C513.296 158.977 513.054 159.458 512.75 159.9C512.264 160.44 511.863 161.05 511.56 161.71C511.485 162.038 511.451 162.374 511.46 162.71C511.459 163.021 511.499 163.33 511.58 163.63C511.171 163.673 510.759 163.673 510.35 163.63C509.96 163.57 509.48 162.79 509.35 162.55C509.286 162.421 509.154 162.34 509.01 162.34C508.866 162.34 508.734 162.421 508.67 162.55C508.45 162.93 507.96 163.62 507.62 163.66C506.95 163.74 505.57 163.66 504.48 163.66C504.48 163.66 504.66 162.66 504.25 162.3C503.84 161.94 503.42 161.52 503.11 161.24L502.27 160.28Z"
        stroke="black" stroke-width="0.75" stroke-linecap="round" stroke-linejoin="round" />
      <path
        d="M510.75 160.826V157.374C510.75 157.167 510.582 157 510.375 157C510.168 157 510 157.167 510 157.374V160.826C510 161.033 510.168 161.2 510.375 161.2C510.582 161.2 510.75 161.033 510.75 160.826Z"
        fill="black" />
      <path
        d="M508.77 160.825L508.75 157.371C508.749 157.165 508.58 156.999 508.373 157C508.166 157.001 507.999 157.169 508 157.375L508.02 160.829C508.021 161.035 508.19 161.201 508.397 161.2C508.604 161.199 508.771 161.031 508.77 160.825Z"
        fill="black" />
      <path
        d="M506 157.379L506.02 160.825C506.021 161.033 506.19 161.201 506.397 161.2C506.604 161.199 506.771 161.029 506.77 160.821L506.75 157.375C506.749 157.167 506.58 156.999 506.373 157C506.166 157.001 505.999 157.171 506 157.379Z"
        fill="black" />
    </g>
    <rect x="340.5" y="20.5" width="299" height="233" rx="7.5" stroke="#E8E7E6" />
  </g>
  <g filter="url(#filter4_d_1289_13311)">
    <rect x="660" y="20" width="300" height="234" rx="8" fill="#FCFBF9" />
    <g clip-path="url(#clip0_1289_13311)">
      <path
        d="M770 143.564C770 148.44 787.877 152.315 810.004 152.315C832.132 152.315 850.009 148.44 850.009 143.564C850.009 138.689 832.132 134.813 810.004 134.813C787.877 134.813 770 138.689 770 143.564Z"
        fill="#F2F1EF" />
      <path
        d="M822.005 122.187C822.005 120.187 823.255 118.562 824.756 118.562H838.757V141.189C838.757 143.814 837.132 146.064 835.132 146.064H785.001C783.001 146.064 781.251 143.939 781.251 141.189V118.562H795.252C796.753 118.562 798.003 120.187 798.003 122.187C798.003 124.187 799.253 125.812 800.753 125.812H819.255C820.755 125.812 822.005 124.187 822.005 122.187Z"
        fill="#F7F6F4" />
      <path
        d="M826.631 103.56C826.006 102.435 825.006 101.81 823.631 101.685H796.378C795.127 101.81 794.002 102.435 793.502 103.56L780.626 117.936V141.189C780.626 144.189 782.501 146.69 785.001 146.69H835.007C837.382 146.69 839.257 144.189 839.257 141.189V117.936L826.631 103.56ZM794.377 104.31C794.877 103.435 795.503 103.06 796.378 102.935H823.631C824.506 102.935 825.131 103.435 825.506 104.185L837.632 117.937H824.756C822.88 117.937 821.38 119.812 821.38 122.187C821.38 123.812 820.38 125.187 819.255 125.187H800.753C799.503 125.187 798.628 123.812 798.628 122.187C798.628 119.812 797.128 117.937 795.253 117.937H782.376L794.377 104.31ZM838.132 141.189C838.132 143.439 836.757 145.439 835.132 145.439H785.001C783.251 145.439 781.876 143.564 781.876 141.189V119.187H795.253C796.378 119.187 797.378 120.562 797.378 122.312C797.378 124.687 798.878 126.562 800.753 126.562H819.255C821.13 126.562 822.63 124.687 822.63 122.312C822.63 120.687 823.631 119.312 824.756 119.312H838.007V141.189H838.132Z"
        fill="#EBEAE7" />
    </g>
    <path
      d="M790.513 176.072V176.839C789.902 176.891 789.265 176.956 788.602 177.021V178.022H787.744V177.086C786.886 177.138 785.976 177.203 785.04 177.255L784.923 176.423C785.911 176.371 786.86 176.332 787.744 176.28V175.201H785.326L785.118 174.46C785.482 174.044 785.833 173.55 786.145 172.965H784.754V172.133H786.561C786.678 171.847 786.795 171.561 786.899 171.275L787.835 171.431C787.744 171.665 787.653 171.899 787.549 172.133H790.721V172.965H787.159C786.873 173.511 786.561 174.005 786.236 174.434H787.744V173.576H788.602V174.434H790.63V175.201H788.602V176.228C789.278 176.176 789.915 176.124 790.513 176.072ZM792.333 175.214C792.19 176.306 791.839 177.255 791.28 178.061L790.63 177.385C791.202 176.54 791.514 175.539 791.54 174.369V172.328C793.152 172.172 794.426 171.886 795.336 171.47L795.934 172.172C794.972 172.588 793.802 172.887 792.398 173.043V174.395H796.298V175.214H794.92V178.035H794.023V175.214H792.333ZM794.842 178.412V183.3H793.88V182.793H787.276V183.3H786.314V178.412H794.842ZM787.276 181.987H793.88V180.973H787.276V181.987ZM787.276 180.219H793.88V179.205H787.276V180.219ZM798.729 172.081H808.063V172.991H803.409V173.862C803.383 174.668 803.331 175.435 803.24 176.137H809.116V177.034H805.086V181.571C805.086 181.987 805.294 182.208 805.71 182.208H807.361C807.673 182.208 807.907 182.117 808.05 181.948C808.232 181.74 808.349 181.142 808.414 180.128L809.298 180.414C809.194 181.688 808.999 182.455 808.713 182.741C808.466 182.975 808.076 183.092 807.53 183.092H805.424C804.566 183.092 804.15 182.65 804.15 181.766V177.034H803.097C802.889 178.165 802.564 179.14 802.122 179.972C801.316 181.376 800.016 182.481 798.209 183.261L797.689 182.429C799.483 181.623 800.718 180.57 801.42 179.244C801.732 178.594 801.966 177.853 802.135 177.034H797.858V176.137H802.291C802.395 175.435 802.447 174.668 802.46 173.862V172.991H798.729V172.081ZM818.554 174.265L818.385 174.941C818.71 176.462 819.126 177.775 819.646 178.867C820.153 177.554 820.426 176.02 820.478 174.265H818.554ZM819.217 179.803C818.71 178.802 818.281 177.658 817.93 176.358C817.696 176.956 817.436 177.489 817.163 177.957L816.578 177.242C817.345 175.786 817.865 173.823 818.125 171.353L819.035 171.509C818.957 172.172 818.853 172.796 818.749 173.368H822.181V174.265H821.336C821.271 176.436 820.868 178.295 820.14 179.829C820.816 180.999 821.609 181.896 822.545 182.533L822.038 183.3C821.128 182.65 820.348 181.766 819.698 180.674C819.074 181.714 818.268 182.585 817.293 183.287L816.812 182.507C817.826 181.805 818.619 180.908 819.217 179.803ZM813.055 177.424L813.926 177.528C813.835 177.775 813.744 178.009 813.666 178.243H816.383V179.01C816.097 179.868 815.616 180.609 814.94 181.233C815.564 181.519 816.162 181.805 816.734 182.117L816.227 182.845C815.655 182.507 814.992 182.156 814.225 181.818C813.367 182.416 812.288 182.897 810.988 183.261L810.546 182.481C811.612 182.195 812.535 181.844 813.289 181.415C812.717 181.168 812.119 180.921 811.482 180.687C811.82 180.115 812.119 179.582 812.379 179.062H810.845V178.243H812.743C812.86 177.957 812.964 177.684 813.055 177.424ZM814.082 180.869C814.732 180.349 815.226 179.738 815.538 179.062H813.302C813.094 179.504 812.86 179.92 812.6 180.31C813.12 180.492 813.614 180.674 814.082 180.869ZM811.872 171.626C812.184 172.133 812.444 172.679 812.678 173.251L812.002 173.563C811.729 172.926 811.443 172.367 811.131 171.873L811.872 171.626ZM815.824 171.587L816.5 171.899C816.24 172.471 815.915 173.03 815.499 173.576L814.836 173.238C815.252 172.679 815.59 172.133 815.824 171.587ZM810.871 173.875H813.406V171.392H814.277V173.875H816.643V174.694H814.277V174.837C814.979 175.188 815.707 175.591 816.435 176.033L815.954 176.761C815.304 176.241 814.745 175.825 814.277 175.513V177.203H813.406V174.733C812.977 175.76 812.197 176.644 811.079 177.398L810.624 176.644C811.625 176.059 812.327 175.409 812.717 174.694H810.871V173.875ZM825.132 183.183H824.027L823.832 182.299C824.17 182.338 824.508 182.364 824.82 182.364C825.145 182.364 825.314 182.169 825.314 181.805V178.62C824.794 178.815 824.287 178.997 823.78 179.153L823.546 178.243C824.144 178.1 824.742 177.918 825.314 177.71V174.772H823.754V173.875H825.314V171.418H826.224V173.875H827.472V174.772H826.224V177.333C826.64 177.151 827.043 176.956 827.433 176.748V177.671C827.03 177.879 826.627 178.061 826.224 178.243V182.039C826.224 182.793 825.86 183.183 825.132 183.183ZM829.019 177.437C828.863 179.66 828.356 181.61 827.498 183.3L826.77 182.65C827.693 180.934 828.161 178.698 828.174 175.968V171.899H835.025V175.058H832.581V176.592H835.363V177.437H832.581V179.036H834.765V183.3H833.894V182.663H830.371V183.3H829.5V179.036H831.671V177.437H829.019ZM831.671 175.058H829.084V175.968C829.084 176.176 829.071 176.384 829.071 176.592H831.671V175.058ZM830.371 181.831H833.894V179.868H830.371V181.831ZM834.115 172.77H829.084V174.213H834.115V172.77Z"
      fill="#C3C6CD" />
    <rect x="660.5" y="20.5" width="299" height="233" rx="7.5" stroke="#E8E7E6" />
  </g>
  <rect x="0.5" y="0.5" width="979" height="273" rx="4.5" stroke="#9747FF" stroke-dasharray="10 5" />
  <defs>
    <filter id="filter0_d_1289_13311" x="8" y="11" width="324" height="258" filterUnits="userSpaceOnUse"
      color-interpolation-filters="sRGB">
      <feFlood flood-opacity="0" result="BackgroundImageFix" />
      <feColorMatrix in="SourceAlpha" type="matrix" values="0 0 0 0 0 0 0 0 0 0 0 0 0 0 0 0 0 0 127 0"
        result="hardAlpha" />
      <feOffset dy="3" />
      <feGaussianBlur stdDeviation="6" />
      <feComposite in2="hardAlpha" operator="out" />
      <feColorMatrix type="matrix" values="0 0 0 0 0.2 0 0 0 0 0.173333 0 0 0 0 0.12 0 0 0 0.1 0" />
      <feBlend mode="normal" in2="BackgroundImageFix" result="effect1_dropShadow_1289_13311" />
      <feBlend mode="normal" in="SourceGraphic" in2="effect1_dropShadow_1289_13311" result="shape" />
    </filter>
    <filter id="filter1_d_1289_13311" x="172.2" y="143.2" width="27.6" height="27.6" filterUnits="userSpaceOnUse"
      color-interpolation-filters="sRGB">
      <feFlood flood-opacity="0" result="BackgroundImageFix" />
      <feColorMatrix in="SourceAlpha" type="matrix" values="0 0 0 0 0 0 0 0 0 0 0 0 0 0 0 0 0 0 127 0"
        result="hardAlpha" />
      <feOffset dy="1" />
      <feGaussianBlur stdDeviation="0.9" />
      <feColorMatrix type="matrix" values="0 0 0 0 0 0 0 0 0 0 0 0 0 0 0 0 0 0 0.65 0" />
      <feBlend mode="normal" in2="BackgroundImageFix" result="effect1_dropShadow_1289_13311" />
      <feBlend mode="normal" in="SourceGraphic" in2="effect1_dropShadow_1289_13311" result="shape" />
    </filter>
    <filter id="filter2_d_1289_13311" x="328" y="11" width="324" height="258" filterUnits="userSpaceOnUse"
      color-interpolation-filters="sRGB">
      <feFlood flood-opacity="0" result="BackgroundImageFix" />
      <feColorMatrix in="SourceAlpha" type="matrix" values="0 0 0 0 0 0 0 0 0 0 0 0 0 0 0 0 0 0 127 0"
        result="hardAlpha" />
      <feOffset dy="3" />
      <feGaussianBlur stdDeviation="6" />
      <feComposite in2="hardAlpha" operator="out" />
      <feColorMatrix type="matrix" values="0 0 0 0 0.2 0 0 0 0 0.173333 0 0 0 0 0.12 0 0 0 0.1 0" />
      <feBlend mode="normal" in2="BackgroundImageFix" result="effect1_dropShadow_1289_13311" />
      <feBlend mode="normal" in="SourceGraphic" in2="effect1_dropShadow_1289_13311" result="shape" />
    </filter>
    <filter id="filter3_d_1289_13311" x="492.2" y="143.2" width="27.6" height="27.6" filterUnits="userSpaceOnUse"
      color-interpolation-filters="sRGB">
      <feFlood flood-opacity="0" result="BackgroundImageFix" />
      <feColorMatrix in="SourceAlpha" type="matrix" values="0 0 0 0 0 0 0 0 0 0 0 0 0 0 0 0 0 0 127 0"
        result="hardAlpha" />
      <feOffset dy="1" />
      <feGaussianBlur stdDeviation="0.9" />
      <feColorMatrix type="matrix" values="0 0 0 0 0 0 0 0 0 0 0 0 0 0 0 0 0 0 0.65 0" />
      <feBlend mode="normal" in2="BackgroundImageFix" result="effect1_dropShadow_1289_13311" />
      <feBlend mode="normal" in="SourceGraphic" in2="effect1_dropShadow_1289_13311" result="shape" />
    </filter>
    <filter id="filter4_d_1289_13311" x="648" y="11" width="324" height="258" filterUnits="userSpaceOnUse"
      color-interpolation-filters="sRGB">
      <feFlood flood-opacity="0" result="BackgroundImageFix" />
      <feColorMatrix in="SourceAlpha" type="matrix" values="0 0 0 0 0 0 0 0 0 0 0 0 0 0 0 0 0 0 127 0"
        result="hardAlpha" />
      <feOffset dy="3" />
      <feGaussianBlur stdDeviation="6" />
      <feComposite in2="hardAlpha" operator="out" />
      <feColorMatrix type="matrix" values="0 0 0 0 0.2 0 0 0 0 0.173333 0 0 0 0 0.12 0 0 0 0.1 0" />
      <feBlend mode="normal" in2="BackgroundImageFix" result="effect1_dropShadow_1289_13311" />
      <feBlend mode="normal" in="SourceGraphic" in2="effect1_dropShadow_1289_13311" result="shape" />
    </filter>
    <clipPath id="clip0_1289_13311">
      <rect width="80" height="80" fill="white" transform="translate(770 87)" />
    </clipPath>
  </defs>
</svg>