<svg width="860" height="540" viewBox="0 0 860 540" fill="none" xmlns="http://www.w3.org/2000/svg">
  <rect x="0.5" y="0.5" width="859" height="539" rx="4.5" fill="#FCFBF9" />
  <rect width="400" height="240" transform="translate(20 20)" fill="#FCFBF9" />
  <path
    d="M181 146.5C181 151.236 198.428 155 220 155C241.572 155 259 151.236 259 146.5C259 141.764 241.572 138 220 138C198.428 138 181 141.764 181 146.5Z"
    fill="#EBEAE7" />
  <path
    d="M232.006 125.187C232.006 123.187 233.256 121.562 234.756 121.562H248.757V144.189C248.757 146.814 247.132 149.064 245.132 149.064H195.002C193.001 149.064 191.251 146.939 191.251 144.189V121.562H205.253C206.753 121.562 208.003 123.187 208.003 125.187C208.003 127.187 209.253 128.812 210.753 128.812H229.255C230.755 128.812 232.006 127.187 232.006 125.187Z"
    fill="#F2F1EF" />
  <path
    d="M236.577 106.59L236.576 106.591L236.585 106.601L249.196 120.96V144.189C249.196 145.677 248.731 147.038 247.974 148.027C247.217 149.015 246.171 149.628 245.007 149.628H195.002C192.549 149.628 190.688 147.17 190.688 144.189V120.96L203.549 106.601L203.555 106.594L203.559 106.585C204.047 105.487 205.147 104.871 206.381 104.747L233.628 104.747C234.983 104.871 235.963 105.485 236.577 106.59ZM206.378 105.873V105.873L206.369 105.874C205.925 105.937 205.54 106.065 205.203 106.29C204.866 106.514 204.58 106.833 204.327 107.274L192.33 120.896L192.239 120.998H192.376H205.253C207.081 120.998 208.566 122.832 208.566 125.187C208.566 126.01 208.788 126.773 209.171 127.332C209.554 127.891 210.103 128.249 210.753 128.249H229.255C229.844 128.249 230.392 127.89 230.79 127.333C231.189 126.775 231.442 126.012 231.442 125.187C231.442 122.832 232.927 120.998 234.756 120.998H247.632H247.769L247.679 120.896L235.558 107.15C235.174 106.388 234.532 105.873 233.631 105.873H206.378ZM248.194 144.189V144.127H248.132H248.069V122.312V122.25H248.007H234.756C234.167 122.25 233.619 122.609 233.221 123.167C232.822 123.724 232.569 124.487 232.569 125.312C232.569 127.667 231.084 129.501 229.255 129.501H210.753C208.925 129.501 207.44 127.667 207.44 125.312C207.44 124.426 207.187 123.632 206.788 123.058C206.39 122.485 205.842 122.125 205.253 122.125H191.876H191.814V122.187V144.189C191.814 145.388 192.161 146.464 192.733 147.242C193.304 148.019 194.103 148.501 195.002 148.501H245.132C245.971 148.501 246.738 147.985 247.292 147.194C247.847 146.401 248.194 145.326 248.194 144.189Z"
    fill="#E8E7E6" stroke="#E8E7E6" stroke-width="0.123609" />
  <path
    d="M200.513 179.072V179.839C199.902 179.891 199.265 179.956 198.602 180.021V181.022H197.744V180.086C196.886 180.138 195.976 180.203 195.04 180.255L194.923 179.423C195.911 179.371 196.86 179.332 197.744 179.28V178.201H195.326L195.118 177.46C195.482 177.044 195.833 176.55 196.145 175.965H194.754V175.133H196.561C196.678 174.847 196.795 174.561 196.899 174.275L197.835 174.431C197.744 174.665 197.653 174.899 197.549 175.133H200.721V175.965H197.159C196.873 176.511 196.561 177.005 196.236 177.434H197.744V176.576H198.602V177.434H200.63V178.201H198.602V179.228C199.278 179.176 199.915 179.124 200.513 179.072ZM202.333 178.214C202.19 179.306 201.839 180.255 201.28 181.061L200.63 180.385C201.202 179.54 201.514 178.539 201.54 177.369V175.328C203.152 175.172 204.426 174.886 205.336 174.47L205.934 175.172C204.972 175.588 203.802 175.887 202.398 176.043V177.395H206.298V178.214H204.92V181.035H204.023V178.214H202.333ZM204.842 181.412V186.3H203.88V185.793H197.276V186.3H196.314V181.412H204.842ZM197.276 184.987H203.88V183.973H197.276V184.987ZM197.276 183.219H203.88V182.205H197.276V183.219ZM208.729 175.081H218.063V175.991H213.409V176.862C213.383 177.668 213.331 178.435 213.24 179.137H219.116V180.034H215.086V184.571C215.086 184.987 215.294 185.208 215.71 185.208H217.361C217.673 185.208 217.907 185.117 218.05 184.948C218.232 184.74 218.349 184.142 218.414 183.128L219.298 183.414C219.194 184.688 218.999 185.455 218.713 185.741C218.466 185.975 218.076 186.092 217.53 186.092H215.424C214.566 186.092 214.15 185.65 214.15 184.766V180.034H213.097C212.889 181.165 212.564 182.14 212.122 182.972C211.316 184.376 210.016 185.481 208.209 186.261L207.689 185.429C209.483 184.623 210.718 183.57 211.42 182.244C211.732 181.594 211.966 180.853 212.135 180.034H207.858V179.137H212.291C212.395 178.435 212.447 177.668 212.46 176.862V175.991H208.729V175.081ZM228.554 177.265L228.385 177.941C228.71 179.462 229.126 180.775 229.646 181.867C230.153 180.554 230.426 179.02 230.478 177.265H228.554ZM229.217 182.803C228.71 181.802 228.281 180.658 227.93 179.358C227.696 179.956 227.436 180.489 227.163 180.957L226.578 180.242C227.345 178.786 227.865 176.823 228.125 174.353L229.035 174.509C228.957 175.172 228.853 175.796 228.749 176.368H232.181V177.265H231.336C231.271 179.436 230.868 181.295 230.14 182.829C230.816 183.999 231.609 184.896 232.545 185.533L232.038 186.3C231.128 185.65 230.348 184.766 229.698 183.674C229.074 184.714 228.268 185.585 227.293 186.287L226.812 185.507C227.826 184.805 228.619 183.908 229.217 182.803ZM223.055 180.424L223.926 180.528C223.835 180.775 223.744 181.009 223.666 181.243H226.383V182.01C226.097 182.868 225.616 183.609 224.94 184.233C225.564 184.519 226.162 184.805 226.734 185.117L226.227 185.845C225.655 185.507 224.992 185.156 224.225 184.818C223.367 185.416 222.288 185.897 220.988 186.261L220.546 185.481C221.612 185.195 222.535 184.844 223.289 184.415C222.717 184.168 222.119 183.921 221.482 183.687C221.82 183.115 222.119 182.582 222.379 182.062H220.845V181.243H222.743C222.86 180.957 222.964 180.684 223.055 180.424ZM224.082 183.869C224.732 183.349 225.226 182.738 225.538 182.062H223.302C223.094 182.504 222.86 182.92 222.6 183.31C223.12 183.492 223.614 183.674 224.082 183.869ZM221.872 174.626C222.184 175.133 222.444 175.679 222.678 176.251L222.002 176.563C221.729 175.926 221.443 175.367 221.131 174.873L221.872 174.626ZM225.824 174.587L226.5 174.899C226.24 175.471 225.915 176.03 225.499 176.576L224.836 176.238C225.252 175.679 225.59 175.133 225.824 174.587ZM220.871 176.875H223.406V174.392H224.277V176.875H226.643V177.694H224.277V177.837C224.979 178.188 225.707 178.591 226.435 179.033L225.954 179.761C225.304 179.241 224.745 178.825 224.277 178.513V180.203H223.406V177.733C222.977 178.76 222.197 179.644 221.079 180.398L220.624 179.644C221.625 179.059 222.327 178.409 222.717 177.694H220.871V176.875ZM235.132 186.183H234.027L233.832 185.299C234.17 185.338 234.508 185.364 234.82 185.364C235.145 185.364 235.314 185.169 235.314 184.805V181.62C234.794 181.815 234.287 181.997 233.78 182.153L233.546 181.243C234.144 181.1 234.742 180.918 235.314 180.71V177.772H233.754V176.875H235.314V174.418H236.224V176.875H237.472V177.772H236.224V180.333C236.64 180.151 237.043 179.956 237.433 179.748V180.671C237.03 180.879 236.627 181.061 236.224 181.243V185.039C236.224 185.793 235.86 186.183 235.132 186.183ZM239.019 180.437C238.863 182.66 238.356 184.61 237.498 186.3L236.77 185.65C237.693 183.934 238.161 181.698 238.174 178.968V174.899H245.025V178.058H242.581V179.592H245.363V180.437H242.581V182.036H244.765V186.3H243.894V185.663H240.371V186.3H239.5V182.036H241.671V180.437H239.019ZM241.671 178.058H239.084V178.968C239.084 179.176 239.071 179.384 239.071 179.592H241.671V178.058ZM240.371 184.831H243.894V182.868H240.371V184.831ZM244.115 175.77H239.084V177.213H244.115V175.77Z"
    fill="#C3C6CD" />
  <rect width="400" height="240" transform="translate(440 20)" fill="#FCFBF9" />
  <path
    d="M601 124.5C601 129.236 618.428 133 640 133C661.572 133 679 129.236 679 124.5C679 119.764 661.572 116 640 116C618.428 116 601 119.764 601 124.5Z"
    fill="#EBEAE7" />
  <path
    d="M652.006 103.187C652.006 101.187 653.256 99.5615 654.756 99.5615H668.757V122.189C668.757 124.814 667.132 127.064 665.132 127.064H615.002C613.001 127.064 611.251 124.939 611.251 122.189V99.5615H625.253C626.753 99.5615 628.003 101.187 628.003 103.187C628.003 105.187 629.253 106.812 630.753 106.812H649.255C650.755 106.812 652.006 105.187 652.006 103.187Z"
    fill="#F2F1EF" />
  <path
    d="M656.577 84.59L656.576 84.5907L656.585 84.6008L669.196 98.9598V122.189C669.196 123.677 668.731 125.038 667.974 126.027C667.217 127.015 666.171 127.628 665.007 127.628H615.002C612.549 127.628 610.688 125.17 610.688 122.189V98.9601L623.548 84.6013L623.555 84.594L623.559 84.5851C624.047 83.4867 625.147 82.8708 626.381 82.7466L653.628 82.7466C654.983 82.8705 655.963 83.485 656.577 84.59ZM626.378 83.8731V83.8725L626.369 83.8738C625.925 83.9372 625.54 84.0647 625.203 84.2898C624.866 84.514 624.58 84.8327 624.327 85.2739L612.33 98.8957L612.239 98.9983H612.376H625.253C627.081 98.9983 628.566 100.832 628.566 103.187C628.566 104.01 628.788 104.773 629.171 105.332C629.554 105.891 630.103 106.249 630.753 106.249H649.255C649.844 106.249 650.392 105.89 650.79 105.333C651.189 104.775 651.442 104.012 651.442 103.187C651.442 100.832 652.927 98.9983 654.756 98.9983H667.632H667.769L667.679 98.8957L655.558 85.1502C655.174 84.3884 654.532 83.8731 653.631 83.8731H626.378ZM668.194 122.189V122.127H668.132H668.069V100.312V100.25H668.007H654.756C654.167 100.25 653.619 100.609 653.221 101.167C652.822 101.724 652.569 102.487 652.569 103.312C652.569 105.667 651.084 107.501 649.255 107.501H630.753C628.925 107.501 627.44 105.667 627.44 103.312C627.44 102.426 627.187 101.632 626.788 101.058C626.39 100.485 625.842 100.125 625.253 100.125H611.876H611.814V100.187V122.189C611.814 123.388 612.161 124.464 612.733 125.242C613.304 126.019 614.103 126.501 615.002 126.501H665.132C665.971 126.501 666.738 125.985 667.292 125.194C667.847 124.401 668.194 123.326 668.194 122.189Z"
    fill="#E8E7E6" stroke="#E8E7E6" stroke-width="0.123609" />
  <path
    d="M620.513 157.072V157.839C619.902 157.891 619.265 157.956 618.602 158.021V159.022H617.744V158.086C616.886 158.138 615.976 158.203 615.04 158.255L614.923 157.423C615.911 157.371 616.86 157.332 617.744 157.28V156.201H615.326L615.118 155.46C615.482 155.044 615.833 154.55 616.145 153.965H614.754V153.133H616.561C616.678 152.847 616.795 152.561 616.899 152.275L617.835 152.431C617.744 152.665 617.653 152.899 617.549 153.133H620.721V153.965H617.159C616.873 154.511 616.561 155.005 616.236 155.434H617.744V154.576H618.602V155.434H620.63V156.201H618.602V157.228C619.278 157.176 619.915 157.124 620.513 157.072ZM622.333 156.214C622.19 157.306 621.839 158.255 621.28 159.061L620.63 158.385C621.202 157.54 621.514 156.539 621.54 155.369V153.328C623.152 153.172 624.426 152.886 625.336 152.47L625.934 153.172C624.972 153.588 623.802 153.887 622.398 154.043V155.395H626.298V156.214H624.92V159.035H624.023V156.214H622.333ZM624.842 159.412V164.3H623.88V163.793H617.276V164.3H616.314V159.412H624.842ZM617.276 162.987H623.88V161.973H617.276V162.987ZM617.276 161.219H623.88V160.205H617.276V161.219ZM628.729 153.081H638.063V153.991H633.409V154.862C633.383 155.668 633.331 156.435 633.24 157.137H639.116V158.034H635.086V162.571C635.086 162.987 635.294 163.208 635.71 163.208H637.361C637.673 163.208 637.907 163.117 638.05 162.948C638.232 162.74 638.349 162.142 638.414 161.128L639.298 161.414C639.194 162.688 638.999 163.455 638.713 163.741C638.466 163.975 638.076 164.092 637.53 164.092H635.424C634.566 164.092 634.15 163.65 634.15 162.766V158.034H633.097C632.889 159.165 632.564 160.14 632.122 160.972C631.316 162.376 630.016 163.481 628.209 164.261L627.689 163.429C629.483 162.623 630.718 161.57 631.42 160.244C631.732 159.594 631.966 158.853 632.135 158.034H627.858V157.137H632.291C632.395 156.435 632.447 155.668 632.46 154.862V153.991H628.729V153.081ZM648.554 155.265L648.385 155.941C648.71 157.462 649.126 158.775 649.646 159.867C650.153 158.554 650.426 157.02 650.478 155.265H648.554ZM649.217 160.803C648.71 159.802 648.281 158.658 647.93 157.358C647.696 157.956 647.436 158.489 647.163 158.957L646.578 158.242C647.345 156.786 647.865 154.823 648.125 152.353L649.035 152.509C648.957 153.172 648.853 153.796 648.749 154.368H652.181V155.265H651.336C651.271 157.436 650.868 159.295 650.14 160.829C650.816 161.999 651.609 162.896 652.545 163.533L652.038 164.3C651.128 163.65 650.348 162.766 649.698 161.674C649.074 162.714 648.268 163.585 647.293 164.287L646.812 163.507C647.826 162.805 648.619 161.908 649.217 160.803ZM643.055 158.424L643.926 158.528C643.835 158.775 643.744 159.009 643.666 159.243H646.383V160.01C646.097 160.868 645.616 161.609 644.94 162.233C645.564 162.519 646.162 162.805 646.734 163.117L646.227 163.845C645.655 163.507 644.992 163.156 644.225 162.818C643.367 163.416 642.288 163.897 640.988 164.261L640.546 163.481C641.612 163.195 642.535 162.844 643.289 162.415C642.717 162.168 642.119 161.921 641.482 161.687C641.82 161.115 642.119 160.582 642.379 160.062H640.845V159.243H642.743C642.86 158.957 642.964 158.684 643.055 158.424ZM644.082 161.869C644.732 161.349 645.226 160.738 645.538 160.062H643.302C643.094 160.504 642.86 160.92 642.6 161.31C643.12 161.492 643.614 161.674 644.082 161.869ZM641.872 152.626C642.184 153.133 642.444 153.679 642.678 154.251L642.002 154.563C641.729 153.926 641.443 153.367 641.131 152.873L641.872 152.626ZM645.824 152.587L646.5 152.899C646.24 153.471 645.915 154.03 645.499 154.576L644.836 154.238C645.252 153.679 645.59 153.133 645.824 152.587ZM640.871 154.875H643.406V152.392H644.277V154.875H646.643V155.694H644.277V155.837C644.979 156.188 645.707 156.591 646.435 157.033L645.954 157.761C645.304 157.241 644.745 156.825 644.277 156.513V158.203H643.406V155.733C642.977 156.76 642.197 157.644 641.079 158.398L640.624 157.644C641.625 157.059 642.327 156.409 642.717 155.694H640.871V154.875ZM655.132 164.183H654.027L653.832 163.299C654.17 163.338 654.508 163.364 654.82 163.364C655.145 163.364 655.314 163.169 655.314 162.805V159.62C654.794 159.815 654.287 159.997 653.78 160.153L653.546 159.243C654.144 159.1 654.742 158.918 655.314 158.71V155.772H653.754V154.875H655.314V152.418H656.224V154.875H657.472V155.772H656.224V158.333C656.64 158.151 657.043 157.956 657.433 157.748V158.671C657.03 158.879 656.627 159.061 656.224 159.243V163.039C656.224 163.793 655.86 164.183 655.132 164.183ZM659.019 158.437C658.863 160.66 658.356 162.61 657.498 164.3L656.77 163.65C657.693 161.934 658.161 159.698 658.174 156.968V152.899H665.025V156.058H662.581V157.592H665.363V158.437H662.581V160.036H664.765V164.3H663.894V163.663H660.371V164.3H659.5V160.036H661.671V158.437H659.019ZM661.671 156.058H659.084V156.968C659.084 157.176 659.071 157.384 659.071 157.592H661.671V156.058ZM660.371 162.831H663.894V160.868H660.371V162.831ZM664.115 153.77H659.084V155.213H664.115V153.77Z"
    fill="#8A8F99" />
  <g filter="url(#filter0_d_1705_5816)">
    <rect x="612" y="184" width="56" height="28" rx="4" fill="white" shape-rendering="crispEdges" />
    <path
      d="M631.745 196.565H632.863V197.696H634.826V201.882C634.826 202.662 634.462 203.052 633.747 203.052H633.214L632.928 201.96L633.383 202.025C633.604 202.025 633.721 201.895 633.721 201.635V198.788H632.863V204.222H631.745V198.788H630.913V203.13H629.821V197.696H631.745V196.565ZM635.632 193.484H636.776V201.505H635.632V193.484ZM637.777 204.222H635.84L635.58 203.052C636.204 203.104 636.789 203.143 637.361 203.143C637.686 203.143 637.855 202.948 637.855 202.584V192.379H639.064V202.883C639.064 203.767 638.635 204.222 637.777 204.222ZM633.643 193.913H629.47V195.096H633.643V193.913ZM629.47 196.188V197.566C629.457 200.205 629.067 202.467 628.287 204.352L627.364 203.52C627.988 201.986 628.313 200.01 628.326 197.566V192.782H634.8V196.188H629.47ZM651.609 192.444L652.207 193.536C651.089 193.926 649.854 194.16 648.502 194.251V196.357H652.519V197.54H651.271V204.352H650.062V197.54H648.502V198.853C648.437 201.141 647.93 202.961 646.981 204.326L646.11 203.39C646.851 202.298 647.254 200.79 647.306 198.853V193.237C648.905 193.211 650.335 192.938 651.609 192.444ZM640.754 193.367H643.068C642.912 193.029 642.73 192.704 642.535 192.405L643.809 192.197C643.965 192.548 644.134 192.938 644.29 193.367H646.695V194.511H640.754V193.367ZM640.624 196.318H642.002C641.833 195.863 641.638 195.434 641.417 195.044L642.496 194.641C642.704 195.109 642.912 195.668 643.094 196.318H644.329C644.537 195.772 644.719 195.213 644.875 194.628L645.98 195.018C645.824 195.499 645.642 195.928 645.447 196.318H646.773V197.449H644.368V198.619H646.552V199.737H644.368V203.221C644.368 204.001 643.939 204.391 643.081 204.391H642.405L642.132 203.247C642.327 203.299 642.509 203.325 642.678 203.325C642.99 203.325 643.146 203.195 643.146 202.935V199.737H640.832V198.619H643.146V197.449H640.624V196.318ZM641.612 200.309L642.73 200.543C642.418 201.856 641.989 203 641.417 203.975L640.403 203.325C640.975 202.389 641.378 201.375 641.612 200.309ZM645.681 200.218C646.019 201.05 646.292 201.804 646.487 202.48L645.447 202.87C645.239 202.064 644.979 201.271 644.667 200.491L645.681 200.218Z"
      fill="#292C33" />
  </g>
  <rect width="400" height="240" transform="translate(20 280)" fill="#FCFBF9" />
  <path
    d="M181 370.5C181 375.236 198.428 379 220 379C241.572 379 259 375.236 259 370.5C259 365.764 241.572 362 220 362C198.428 362 181 365.764 181 370.5Z"
    fill="#EBEAE7" />
  <path
    d="M232.006 349.187C232.006 347.187 233.256 345.562 234.756 345.562H248.757V368.189C248.757 370.814 247.132 373.064 245.132 373.064H195.002C193.001 373.064 191.251 370.939 191.251 368.189V345.562H205.253C206.753 345.562 208.003 347.187 208.003 349.187C208.003 351.187 209.253 352.812 210.753 352.812H229.255C230.755 352.812 232.006 351.187 232.006 349.187Z"
    fill="#F2F1EF" />
  <path
    d="M236.577 330.59L236.576 330.591L236.585 330.601L249.196 344.96V368.189C249.196 369.677 248.731 371.038 247.974 372.027C247.217 373.015 246.171 373.628 245.007 373.628H195.002C192.549 373.628 190.688 371.17 190.688 368.189V344.96L203.549 330.601L203.555 330.594L203.559 330.585C204.047 329.487 205.147 328.871 206.381 328.747L233.628 328.747C234.983 328.871 235.963 329.485 236.577 330.59ZM206.378 329.873V329.873L206.369 329.874C205.925 329.937 205.54 330.065 205.203 330.29C204.866 330.514 204.58 330.833 204.327 331.274L192.33 344.896L192.239 344.998H192.376H205.253C207.081 344.998 208.566 346.832 208.566 349.187C208.566 350.01 208.788 350.773 209.171 351.332C209.554 351.891 210.103 352.249 210.753 352.249H229.255C229.844 352.249 230.392 351.89 230.79 351.333C231.189 350.775 231.442 350.012 231.442 349.187C231.442 346.832 232.927 344.998 234.756 344.998H247.632H247.769L247.679 344.896L235.558 331.15C235.174 330.388 234.532 329.873 233.631 329.873H206.378ZM248.194 368.189V368.127H248.132H248.069V346.312V346.25H248.007H234.756C234.167 346.25 233.619 346.609 233.221 347.167C232.822 347.724 232.569 348.487 232.569 349.312C232.569 351.667 231.084 353.501 229.255 353.501H210.753C208.925 353.501 207.44 351.667 207.44 349.312C207.44 348.426 207.187 347.632 206.788 347.058C206.39 346.485 205.842 346.125 205.253 346.125H191.876H191.814V346.187V368.189C191.814 369.388 192.161 370.464 192.733 371.242C193.304 372.019 194.103 372.501 195.002 372.501H245.132C245.971 372.501 246.738 371.985 247.292 371.194C247.847 370.401 248.194 369.326 248.194 368.189Z"
    fill="#E8E7E6" stroke="#E8E7E6" stroke-width="0.123609" />
  <path
    d="M196.016 404.56V405.792L193.84 405.984V407.104H192.432V406.096C191.424 406.16 190.384 406.24 189.296 406.304L189.12 404.992C190.288 404.944 191.392 404.896 192.432 404.832V403.808H189.632L189.312 402.576C189.68 402.16 190.032 401.648 190.384 401.04H188.88V399.696H191.024C191.152 399.376 191.264 399.056 191.392 398.736L192.896 398.976C192.8 399.216 192.72 399.456 192.624 399.696H196.32V401.04H192C191.712 401.584 191.392 402.096 191.072 402.56H192.432V401.616H193.84V402.56H196.176V403.808H193.84V404.736C194.608 404.672 195.328 404.624 196.016 404.56ZM198.432 403.824C198.24 405.12 197.792 406.256 197.12 407.248L196.064 406.144C196.736 405.152 197.104 403.968 197.136 402.608V399.968C199.216 399.776 200.784 399.424 201.84 398.928L202.832 400.048C201.664 400.56 200.224 400.928 198.528 401.12V402.496H203.152V403.824H201.616V407.12H200.16V403.824H198.432ZM201.52 407.472V413.648H199.984V413.088H192.208V413.648H190.672V407.472H201.52ZM192.208 411.792H199.984V410.848H192.208V411.792ZM192.208 409.648H199.984V408.736H192.208V409.648ZM206.048 399.6H217.696V401.088H212.064V402.048C212.032 402.944 211.968 403.776 211.872 404.576H218.96V406.048H214.128V411.184C214.128 411.696 214.368 411.968 214.864 411.968H216.672C216.992 411.968 217.232 411.856 217.392 411.632C217.568 411.408 217.696 410.672 217.76 409.456L219.184 409.92C219.056 411.6 218.8 412.608 218.448 412.928C218.128 413.232 217.632 413.392 216.96 413.392H214.4C213.216 413.392 212.624 412.752 212.624 411.504V406.048H211.632C211.344 407.424 210.944 408.608 210.416 409.616C209.424 411.36 207.824 412.704 205.616 413.648L204.768 412.288C206.976 411.28 208.464 410 209.248 408.464C209.584 407.728 209.856 406.928 210.048 406.048H205.008V404.576H210.32C210.416 403.776 210.48 402.944 210.512 402.048V401.088H206.048V399.6ZM230.672 402.656C230.608 402.912 230.544 403.152 230.48 403.376C230.832 405.04 231.296 406.496 231.856 407.744C232.384 406.272 232.672 404.576 232.736 402.656H230.672ZM231.168 409.296C230.624 408.192 230.144 406.944 229.744 405.552C229.488 406.128 229.232 406.672 228.944 407.152L227.984 405.968C228.88 404.208 229.488 401.84 229.808 398.864L231.296 399.12C231.2 399.856 231.104 400.544 230.976 401.2H235.04V402.656H234.112C234.016 405.264 233.536 407.488 232.672 409.328C233.472 410.656 234.4 411.696 235.488 412.432L234.64 413.664C233.6 412.912 232.704 411.92 231.936 410.688C231.184 411.856 230.24 412.848 229.12 413.648L228.336 412.384C229.52 411.584 230.464 410.56 231.168 409.296ZM223.584 406.304L225.008 406.48C224.912 406.736 224.832 406.976 224.736 407.232H228V408.464C227.712 409.424 227.2 410.272 226.464 411.008C227.12 411.296 227.76 411.616 228.368 411.936L227.552 413.12C226.928 412.736 226.176 412.352 225.296 411.952C224.24 412.64 222.912 413.184 221.328 413.6L220.624 412.352C221.824 412.064 222.864 411.712 223.728 411.264C223.072 410.992 222.368 410.72 221.632 410.432C222.016 409.76 222.368 409.136 222.672 408.528H220.992V407.232H223.248C223.376 406.912 223.488 406.592 223.584 406.304ZM225.072 410.432C225.776 409.872 226.288 409.232 226.64 408.528H224.16C223.936 408.976 223.696 409.408 223.44 409.824C224 410.016 224.544 410.208 225.072 410.432ZM222.48 399.12C222.832 399.728 223.136 400.368 223.408 401.072L222.32 401.568C222 400.8 221.648 400.112 221.28 399.52L222.48 399.12ZM227.072 399.104L228.144 399.616C227.824 400.288 227.424 400.96 226.928 401.616L225.872 401.072C226.384 400.4 226.784 399.744 227.072 399.104ZM221.024 401.84H224.048V398.896H225.44V401.84H228.224V403.168H225.44V403.248C226.288 403.6 227.152 404.016 228.032 404.48L227.232 405.68C226.528 405.12 225.936 404.672 225.44 404.352V406.144H224.048V403.44C223.52 404.592 222.64 405.6 221.408 406.464L220.656 405.232C221.776 404.592 222.56 403.904 223.04 403.168H221.024V401.84ZM238.64 413.504H237.28L236.96 412.064C237.36 412.128 237.744 412.176 238.128 412.176C238.48 412.176 238.672 411.968 238.672 411.552V408.112C238.096 408.32 237.536 408.512 236.976 408.704L236.592 407.2C237.296 407.04 237.984 406.832 238.672 406.592V403.28H236.88V401.824H238.672V398.928H240.144V401.824H241.552V403.28H240.144V406.016C240.592 405.808 241.056 405.584 241.504 405.344V406.832C241.04 407.056 240.592 407.28 240.144 407.488V411.92C240.144 412.976 239.632 413.504 238.64 413.504ZM243.616 406.56C243.408 409.248 242.8 411.616 241.776 413.664L240.592 412.608C241.664 410.544 242.208 407.888 242.224 404.64V399.424H250.88V403.568H247.968V405.168H251.264V406.56H247.968V408.208H250.544V413.648H249.136V412.96H245.344V413.648H243.936V408.208H246.496V406.56H243.616ZM246.496 403.568H243.696V404.64C243.696 404.816 243.68 404.992 243.68 405.168H246.496V403.568ZM245.344 411.616H249.136V409.552H245.344V411.616ZM249.408 400.816H243.696V402.208H249.408V400.816Z"
    fill="#8A8F99" />
  <path
    d="M154.077 431.384H151.308V436.753C151.308 437.052 151.464 437.208 151.802 437.208H154.285C154.727 437.208 155.013 437.091 155.117 436.883C155.234 436.636 155.325 436.155 155.377 435.44L156.261 435.726C156.17 436.831 156.001 437.507 155.767 437.767C155.559 437.975 155.143 438.079 154.532 438.079H151.438C150.71 438.079 150.359 437.741 150.359 437.078V430.552H154.987V434.01C154.974 434.712 154.61 435.076 153.895 435.102C153.401 435.102 152.92 435.089 152.465 435.063L152.231 434.179C152.725 434.231 153.167 434.257 153.557 434.257C153.895 434.257 154.077 434.075 154.077 433.724V431.384ZM152.426 426.496H153.115C154.246 427.692 155.338 428.953 156.378 430.279L155.767 430.929C154.649 429.447 153.674 428.264 152.842 427.38C151.88 428.81 150.775 430.123 149.501 431.319L148.955 430.565C150.229 429.408 151.386 428.056 152.426 426.496ZM157.145 427.523H158.055V435.622H157.145V427.523ZM159.316 438.183H157.301L157.093 437.286C157.756 437.325 158.393 437.351 158.991 437.351C159.316 437.351 159.485 437.156 159.485 436.766V426.418H160.421V437C160.421 437.78 160.044 438.183 159.316 438.183ZM172.862 431.709H170.08V432.749H173.122V433.516H170.08V434.595H173.499V435.388H170.08V436.675H169.17V435.388H166.219V434.595H169.17V433.516H166.622V432.749H169.17V431.709H166.895V430.929H169.17V429.889H166.258V429.109H169.17V428.082H166.895V427.302H169.17V426.353H170.08V427.302H172.862V429.109H173.733V429.889H172.862V431.709ZM170.08 428.082V429.109H171.952V428.082H170.08ZM170.08 429.889V430.929H171.952V429.889H170.08ZM169.469 437.143C170.899 437.143 172.368 437.117 173.876 437.078L173.72 437.975H169.872C167.532 437.975 165.855 437.637 164.841 436.961C164.672 436.831 164.529 436.714 164.399 436.584C163.983 437.195 163.463 437.728 162.865 438.183L162.254 437.39C162.865 436.948 163.372 436.428 163.788 435.83C163.281 435.102 162.865 434.179 162.553 433.061L163.333 432.775C163.593 433.698 163.905 434.452 164.243 435.024C164.685 434.101 164.945 433.022 165.023 431.787H162.618V431.059C163.372 430.097 164.074 429.057 164.698 427.939H162.566V427.055H165.751V427.822C165.101 429.018 164.451 430.045 163.827 430.929H165.868V431.488C165.816 433.204 165.465 434.66 164.841 435.856C165.049 436.077 165.257 436.246 165.478 436.376C166.362 436.87 167.701 437.117 169.469 437.143ZM180.532 428.277H176.073V427.38H185.966V428.277H181.494V436.506H186.811V437.403H175.202V436.506H180.532V428.277ZM189.463 428.407H195.066C195.482 427.757 195.859 427.042 196.184 426.288L197.094 426.613C196.782 427.276 196.431 427.874 196.041 428.407H198.537V433.75H194.468V434.985H199.772V435.869H194.468V438.339H193.532V435.869H188.228V434.985H193.532V433.75H189.463V428.407ZM197.627 432.918V431.462H194.468V432.918H197.627ZM193.532 432.918V431.462H190.373V432.918H193.532ZM190.373 430.656H193.532V429.226H190.373V430.656ZM194.468 429.226V430.656H197.627V429.226H194.468ZM191.764 426.353C192.193 426.847 192.596 427.406 192.986 428.004L192.206 428.394C191.816 427.77 191.413 427.224 190.971 426.73L191.764 426.353ZM203.464 430.968V431.306C203.386 434.218 202.788 436.532 201.696 438.261L201.007 437.546C201.956 436.038 202.463 433.958 202.541 431.306V427.406C205.895 427.367 208.898 427.068 211.576 426.509L212.044 427.354C209.496 427.874 206.636 428.16 203.464 428.238V430.058H212.824V430.968H203.464ZM211.797 432.788V438.3H210.861V437.689H205.596V438.3H204.66V432.788H211.797ZM205.596 436.779H210.861V433.685H205.596V436.779ZM217.504 430.006H222.522V434.634H217.504V430.006ZM221.638 433.841V430.812H218.375V433.841H221.638ZM225.213 427.159V438.092H224.303V437.533H215.697V438.092H214.787V427.159H225.213ZM215.697 436.701H224.303V427.991H215.697V436.701ZM233.845 436.129V437.052C231.843 437.468 229.685 437.832 227.371 438.118L227.163 437.221C228.203 437.104 229.217 436.974 230.205 436.818V434.361H227.67V433.451H230.205V431.943H231.141V433.451H233.481V434.361H231.141V436.662C232.064 436.506 232.961 436.324 233.845 436.129ZM227.332 426.951H233.793V427.835H230.452C229.828 429.135 229.243 430.11 228.697 430.773C229.984 430.643 231.206 430.487 232.376 430.279C232.09 429.811 231.765 429.343 231.414 428.862L232.129 428.394C233 429.564 233.663 430.591 234.131 431.462L233.351 432.008C233.182 431.67 233 431.332 232.792 430.981C231.154 431.267 229.347 431.514 227.397 431.709L227.176 430.864C227.332 430.838 227.462 430.812 227.553 430.773C228.086 430.305 228.723 429.33 229.464 427.835H227.332V426.951ZM237.225 438.183H235.314L235.106 437.273C235.73 437.299 236.328 437.325 236.9 437.325C237.264 437.325 237.459 437.13 237.459 436.753V426.418H238.408V436.987C238.408 437.78 238.005 438.183 237.225 438.183ZM234.859 427.588H235.769V435.635H234.859V427.588ZM240.436 428.771H245.519V426.418H246.481V428.771H251.551V429.668H247.313C248.184 431.735 249.744 433.581 251.98 435.206L251.343 436.012C249.055 434.14 247.469 432.021 246.585 429.668H246.481V434.738H249.263V435.635H246.481V438.3H245.519V435.635H242.841V434.738H245.519V429.668H245.428C244.466 432.307 242.828 434.478 240.514 436.181L239.981 435.31C242.165 433.854 243.725 431.969 244.687 429.668H240.436V428.771ZM263.017 429.226V435.375H262.081V430.136H255.867V435.401H254.931V429.226H258.22C258.35 428.771 258.441 428.303 258.506 427.809H253.28V426.925H264.72V427.809H259.494C259.416 428.303 259.325 428.784 259.195 429.226H263.017ZM259.858 435.401C261.535 435.973 263.069 436.649 264.447 437.455L263.875 438.339C262.393 437.416 260.885 436.688 259.338 436.168L259.858 435.401ZM258.519 430.916H259.481V432.983C259.429 434.413 258.961 435.544 258.103 436.402C257.271 437.195 255.906 437.806 254.008 438.248L253.475 437.416C255.36 437 256.673 436.454 257.414 435.765C258.116 435.05 258.48 434.127 258.519 432.983V430.916ZM268.139 431.254H275.913V436.038H268.139V431.254ZM275.003 435.206V434.062H269.049V435.206H275.003ZM269.049 433.269H275.003V432.086H269.049V433.269ZM266.683 427.549H271.571V426.353H272.481V427.549H277.369V428.407H273.378C274.353 429.356 275.861 430.11 277.915 430.656L277.512 431.501C275.172 430.708 273.521 429.681 272.559 428.407H272.481V430.838H271.571V428.407H271.493C270.479 429.655 268.828 430.695 266.553 431.514L266.059 430.682C268.139 430.084 269.686 429.317 270.7 428.407H266.683V427.549ZM266.423 437.052H277.59V437.923H266.423V437.052ZM280.086 428.771H284.207C284.35 428.459 284.48 428.134 284.61 427.822C283.336 427.9 281.958 427.939 280.476 427.939L280.203 427.159C283.895 427.159 286.95 426.912 289.381 426.418L289.81 427.159C288.575 427.432 287.145 427.627 285.507 427.757C285.39 428.108 285.26 428.446 285.13 428.771H289.966V429.577H284.753C284.597 429.889 284.428 430.175 284.259 430.461H290.72V431.293H283.687C283.453 431.605 283.219 431.904 282.972 432.19H289.42V438.313H288.523V437.754H282.647V438.313H281.75V433.438C281.087 434.036 280.359 434.621 279.553 435.167L279.046 434.361C280.463 433.399 281.633 432.385 282.556 431.293H279.384V430.461H283.206C283.414 430.162 283.609 429.863 283.778 429.577H280.086V428.771ZM282.647 434.556V435.375H288.523V434.556H282.647ZM288.523 433.828V432.957H282.647V433.828H288.523ZM282.647 436.103V436.987H288.523V436.103H282.647Z"
    fill="#C3C6CD" />
  <g filter="url(#filter1_d_1705_5816)">
    <rect x="192" y="458" width="56" height="28" rx="4" fill="white" shape-rendering="crispEdges" />
    <path
      d="M211.745 470.565H212.863V471.696H214.826V475.882C214.826 476.662 214.462 477.052 213.747 477.052H213.214L212.928 475.96L213.383 476.025C213.604 476.025 213.721 475.895 213.721 475.635V472.788H212.863V478.222H211.745V472.788H210.913V477.13H209.821V471.696H211.745V470.565ZM215.632 467.484H216.776V475.505H215.632V467.484ZM217.777 478.222H215.84L215.58 477.052C216.204 477.104 216.789 477.143 217.361 477.143C217.686 477.143 217.855 476.948 217.855 476.584V466.379H219.064V476.883C219.064 477.767 218.635 478.222 217.777 478.222ZM213.643 467.913H209.47V469.096H213.643V467.913ZM209.47 470.188V471.566C209.457 474.205 209.067 476.467 208.287 478.352L207.364 477.52C207.988 475.986 208.313 474.01 208.326 471.566V466.782H214.8V470.188H209.47ZM231.609 466.444L232.207 467.536C231.089 467.926 229.854 468.16 228.502 468.251V470.357H232.519V471.54H231.271V478.352H230.062V471.54H228.502V472.853C228.437 475.141 227.93 476.961 226.981 478.326L226.11 477.39C226.851 476.298 227.254 474.79 227.306 472.853V467.237C228.905 467.211 230.335 466.938 231.609 466.444ZM220.754 467.367H223.068C222.912 467.029 222.73 466.704 222.535 466.405L223.809 466.197C223.965 466.548 224.134 466.938 224.29 467.367H226.695V468.511H220.754V467.367ZM220.624 470.318H222.002C221.833 469.863 221.638 469.434 221.417 469.044L222.496 468.641C222.704 469.109 222.912 469.668 223.094 470.318H224.329C224.537 469.772 224.719 469.213 224.875 468.628L225.98 469.018C225.824 469.499 225.642 469.928 225.447 470.318H226.773V471.449H224.368V472.619H226.552V473.737H224.368V477.221C224.368 478.001 223.939 478.391 223.081 478.391H222.405L222.132 477.247C222.327 477.299 222.509 477.325 222.678 477.325C222.99 477.325 223.146 477.195 223.146 476.935V473.737H220.832V472.619H223.146V471.449H220.624V470.318ZM221.612 474.309L222.73 474.543C222.418 475.856 221.989 477 221.417 477.975L220.403 477.325C220.975 476.389 221.378 475.375 221.612 474.309ZM225.681 474.218C226.019 475.05 226.292 475.804 226.487 476.48L225.447 476.87C225.239 476.064 224.979 475.271 224.667 474.491L225.681 474.218Z"
      fill="#292C33" />
  </g>
  <rect width="400" height="240" transform="translate(440 280)" fill="#FCFBF9" />
  <path
    d="M601 392.5C601 397.236 618.428 401 640 401C661.572 401 679 397.236 679 392.5C679 387.764 661.572 384 640 384C618.428 384 601 387.764 601 392.5Z"
    fill="#EBEAE7" />
  <path
    d="M652.006 371.187C652.006 369.187 653.256 367.562 654.756 367.562H668.757V390.189C668.757 392.814 667.132 395.064 665.132 395.064H615.002C613.001 395.064 611.251 392.939 611.251 390.189V367.562H625.253C626.753 367.562 628.003 369.187 628.003 371.187C628.003 373.187 629.253 374.812 630.753 374.812H649.255C650.755 374.812 652.006 373.187 652.006 371.187Z"
    fill="#F2F1EF" />
  <path
    d="M656.577 352.59L656.576 352.591L656.585 352.601L669.196 366.96V390.189C669.196 391.677 668.731 393.038 667.974 394.027C667.217 395.015 666.171 395.628 665.007 395.628H615.002C612.549 395.628 610.688 393.17 610.688 390.189V366.96L623.548 352.601L623.555 352.594L623.559 352.585C624.047 351.487 625.147 350.871 626.381 350.747L653.628 350.747C654.983 350.871 655.963 351.485 656.577 352.59ZM626.378 351.873V351.873L626.369 351.874C625.925 351.937 625.54 352.065 625.203 352.29C624.866 352.514 624.58 352.833 624.327 353.274L612.33 366.896L612.239 366.998H612.376H625.253C627.081 366.998 628.566 368.832 628.566 371.187C628.566 372.01 628.788 372.773 629.171 373.332C629.554 373.891 630.103 374.249 630.753 374.249H649.255C649.844 374.249 650.392 373.89 650.79 373.333C651.189 372.775 651.442 372.012 651.442 371.187C651.442 368.832 652.927 366.998 654.756 366.998H667.632H667.769L667.679 366.896L655.558 353.15C655.174 352.388 654.532 351.873 653.631 351.873H626.378ZM668.194 390.189V390.127H668.132H668.069V368.312V368.25H668.007H654.756C654.167 368.25 653.619 368.609 653.221 369.167C652.822 369.724 652.569 370.487 652.569 371.312C652.569 373.667 651.084 375.501 649.255 375.501H630.753C628.925 375.501 627.44 373.667 627.44 371.312C627.44 370.426 627.187 369.632 626.788 369.058C626.39 368.485 625.842 368.125 625.253 368.125H611.876H611.814V368.187V390.189C611.814 391.388 612.161 392.464 612.733 393.242C613.304 394.019 614.103 394.501 615.002 394.501H665.132C665.971 394.501 666.738 393.985 667.292 393.194C667.847 392.401 668.194 391.326 668.194 390.189Z"
    fill="#E8E7E6" stroke="#E8E7E6" stroke-width="0.123609" />
  <path
    d="M616.016 426.56V427.792L613.84 427.984V429.104H612.432V428.096C611.424 428.16 610.384 428.24 609.296 428.304L609.12 426.992C610.288 426.944 611.392 426.896 612.432 426.832V425.808H609.632L609.312 424.576C609.68 424.16 610.032 423.648 610.384 423.04H608.88V421.696H611.024C611.152 421.376 611.264 421.056 611.392 420.736L612.896 420.976C612.8 421.216 612.72 421.456 612.624 421.696H616.32V423.04H612C611.712 423.584 611.392 424.096 611.072 424.56H612.432V423.616H613.84V424.56H616.176V425.808H613.84V426.736C614.608 426.672 615.328 426.624 616.016 426.56ZM618.432 425.824C618.24 427.12 617.792 428.256 617.12 429.248L616.064 428.144C616.736 427.152 617.104 425.968 617.136 424.608V421.968C619.216 421.776 620.784 421.424 621.84 420.928L622.832 422.048C621.664 422.56 620.224 422.928 618.528 423.12V424.496H623.152V425.824H621.616V429.12H620.16V425.824H618.432ZM621.52 429.472V435.648H619.984V435.088H612.208V435.648H610.672V429.472H621.52ZM612.208 433.792H619.984V432.848H612.208V433.792ZM612.208 431.648H619.984V430.736H612.208V431.648ZM626.048 421.6H637.696V423.088H632.064V424.048C632.032 424.944 631.968 425.776 631.872 426.576H638.96V428.048H634.128V433.184C634.128 433.696 634.368 433.968 634.864 433.968H636.672C636.992 433.968 637.232 433.856 637.392 433.632C637.568 433.408 637.696 432.672 637.76 431.456L639.184 431.92C639.056 433.6 638.8 434.608 638.448 434.928C638.128 435.232 637.632 435.392 636.96 435.392H634.4C633.216 435.392 632.624 434.752 632.624 433.504V428.048H631.632C631.344 429.424 630.944 430.608 630.416 431.616C629.424 433.36 627.824 434.704 625.616 435.648L624.768 434.288C626.976 433.28 628.464 432 629.248 430.464C629.584 429.728 629.856 428.928 630.048 428.048H625.008V426.576H630.32C630.416 425.776 630.48 424.944 630.512 424.048V423.088H626.048V421.6ZM650.672 424.656C650.608 424.912 650.544 425.152 650.48 425.376C650.832 427.04 651.296 428.496 651.856 429.744C652.384 428.272 652.672 426.576 652.736 424.656H650.672ZM651.168 431.296C650.624 430.192 650.144 428.944 649.744 427.552C649.488 428.128 649.232 428.672 648.944 429.152L647.984 427.968C648.88 426.208 649.488 423.84 649.808 420.864L651.296 421.12C651.2 421.856 651.104 422.544 650.976 423.2H655.04V424.656H654.112C654.016 427.264 653.536 429.488 652.672 431.328C653.472 432.656 654.4 433.696 655.488 434.432L654.64 435.664C653.6 434.912 652.704 433.92 651.936 432.688C651.184 433.856 650.24 434.848 649.12 435.648L648.336 434.384C649.52 433.584 650.464 432.56 651.168 431.296ZM643.584 428.304L645.008 428.48C644.912 428.736 644.832 428.976 644.736 429.232H648V430.464C647.712 431.424 647.2 432.272 646.464 433.008C647.12 433.296 647.76 433.616 648.368 433.936L647.552 435.12C646.928 434.736 646.176 434.352 645.296 433.952C644.24 434.64 642.912 435.184 641.328 435.6L640.624 434.352C641.824 434.064 642.864 433.712 643.728 433.264C643.072 432.992 642.368 432.72 641.632 432.432C642.016 431.76 642.368 431.136 642.672 430.528H640.992V429.232H643.248C643.376 428.912 643.488 428.592 643.584 428.304ZM645.072 432.432C645.776 431.872 646.288 431.232 646.64 430.528H644.16C643.936 430.976 643.696 431.408 643.44 431.824C644 432.016 644.544 432.208 645.072 432.432ZM642.48 421.12C642.832 421.728 643.136 422.368 643.408 423.072L642.32 423.568C642 422.8 641.648 422.112 641.28 421.52L642.48 421.12ZM647.072 421.104L648.144 421.616C647.824 422.288 647.424 422.96 646.928 423.616L645.872 423.072C646.384 422.4 646.784 421.744 647.072 421.104ZM641.024 423.84H644.048V420.896H645.44V423.84H648.224V425.168H645.44V425.248C646.288 425.6 647.152 426.016 648.032 426.48L647.232 427.68C646.528 427.12 645.936 426.672 645.44 426.352V428.144H644.048V425.44C643.52 426.592 642.64 427.6 641.408 428.464L640.656 427.232C641.776 426.592 642.56 425.904 643.04 425.168H641.024V423.84ZM658.64 435.504H657.28L656.96 434.064C657.36 434.128 657.744 434.176 658.128 434.176C658.48 434.176 658.672 433.968 658.672 433.552V430.112C658.096 430.32 657.536 430.512 656.976 430.704L656.592 429.2C657.296 429.04 657.984 428.832 658.672 428.592V425.28H656.88V423.824H658.672V420.928H660.144V423.824H661.552V425.28H660.144V428.016C660.592 427.808 661.056 427.584 661.504 427.344V428.832C661.04 429.056 660.592 429.28 660.144 429.488V433.92C660.144 434.976 659.632 435.504 658.64 435.504ZM663.616 428.56C663.408 431.248 662.8 433.616 661.776 435.664L660.592 434.608C661.664 432.544 662.208 429.888 662.224 426.64V421.424H670.88V425.568H667.968V427.168H671.264V428.56H667.968V430.208H670.544V435.648H669.136V434.96H665.344V435.648H663.936V430.208H666.496V428.56H663.616ZM666.496 425.568H663.696V426.64C663.696 426.816 663.68 426.992 663.68 427.168H666.496V425.568ZM665.344 433.616H669.136V431.552H665.344V433.616ZM669.408 422.816H663.696V424.208H669.408V422.816Z"
    fill="#8A8F99" />
  <path
    d="M574.077 453.384H571.308V458.753C571.308 459.052 571.464 459.208 571.802 459.208H574.285C574.727 459.208 575.013 459.091 575.117 458.883C575.234 458.636 575.325 458.155 575.377 457.44L576.261 457.726C576.17 458.831 576.001 459.507 575.767 459.767C575.559 459.975 575.143 460.079 574.532 460.079H571.438C570.71 460.079 570.359 459.741 570.359 459.078V452.552H574.987V456.01C574.974 456.712 574.61 457.076 573.895 457.102C573.401 457.102 572.92 457.089 572.465 457.063L572.231 456.179C572.725 456.231 573.167 456.257 573.557 456.257C573.895 456.257 574.077 456.075 574.077 455.724V453.384ZM572.426 448.496H573.115C574.246 449.692 575.338 450.953 576.378 452.279L575.767 452.929C574.649 451.447 573.674 450.264 572.842 449.38C571.88 450.81 570.775 452.123 569.501 453.319L568.955 452.565C570.229 451.408 571.386 450.056 572.426 448.496ZM577.145 449.523H578.055V457.622H577.145V449.523ZM579.316 460.183H577.301L577.093 459.286C577.756 459.325 578.393 459.351 578.991 459.351C579.316 459.351 579.485 459.156 579.485 458.766V448.418H580.421V459C580.421 459.78 580.044 460.183 579.316 460.183ZM592.862 453.709H590.08V454.749H593.122V455.516H590.08V456.595H593.499V457.388H590.08V458.675H589.17V457.388H586.219V456.595H589.17V455.516H586.622V454.749H589.17V453.709H586.895V452.929H589.17V451.889H586.258V451.109H589.17V450.082H586.895V449.302H589.17V448.353H590.08V449.302H592.862V451.109H593.733V451.889H592.862V453.709ZM590.08 450.082V451.109H591.952V450.082H590.08ZM590.08 451.889V452.929H591.952V451.889H590.08ZM589.469 459.143C590.899 459.143 592.368 459.117 593.876 459.078L593.72 459.975H589.872C587.532 459.975 585.855 459.637 584.841 458.961C584.672 458.831 584.529 458.714 584.399 458.584C583.983 459.195 583.463 459.728 582.865 460.183L582.254 459.39C582.865 458.948 583.372 458.428 583.788 457.83C583.281 457.102 582.865 456.179 582.553 455.061L583.333 454.775C583.593 455.698 583.905 456.452 584.243 457.024C584.685 456.101 584.945 455.022 585.023 453.787H582.618V453.059C583.372 452.097 584.074 451.057 584.698 449.939H582.566V449.055H585.751V449.822C585.101 451.018 584.451 452.045 583.827 452.929H585.868V453.488C585.816 455.204 585.465 456.66 584.841 457.856C585.049 458.077 585.257 458.246 585.478 458.376C586.362 458.87 587.701 459.117 589.469 459.143ZM600.532 450.277H596.073V449.38H605.966V450.277H601.494V458.506H606.811V459.403H595.202V458.506H600.532V450.277ZM609.463 450.407H615.066C615.482 449.757 615.859 449.042 616.184 448.288L617.094 448.613C616.782 449.276 616.431 449.874 616.041 450.407H618.537V455.75H614.468V456.985H619.772V457.869H614.468V460.339H613.532V457.869H608.228V456.985H613.532V455.75H609.463V450.407ZM617.627 454.918V453.462H614.468V454.918H617.627ZM613.532 454.918V453.462H610.373V454.918H613.532ZM610.373 452.656H613.532V451.226H610.373V452.656ZM614.468 451.226V452.656H617.627V451.226H614.468ZM611.764 448.353C612.193 448.847 612.596 449.406 612.986 450.004L612.206 450.394C611.816 449.77 611.413 449.224 610.971 448.73L611.764 448.353ZM623.464 452.968V453.306C623.386 456.218 622.788 458.532 621.696 460.261L621.007 459.546C621.956 458.038 622.463 455.958 622.541 453.306V449.406C625.895 449.367 628.898 449.068 631.576 448.509L632.044 449.354C629.496 449.874 626.636 450.16 623.464 450.238V452.058H632.824V452.968H623.464ZM631.797 454.788V460.3H630.861V459.689H625.596V460.3H624.66V454.788H631.797ZM625.596 458.779H630.861V455.685H625.596V458.779ZM637.504 452.006H642.522V456.634H637.504V452.006ZM641.638 455.841V452.812H638.375V455.841H641.638ZM645.213 449.159V460.092H644.303V459.533H635.697V460.092H634.787V449.159H645.213ZM635.697 458.701H644.303V449.991H635.697V458.701ZM653.845 458.129V459.052C651.843 459.468 649.685 459.832 647.371 460.118L647.163 459.221C648.203 459.104 649.217 458.974 650.205 458.818V456.361H647.67V455.451H650.205V453.943H651.141V455.451H653.481V456.361H651.141V458.662C652.064 458.506 652.961 458.324 653.845 458.129ZM647.332 448.951H653.793V449.835H650.452C649.828 451.135 649.243 452.11 648.697 452.773C649.984 452.643 651.206 452.487 652.376 452.279C652.09 451.811 651.765 451.343 651.414 450.862L652.129 450.394C653 451.564 653.663 452.591 654.131 453.462L653.351 454.008C653.182 453.67 653 453.332 652.792 452.981C651.154 453.267 649.347 453.514 647.397 453.709L647.176 452.864C647.332 452.838 647.462 452.812 647.553 452.773C648.086 452.305 648.723 451.33 649.464 449.835H647.332V448.951ZM657.225 460.183H655.314L655.106 459.273C655.73 459.299 656.328 459.325 656.9 459.325C657.264 459.325 657.459 459.13 657.459 458.753V448.418H658.408V458.987C658.408 459.78 658.005 460.183 657.225 460.183ZM654.859 449.588H655.769V457.635H654.859V449.588ZM660.436 450.771H665.519V448.418H666.481V450.771H671.551V451.668H667.313C668.184 453.735 669.744 455.581 671.98 457.206L671.343 458.012C669.055 456.14 667.469 454.021 666.585 451.668H666.481V456.738H669.263V457.635H666.481V460.3H665.519V457.635H662.841V456.738H665.519V451.668H665.428C664.466 454.307 662.828 456.478 660.514 458.181L659.981 457.31C662.165 455.854 663.725 453.969 664.687 451.668H660.436V450.771ZM683.017 451.226V457.375H682.081V452.136H675.867V457.401H674.931V451.226H678.22C678.35 450.771 678.441 450.303 678.506 449.809H673.28V448.925H684.72V449.809H679.494C679.416 450.303 679.325 450.784 679.195 451.226H683.017ZM679.858 457.401C681.535 457.973 683.069 458.649 684.447 459.455L683.875 460.339C682.393 459.416 680.885 458.688 679.338 458.168L679.858 457.401ZM678.519 452.916H679.481V454.983C679.429 456.413 678.961 457.544 678.103 458.402C677.271 459.195 675.906 459.806 674.008 460.248L673.475 459.416C675.36 459 676.673 458.454 677.414 457.765C678.116 457.05 678.48 456.127 678.519 454.983V452.916ZM688.139 453.254H695.913V458.038H688.139V453.254ZM695.003 457.206V456.062H689.049V457.206H695.003ZM689.049 455.269H695.003V454.086H689.049V455.269ZM686.683 449.549H691.571V448.353H692.481V449.549H697.369V450.407H693.378C694.353 451.356 695.861 452.11 697.915 452.656L697.512 453.501C695.172 452.708 693.521 451.681 692.559 450.407H692.481V452.838H691.571V450.407H691.493C690.479 451.655 688.828 452.695 686.553 453.514L686.059 452.682C688.139 452.084 689.686 451.317 690.7 450.407H686.683V449.549ZM686.423 459.052H697.59V459.923H686.423V459.052ZM700.086 450.771H704.207C704.35 450.459 704.48 450.134 704.61 449.822C703.336 449.9 701.958 449.939 700.476 449.939L700.203 449.159C703.895 449.159 706.95 448.912 709.381 448.418L709.81 449.159C708.575 449.432 707.145 449.627 705.507 449.757C705.39 450.108 705.26 450.446 705.13 450.771H709.966V451.577H704.753C704.597 451.889 704.428 452.175 704.259 452.461H710.72V453.293H703.687C703.453 453.605 703.219 453.904 702.972 454.19H709.42V460.313H708.523V459.754H702.647V460.313H701.75V455.438C701.087 456.036 700.359 456.621 699.553 457.167L699.046 456.361C700.463 455.399 701.633 454.385 702.556 453.293H699.384V452.461H703.206C703.414 452.162 703.609 451.863 703.778 451.577H700.086V450.771ZM702.647 456.556V457.375H708.523V456.556H702.647ZM708.523 455.828V454.957H702.647V455.828H708.523ZM702.647 458.103V458.987H708.523V458.103H702.647Z"
    fill="#C3C6CD" />
  <rect x="0.5" y="0.5" width="859" height="539" rx="4.5" stroke="#9747FF" stroke-dasharray="10 5" />
  <defs>
    <filter id="filter0_d_1705_5816" x="608" y="181" width="64" height="36" filterUnits="userSpaceOnUse"
      color-interpolation-filters="sRGB">
      <feFlood flood-opacity="0" result="BackgroundImageFix" />
      <feColorMatrix in="SourceAlpha" type="matrix" values="0 0 0 0 0 0 0 0 0 0 0 0 0 0 0 0 0 0 127 0"
        result="hardAlpha" />
      <feOffset dy="1" />
      <feGaussianBlur stdDeviation="2" />
      <feComposite in2="hardAlpha" operator="out" />
      <feColorMatrix type="matrix" values="0 0 0 0 0.2 0 0 0 0 0.173333 0 0 0 0 0.12 0 0 0 0.12 0" />
      <feBlend mode="normal" in2="BackgroundImageFix" result="effect1_dropShadow_1705_5816" />
      <feBlend mode="normal" in="SourceGraphic" in2="effect1_dropShadow_1705_5816" result="shape" />
    </filter>
    <filter id="filter1_d_1705_5816" x="188" y="455" width="64" height="36" filterUnits="userSpaceOnUse"
      color-interpolation-filters="sRGB">
      <feFlood flood-opacity="0" result="BackgroundImageFix" />
      <feColorMatrix in="SourceAlpha" type="matrix" values="0 0 0 0 0 0 0 0 0 0 0 0 0 0 0 0 0 0 127 0"
        result="hardAlpha" />
      <feOffset dy="1" />
      <feGaussianBlur stdDeviation="2" />
      <feComposite in2="hardAlpha" operator="out" />
      <feColorMatrix type="matrix" values="0 0 0 0 0.2 0 0 0 0 0.173333 0 0 0 0 0.12 0 0 0 0.12 0" />
      <feBlend mode="normal" in2="BackgroundImageFix" result="effect1_dropShadow_1705_5816" />
      <feBlend mode="normal" in="SourceGraphic" in2="effect1_dropShadow_1705_5816" result="shape" />
    </filter>
  </defs>
</svg>